%TF.GenerationSoftware,KiCad,Pcbnew,7.0.3-24-g09febce4ce*%
%TF.CreationDate,2023-05-23T12:19:05+02:00*%
%TF.ProjectId,SPI2WS2812,53504932-5753-4323-9831-322e6b696361,rev?*%
%TF.SameCoordinates,Original*%
%TF.FileFunction,Drillmap*%
%TF.FilePolarity,Positive*%
%FSLAX45Y45*%
G04 Gerber Fmt 4.5, Leading zero omitted, Abs format (unit mm)*
G04 Created by KiCad (PCBNEW 7.0.3-24-g09febce4ce) date 2023-05-23 12:19:05*
%MOMM*%
%LPD*%
G01*
G04 APERTURE LIST*
%ADD10C,0.100000*%
%ADD11C,0.200000*%
%ADD12C,0.050000*%
%ADD13C,0.320000*%
G04 APERTURE END LIST*
D10*
X8890000Y-5588000D02*
X11938000Y-5588000D01*
X8382000Y-11176000D02*
G75*
G03*
X8890000Y-11684000I508000J0D01*
G01*
X8382000Y-11176000D02*
X8382000Y-6096000D01*
X8890000Y-5588000D02*
G75*
G03*
X8382000Y-6096000I0J-508000D01*
G01*
X11938000Y-11684000D02*
X8890000Y-11684000D01*
X11938000Y-11684000D02*
G75*
G03*
X12446000Y-11176000I0J508000D01*
G01*
X12446000Y-6096000D02*
G75*
G03*
X11938000Y-5588000I-508000J0D01*
G01*
X12446000Y-6096000D02*
X12446000Y-11176000D01*
D11*
D12*
X8625000Y-6071000D02*
X8675000Y-6121000D01*
X8675000Y-6071000D02*
X8625000Y-6121000D01*
X8625000Y-11151000D02*
X8675000Y-11201000D01*
X8675000Y-11151000D02*
X8625000Y-11201000D01*
X8695294Y-5901294D02*
X8745294Y-5951294D01*
X8745294Y-5901294D02*
X8695294Y-5951294D01*
X8695294Y-6240706D02*
X8745294Y-6290706D01*
X8745294Y-6240706D02*
X8695294Y-6290706D01*
X8695294Y-10981294D02*
X8745294Y-11031294D01*
X8745294Y-10981294D02*
X8695294Y-11031294D01*
X8695294Y-11320706D02*
X8745294Y-11370706D01*
X8745294Y-11320706D02*
X8695294Y-11370706D01*
X8865000Y-5831000D02*
X8915000Y-5881000D01*
X8915000Y-5831000D02*
X8865000Y-5881000D01*
X8865000Y-6311000D02*
X8915000Y-6361000D01*
X8915000Y-6311000D02*
X8865000Y-6361000D01*
X8865000Y-10911000D02*
X8915000Y-10961000D01*
X8915000Y-10911000D02*
X8865000Y-10961000D01*
X8865000Y-11391000D02*
X8915000Y-11441000D01*
X8915000Y-11391000D02*
X8865000Y-11441000D01*
X9034706Y-5901294D02*
X9084706Y-5951294D01*
X9084706Y-5901294D02*
X9034706Y-5951294D01*
X9034706Y-6240706D02*
X9084706Y-6290706D01*
X9084706Y-6240706D02*
X9034706Y-6290706D01*
X9034706Y-10981294D02*
X9084706Y-11031294D01*
X9084706Y-10981294D02*
X9034706Y-11031294D01*
X9034706Y-11320706D02*
X9084706Y-11370706D01*
X9084706Y-11320706D02*
X9034706Y-11370706D01*
X9105000Y-6071000D02*
X9155000Y-6121000D01*
X9155000Y-6071000D02*
X9105000Y-6121000D01*
X9105000Y-11151000D02*
X9155000Y-11201000D01*
X9155000Y-11151000D02*
X9105000Y-11201000D01*
X11673000Y-6071000D02*
X11723000Y-6121000D01*
X11723000Y-6071000D02*
X11673000Y-6121000D01*
X11673000Y-11151000D02*
X11723000Y-11201000D01*
X11723000Y-11151000D02*
X11673000Y-11201000D01*
X11743294Y-5901294D02*
X11793294Y-5951294D01*
X11793294Y-5901294D02*
X11743294Y-5951294D01*
X11743294Y-6240706D02*
X11793294Y-6290706D01*
X11793294Y-6240706D02*
X11743294Y-6290706D01*
X11743294Y-10981294D02*
X11793294Y-11031294D01*
X11793294Y-10981294D02*
X11743294Y-11031294D01*
X11743294Y-11320706D02*
X11793294Y-11370706D01*
X11793294Y-11320706D02*
X11743294Y-11370706D01*
X11913000Y-5831000D02*
X11963000Y-5881000D01*
X11963000Y-5831000D02*
X11913000Y-5881000D01*
X11913000Y-6311000D02*
X11963000Y-6361000D01*
X11963000Y-6311000D02*
X11913000Y-6361000D01*
X11913000Y-10911000D02*
X11963000Y-10961000D01*
X11963000Y-10911000D02*
X11913000Y-10961000D01*
X11913000Y-11391000D02*
X11963000Y-11441000D01*
X11963000Y-11391000D02*
X11913000Y-11441000D01*
X12082706Y-5901294D02*
X12132706Y-5951294D01*
X12132706Y-5901294D02*
X12082706Y-5951294D01*
X12082706Y-6240706D02*
X12132706Y-6290706D01*
X12132706Y-6240706D02*
X12082706Y-6290706D01*
X12082706Y-10981294D02*
X12132706Y-11031294D01*
X12132706Y-10981294D02*
X12082706Y-11031294D01*
X12082706Y-11320706D02*
X12132706Y-11370706D01*
X12132706Y-11320706D02*
X12082706Y-11370706D01*
X12153000Y-6071000D02*
X12203000Y-6121000D01*
X12203000Y-6071000D02*
X12153000Y-6121000D01*
X12153000Y-11151000D02*
X12203000Y-11201000D01*
X12203000Y-11151000D02*
X12153000Y-11201000D01*
D10*
X8940000Y-6858000D02*
G75*
G03*
X8940000Y-6858000I-50000J0D01*
G01*
X8940000Y-7112000D02*
G75*
G03*
X8940000Y-7112000I-50000J0D01*
G01*
X8940000Y-7366000D02*
G75*
G03*
X8940000Y-7366000I-50000J0D01*
G01*
X8940000Y-7620000D02*
G75*
G03*
X8940000Y-7620000I-50000J0D01*
G01*
X8940000Y-7874000D02*
G75*
G03*
X8940000Y-7874000I-50000J0D01*
G01*
X8940000Y-8128000D02*
G75*
G03*
X8940000Y-8128000I-50000J0D01*
G01*
X8940000Y-9144000D02*
G75*
G03*
X8940000Y-9144000I-50000J0D01*
G01*
X8940000Y-9398000D02*
G75*
G03*
X8940000Y-9398000I-50000J0D01*
G01*
X8940000Y-9652000D02*
G75*
G03*
X8940000Y-9652000I-50000J0D01*
G01*
X8940000Y-9906000D02*
G75*
G03*
X8940000Y-9906000I-50000J0D01*
G01*
X8940000Y-10160000D02*
G75*
G03*
X8940000Y-10160000I-50000J0D01*
G01*
X8940000Y-10414000D02*
G75*
G03*
X8940000Y-10414000I-50000J0D01*
G01*
X11988000Y-6858000D02*
G75*
G03*
X11988000Y-6858000I-50000J0D01*
G01*
X11988000Y-7112000D02*
G75*
G03*
X11988000Y-7112000I-50000J0D01*
G01*
X11988000Y-7366000D02*
G75*
G03*
X11988000Y-7366000I-50000J0D01*
G01*
X11988000Y-7620000D02*
G75*
G03*
X11988000Y-7620000I-50000J0D01*
G01*
X11988000Y-7874000D02*
G75*
G03*
X11988000Y-7874000I-50000J0D01*
G01*
X11988000Y-8128000D02*
G75*
G03*
X11988000Y-8128000I-50000J0D01*
G01*
X11988000Y-9144000D02*
G75*
G03*
X11988000Y-9144000I-50000J0D01*
G01*
X11988000Y-9398000D02*
G75*
G03*
X11988000Y-9398000I-50000J0D01*
G01*
X11988000Y-9652000D02*
G75*
G03*
X11988000Y-9652000I-50000J0D01*
G01*
X11988000Y-9906000D02*
G75*
G03*
X11988000Y-9906000I-50000J0D01*
G01*
X11988000Y-10160000D02*
G75*
G03*
X11988000Y-10160000I-50000J0D01*
G01*
X11988000Y-10414000D02*
G75*
G03*
X11988000Y-10414000I-50000J0D01*
G01*
D13*
X8890000Y-5936000D02*
X8890000Y-6256000D01*
X8730000Y-6096000D02*
X9050000Y-6096000D01*
X8890000Y-11016000D02*
X8890000Y-11336000D01*
X8730000Y-11176000D02*
X9050000Y-11176000D01*
X11938000Y-5936000D02*
X11938000Y-6256000D01*
X11778000Y-6096000D02*
X12098000Y-6096000D01*
X11938000Y-11016000D02*
X11938000Y-11336000D01*
X11778000Y-11176000D02*
X12098000Y-11176000D01*
D11*
X8637777Y-12000484D02*
X8637777Y-11800484D01*
X8637777Y-11800484D02*
X8685396Y-11800484D01*
X8685396Y-11800484D02*
X8713967Y-11810008D01*
X8713967Y-11810008D02*
X8733015Y-11829055D01*
X8733015Y-11829055D02*
X8742539Y-11848103D01*
X8742539Y-11848103D02*
X8752063Y-11886198D01*
X8752063Y-11886198D02*
X8752063Y-11914769D01*
X8752063Y-11914769D02*
X8742539Y-11952865D01*
X8742539Y-11952865D02*
X8733015Y-11971912D01*
X8733015Y-11971912D02*
X8713967Y-11990960D01*
X8713967Y-11990960D02*
X8685396Y-12000484D01*
X8685396Y-12000484D02*
X8637777Y-12000484D01*
X8837777Y-12000484D02*
X8837777Y-11867150D01*
X8837777Y-11905246D02*
X8847301Y-11886198D01*
X8847301Y-11886198D02*
X8856824Y-11876674D01*
X8856824Y-11876674D02*
X8875872Y-11867150D01*
X8875872Y-11867150D02*
X8894920Y-11867150D01*
X8961586Y-12000484D02*
X8961586Y-11867150D01*
X8961586Y-11800484D02*
X8952063Y-11810008D01*
X8952063Y-11810008D02*
X8961586Y-11819531D01*
X8961586Y-11819531D02*
X8971110Y-11810008D01*
X8971110Y-11810008D02*
X8961586Y-11800484D01*
X8961586Y-11800484D02*
X8961586Y-11819531D01*
X9085396Y-12000484D02*
X9066348Y-11990960D01*
X9066348Y-11990960D02*
X9056824Y-11971912D01*
X9056824Y-11971912D02*
X9056824Y-11800484D01*
X9190158Y-12000484D02*
X9171110Y-11990960D01*
X9171110Y-11990960D02*
X9161586Y-11971912D01*
X9161586Y-11971912D02*
X9161586Y-11800484D01*
X9418729Y-12000484D02*
X9418729Y-11800484D01*
X9418729Y-11800484D02*
X9485396Y-11943341D01*
X9485396Y-11943341D02*
X9552063Y-11800484D01*
X9552063Y-11800484D02*
X9552063Y-12000484D01*
X9733015Y-12000484D02*
X9733015Y-11895722D01*
X9733015Y-11895722D02*
X9723491Y-11876674D01*
X9723491Y-11876674D02*
X9704444Y-11867150D01*
X9704444Y-11867150D02*
X9666348Y-11867150D01*
X9666348Y-11867150D02*
X9647301Y-11876674D01*
X9733015Y-11990960D02*
X9713967Y-12000484D01*
X9713967Y-12000484D02*
X9666348Y-12000484D01*
X9666348Y-12000484D02*
X9647301Y-11990960D01*
X9647301Y-11990960D02*
X9637777Y-11971912D01*
X9637777Y-11971912D02*
X9637777Y-11952865D01*
X9637777Y-11952865D02*
X9647301Y-11933817D01*
X9647301Y-11933817D02*
X9666348Y-11924293D01*
X9666348Y-11924293D02*
X9713967Y-11924293D01*
X9713967Y-11924293D02*
X9733015Y-11914769D01*
X9828253Y-11867150D02*
X9828253Y-12067150D01*
X9828253Y-11876674D02*
X9847301Y-11867150D01*
X9847301Y-11867150D02*
X9885396Y-11867150D01*
X9885396Y-11867150D02*
X9904444Y-11876674D01*
X9904444Y-11876674D02*
X9913967Y-11886198D01*
X9913967Y-11886198D02*
X9923491Y-11905246D01*
X9923491Y-11905246D02*
X9923491Y-11962388D01*
X9923491Y-11962388D02*
X9913967Y-11981436D01*
X9913967Y-11981436D02*
X9904444Y-11990960D01*
X9904444Y-11990960D02*
X9885396Y-12000484D01*
X9885396Y-12000484D02*
X9847301Y-12000484D01*
X9847301Y-12000484D02*
X9828253Y-11990960D01*
X10009205Y-11981436D02*
X10018729Y-11990960D01*
X10018729Y-11990960D02*
X10009205Y-12000484D01*
X10009205Y-12000484D02*
X9999682Y-11990960D01*
X9999682Y-11990960D02*
X10009205Y-11981436D01*
X10009205Y-11981436D02*
X10009205Y-12000484D01*
X10009205Y-11876674D02*
X10018729Y-11886198D01*
X10018729Y-11886198D02*
X10009205Y-11895722D01*
X10009205Y-11895722D02*
X9999682Y-11886198D01*
X9999682Y-11886198D02*
X10009205Y-11876674D01*
X10009205Y-11876674D02*
X10009205Y-11895722D01*
D12*
X8327000Y-12304000D02*
X8377000Y-12354000D01*
X8377000Y-12304000D02*
X8327000Y-12354000D01*
D11*
X8675872Y-12220484D02*
X8694920Y-12220484D01*
X8694920Y-12220484D02*
X8713967Y-12230008D01*
X8713967Y-12230008D02*
X8723491Y-12239531D01*
X8723491Y-12239531D02*
X8733015Y-12258579D01*
X8733015Y-12258579D02*
X8742539Y-12296674D01*
X8742539Y-12296674D02*
X8742539Y-12344293D01*
X8742539Y-12344293D02*
X8733015Y-12382388D01*
X8733015Y-12382388D02*
X8723491Y-12401436D01*
X8723491Y-12401436D02*
X8713967Y-12410960D01*
X8713967Y-12410960D02*
X8694920Y-12420484D01*
X8694920Y-12420484D02*
X8675872Y-12420484D01*
X8675872Y-12420484D02*
X8656824Y-12410960D01*
X8656824Y-12410960D02*
X8647301Y-12401436D01*
X8647301Y-12401436D02*
X8637777Y-12382388D01*
X8637777Y-12382388D02*
X8628253Y-12344293D01*
X8628253Y-12344293D02*
X8628253Y-12296674D01*
X8628253Y-12296674D02*
X8637777Y-12258579D01*
X8637777Y-12258579D02*
X8647301Y-12239531D01*
X8647301Y-12239531D02*
X8656824Y-12230008D01*
X8656824Y-12230008D02*
X8675872Y-12220484D01*
X8828253Y-12401436D02*
X8837777Y-12410960D01*
X8837777Y-12410960D02*
X8828253Y-12420484D01*
X8828253Y-12420484D02*
X8818729Y-12410960D01*
X8818729Y-12410960D02*
X8828253Y-12401436D01*
X8828253Y-12401436D02*
X8828253Y-12420484D01*
X9018729Y-12220484D02*
X8923491Y-12220484D01*
X8923491Y-12220484D02*
X8913967Y-12315722D01*
X8913967Y-12315722D02*
X8923491Y-12306198D01*
X8923491Y-12306198D02*
X8942539Y-12296674D01*
X8942539Y-12296674D02*
X8990158Y-12296674D01*
X8990158Y-12296674D02*
X9009205Y-12306198D01*
X9009205Y-12306198D02*
X9018729Y-12315722D01*
X9018729Y-12315722D02*
X9028253Y-12334769D01*
X9028253Y-12334769D02*
X9028253Y-12382388D01*
X9028253Y-12382388D02*
X9018729Y-12401436D01*
X9018729Y-12401436D02*
X9009205Y-12410960D01*
X9009205Y-12410960D02*
X8990158Y-12420484D01*
X8990158Y-12420484D02*
X8942539Y-12420484D01*
X8942539Y-12420484D02*
X8923491Y-12410960D01*
X8923491Y-12410960D02*
X8913967Y-12401436D01*
X9152063Y-12220484D02*
X9171110Y-12220484D01*
X9171110Y-12220484D02*
X9190158Y-12230008D01*
X9190158Y-12230008D02*
X9199682Y-12239531D01*
X9199682Y-12239531D02*
X9209205Y-12258579D01*
X9209205Y-12258579D02*
X9218729Y-12296674D01*
X9218729Y-12296674D02*
X9218729Y-12344293D01*
X9218729Y-12344293D02*
X9209205Y-12382388D01*
X9209205Y-12382388D02*
X9199682Y-12401436D01*
X9199682Y-12401436D02*
X9190158Y-12410960D01*
X9190158Y-12410960D02*
X9171110Y-12420484D01*
X9171110Y-12420484D02*
X9152063Y-12420484D01*
X9152063Y-12420484D02*
X9133015Y-12410960D01*
X9133015Y-12410960D02*
X9123491Y-12401436D01*
X9123491Y-12401436D02*
X9113967Y-12382388D01*
X9113967Y-12382388D02*
X9104444Y-12344293D01*
X9104444Y-12344293D02*
X9104444Y-12296674D01*
X9104444Y-12296674D02*
X9113967Y-12258579D01*
X9113967Y-12258579D02*
X9123491Y-12239531D01*
X9123491Y-12239531D02*
X9133015Y-12230008D01*
X9133015Y-12230008D02*
X9152063Y-12220484D01*
X9342539Y-12220484D02*
X9361586Y-12220484D01*
X9361586Y-12220484D02*
X9380634Y-12230008D01*
X9380634Y-12230008D02*
X9390158Y-12239531D01*
X9390158Y-12239531D02*
X9399682Y-12258579D01*
X9399682Y-12258579D02*
X9409205Y-12296674D01*
X9409205Y-12296674D02*
X9409205Y-12344293D01*
X9409205Y-12344293D02*
X9399682Y-12382388D01*
X9399682Y-12382388D02*
X9390158Y-12401436D01*
X9390158Y-12401436D02*
X9380634Y-12410960D01*
X9380634Y-12410960D02*
X9361586Y-12420484D01*
X9361586Y-12420484D02*
X9342539Y-12420484D01*
X9342539Y-12420484D02*
X9323491Y-12410960D01*
X9323491Y-12410960D02*
X9313967Y-12401436D01*
X9313967Y-12401436D02*
X9304444Y-12382388D01*
X9304444Y-12382388D02*
X9294920Y-12344293D01*
X9294920Y-12344293D02*
X9294920Y-12296674D01*
X9294920Y-12296674D02*
X9304444Y-12258579D01*
X9304444Y-12258579D02*
X9313967Y-12239531D01*
X9313967Y-12239531D02*
X9323491Y-12230008D01*
X9323491Y-12230008D02*
X9342539Y-12220484D01*
X9494920Y-12420484D02*
X9494920Y-12287150D01*
X9494920Y-12306198D02*
X9504444Y-12296674D01*
X9504444Y-12296674D02*
X9523491Y-12287150D01*
X9523491Y-12287150D02*
X9552063Y-12287150D01*
X9552063Y-12287150D02*
X9571110Y-12296674D01*
X9571110Y-12296674D02*
X9580634Y-12315722D01*
X9580634Y-12315722D02*
X9580634Y-12420484D01*
X9580634Y-12315722D02*
X9590158Y-12296674D01*
X9590158Y-12296674D02*
X9609205Y-12287150D01*
X9609205Y-12287150D02*
X9637777Y-12287150D01*
X9637777Y-12287150D02*
X9656825Y-12296674D01*
X9656825Y-12296674D02*
X9666348Y-12315722D01*
X9666348Y-12315722D02*
X9666348Y-12420484D01*
X9761586Y-12420484D02*
X9761586Y-12287150D01*
X9761586Y-12306198D02*
X9771110Y-12296674D01*
X9771110Y-12296674D02*
X9790158Y-12287150D01*
X9790158Y-12287150D02*
X9818729Y-12287150D01*
X9818729Y-12287150D02*
X9837777Y-12296674D01*
X9837777Y-12296674D02*
X9847301Y-12315722D01*
X9847301Y-12315722D02*
X9847301Y-12420484D01*
X9847301Y-12315722D02*
X9856825Y-12296674D01*
X9856825Y-12296674D02*
X9875872Y-12287150D01*
X9875872Y-12287150D02*
X9904444Y-12287150D01*
X9904444Y-12287150D02*
X9923491Y-12296674D01*
X9923491Y-12296674D02*
X9933015Y-12315722D01*
X9933015Y-12315722D02*
X9933015Y-12420484D01*
X10323491Y-12210960D02*
X10152063Y-12468103D01*
X10580634Y-12220484D02*
X10599682Y-12220484D01*
X10599682Y-12220484D02*
X10618729Y-12230008D01*
X10618729Y-12230008D02*
X10628253Y-12239531D01*
X10628253Y-12239531D02*
X10637777Y-12258579D01*
X10637777Y-12258579D02*
X10647301Y-12296674D01*
X10647301Y-12296674D02*
X10647301Y-12344293D01*
X10647301Y-12344293D02*
X10637777Y-12382388D01*
X10637777Y-12382388D02*
X10628253Y-12401436D01*
X10628253Y-12401436D02*
X10618729Y-12410960D01*
X10618729Y-12410960D02*
X10599682Y-12420484D01*
X10599682Y-12420484D02*
X10580634Y-12420484D01*
X10580634Y-12420484D02*
X10561587Y-12410960D01*
X10561587Y-12410960D02*
X10552063Y-12401436D01*
X10552063Y-12401436D02*
X10542539Y-12382388D01*
X10542539Y-12382388D02*
X10533015Y-12344293D01*
X10533015Y-12344293D02*
X10533015Y-12296674D01*
X10533015Y-12296674D02*
X10542539Y-12258579D01*
X10542539Y-12258579D02*
X10552063Y-12239531D01*
X10552063Y-12239531D02*
X10561587Y-12230008D01*
X10561587Y-12230008D02*
X10580634Y-12220484D01*
X10733015Y-12401436D02*
X10742539Y-12410960D01*
X10742539Y-12410960D02*
X10733015Y-12420484D01*
X10733015Y-12420484D02*
X10723491Y-12410960D01*
X10723491Y-12410960D02*
X10733015Y-12401436D01*
X10733015Y-12401436D02*
X10733015Y-12420484D01*
X10866348Y-12220484D02*
X10885396Y-12220484D01*
X10885396Y-12220484D02*
X10904444Y-12230008D01*
X10904444Y-12230008D02*
X10913968Y-12239531D01*
X10913968Y-12239531D02*
X10923491Y-12258579D01*
X10923491Y-12258579D02*
X10933015Y-12296674D01*
X10933015Y-12296674D02*
X10933015Y-12344293D01*
X10933015Y-12344293D02*
X10923491Y-12382388D01*
X10923491Y-12382388D02*
X10913968Y-12401436D01*
X10913968Y-12401436D02*
X10904444Y-12410960D01*
X10904444Y-12410960D02*
X10885396Y-12420484D01*
X10885396Y-12420484D02*
X10866348Y-12420484D01*
X10866348Y-12420484D02*
X10847301Y-12410960D01*
X10847301Y-12410960D02*
X10837777Y-12401436D01*
X10837777Y-12401436D02*
X10828253Y-12382388D01*
X10828253Y-12382388D02*
X10818729Y-12344293D01*
X10818729Y-12344293D02*
X10818729Y-12296674D01*
X10818729Y-12296674D02*
X10828253Y-12258579D01*
X10828253Y-12258579D02*
X10837777Y-12239531D01*
X10837777Y-12239531D02*
X10847301Y-12230008D01*
X10847301Y-12230008D02*
X10866348Y-12220484D01*
X11123491Y-12420484D02*
X11009206Y-12420484D01*
X11066348Y-12420484D02*
X11066348Y-12220484D01*
X11066348Y-12220484D02*
X11047301Y-12249055D01*
X11047301Y-12249055D02*
X11028253Y-12268103D01*
X11028253Y-12268103D02*
X11009206Y-12277627D01*
X11218729Y-12420484D02*
X11256825Y-12420484D01*
X11256825Y-12420484D02*
X11275872Y-12410960D01*
X11275872Y-12410960D02*
X11285396Y-12401436D01*
X11285396Y-12401436D02*
X11304444Y-12372865D01*
X11304444Y-12372865D02*
X11313967Y-12334769D01*
X11313967Y-12334769D02*
X11313967Y-12258579D01*
X11313967Y-12258579D02*
X11304444Y-12239531D01*
X11304444Y-12239531D02*
X11294920Y-12230008D01*
X11294920Y-12230008D02*
X11275872Y-12220484D01*
X11275872Y-12220484D02*
X11237777Y-12220484D01*
X11237777Y-12220484D02*
X11218729Y-12230008D01*
X11218729Y-12230008D02*
X11209206Y-12239531D01*
X11209206Y-12239531D02*
X11199682Y-12258579D01*
X11199682Y-12258579D02*
X11199682Y-12306198D01*
X11199682Y-12306198D02*
X11209206Y-12325246D01*
X11209206Y-12325246D02*
X11218729Y-12334769D01*
X11218729Y-12334769D02*
X11237777Y-12344293D01*
X11237777Y-12344293D02*
X11275872Y-12344293D01*
X11275872Y-12344293D02*
X11294920Y-12334769D01*
X11294920Y-12334769D02*
X11304444Y-12325246D01*
X11304444Y-12325246D02*
X11313967Y-12306198D01*
X11380634Y-12220484D02*
X11513967Y-12220484D01*
X11513967Y-12220484D02*
X11428253Y-12420484D01*
X11580634Y-12220484D02*
X11580634Y-12258579D01*
X11656825Y-12220484D02*
X11656825Y-12258579D01*
X11952063Y-12496674D02*
X11942539Y-12487150D01*
X11942539Y-12487150D02*
X11923491Y-12458579D01*
X11923491Y-12458579D02*
X11913968Y-12439531D01*
X11913968Y-12439531D02*
X11904444Y-12410960D01*
X11904444Y-12410960D02*
X11894920Y-12363341D01*
X11894920Y-12363341D02*
X11894920Y-12325246D01*
X11894920Y-12325246D02*
X11904444Y-12277627D01*
X11904444Y-12277627D02*
X11913968Y-12249055D01*
X11913968Y-12249055D02*
X11923491Y-12230008D01*
X11923491Y-12230008D02*
X11942539Y-12201436D01*
X11942539Y-12201436D02*
X11952063Y-12191912D01*
X12009206Y-12220484D02*
X12133015Y-12220484D01*
X12133015Y-12220484D02*
X12066348Y-12296674D01*
X12066348Y-12296674D02*
X12094920Y-12296674D01*
X12094920Y-12296674D02*
X12113968Y-12306198D01*
X12113968Y-12306198D02*
X12123491Y-12315722D01*
X12123491Y-12315722D02*
X12133015Y-12334769D01*
X12133015Y-12334769D02*
X12133015Y-12382388D01*
X12133015Y-12382388D02*
X12123491Y-12401436D01*
X12123491Y-12401436D02*
X12113968Y-12410960D01*
X12113968Y-12410960D02*
X12094920Y-12420484D01*
X12094920Y-12420484D02*
X12037777Y-12420484D01*
X12037777Y-12420484D02*
X12018729Y-12410960D01*
X12018729Y-12410960D02*
X12009206Y-12401436D01*
X12209206Y-12239531D02*
X12218729Y-12230008D01*
X12218729Y-12230008D02*
X12237777Y-12220484D01*
X12237777Y-12220484D02*
X12285396Y-12220484D01*
X12285396Y-12220484D02*
X12304444Y-12230008D01*
X12304444Y-12230008D02*
X12313968Y-12239531D01*
X12313968Y-12239531D02*
X12323491Y-12258579D01*
X12323491Y-12258579D02*
X12323491Y-12277627D01*
X12323491Y-12277627D02*
X12313968Y-12306198D01*
X12313968Y-12306198D02*
X12199682Y-12420484D01*
X12199682Y-12420484D02*
X12323491Y-12420484D01*
X12561587Y-12420484D02*
X12561587Y-12220484D01*
X12647301Y-12420484D02*
X12647301Y-12315722D01*
X12647301Y-12315722D02*
X12637777Y-12296674D01*
X12637777Y-12296674D02*
X12618730Y-12287150D01*
X12618730Y-12287150D02*
X12590158Y-12287150D01*
X12590158Y-12287150D02*
X12571110Y-12296674D01*
X12571110Y-12296674D02*
X12561587Y-12306198D01*
X12771110Y-12420484D02*
X12752063Y-12410960D01*
X12752063Y-12410960D02*
X12742539Y-12401436D01*
X12742539Y-12401436D02*
X12733015Y-12382388D01*
X12733015Y-12382388D02*
X12733015Y-12325246D01*
X12733015Y-12325246D02*
X12742539Y-12306198D01*
X12742539Y-12306198D02*
X12752063Y-12296674D01*
X12752063Y-12296674D02*
X12771110Y-12287150D01*
X12771110Y-12287150D02*
X12799682Y-12287150D01*
X12799682Y-12287150D02*
X12818730Y-12296674D01*
X12818730Y-12296674D02*
X12828253Y-12306198D01*
X12828253Y-12306198D02*
X12837777Y-12325246D01*
X12837777Y-12325246D02*
X12837777Y-12382388D01*
X12837777Y-12382388D02*
X12828253Y-12401436D01*
X12828253Y-12401436D02*
X12818730Y-12410960D01*
X12818730Y-12410960D02*
X12799682Y-12420484D01*
X12799682Y-12420484D02*
X12771110Y-12420484D01*
X12952063Y-12420484D02*
X12933015Y-12410960D01*
X12933015Y-12410960D02*
X12923491Y-12391912D01*
X12923491Y-12391912D02*
X12923491Y-12220484D01*
X13104444Y-12410960D02*
X13085396Y-12420484D01*
X13085396Y-12420484D02*
X13047301Y-12420484D01*
X13047301Y-12420484D02*
X13028253Y-12410960D01*
X13028253Y-12410960D02*
X13018730Y-12391912D01*
X13018730Y-12391912D02*
X13018730Y-12315722D01*
X13018730Y-12315722D02*
X13028253Y-12296674D01*
X13028253Y-12296674D02*
X13047301Y-12287150D01*
X13047301Y-12287150D02*
X13085396Y-12287150D01*
X13085396Y-12287150D02*
X13104444Y-12296674D01*
X13104444Y-12296674D02*
X13113968Y-12315722D01*
X13113968Y-12315722D02*
X13113968Y-12334769D01*
X13113968Y-12334769D02*
X13018730Y-12353817D01*
X13190158Y-12410960D02*
X13209206Y-12420484D01*
X13209206Y-12420484D02*
X13247301Y-12420484D01*
X13247301Y-12420484D02*
X13266349Y-12410960D01*
X13266349Y-12410960D02*
X13275872Y-12391912D01*
X13275872Y-12391912D02*
X13275872Y-12382388D01*
X13275872Y-12382388D02*
X13266349Y-12363341D01*
X13266349Y-12363341D02*
X13247301Y-12353817D01*
X13247301Y-12353817D02*
X13218730Y-12353817D01*
X13218730Y-12353817D02*
X13199682Y-12344293D01*
X13199682Y-12344293D02*
X13190158Y-12325246D01*
X13190158Y-12325246D02*
X13190158Y-12315722D01*
X13190158Y-12315722D02*
X13199682Y-12296674D01*
X13199682Y-12296674D02*
X13218730Y-12287150D01*
X13218730Y-12287150D02*
X13247301Y-12287150D01*
X13247301Y-12287150D02*
X13266349Y-12296674D01*
X13342539Y-12496674D02*
X13352063Y-12487150D01*
X13352063Y-12487150D02*
X13371111Y-12458579D01*
X13371111Y-12458579D02*
X13380634Y-12439531D01*
X13380634Y-12439531D02*
X13390158Y-12410960D01*
X13390158Y-12410960D02*
X13399682Y-12363341D01*
X13399682Y-12363341D02*
X13399682Y-12325246D01*
X13399682Y-12325246D02*
X13390158Y-12277627D01*
X13390158Y-12277627D02*
X13380634Y-12249055D01*
X13380634Y-12249055D02*
X13371111Y-12230008D01*
X13371111Y-12230008D02*
X13352063Y-12201436D01*
X13352063Y-12201436D02*
X13342539Y-12191912D01*
D10*
X8377000Y-12593000D02*
G75*
G03*
X8377000Y-12593000I-50000J0D01*
G01*
D11*
X8742539Y-12684484D02*
X8628253Y-12684484D01*
X8685396Y-12684484D02*
X8685396Y-12484484D01*
X8685396Y-12484484D02*
X8666348Y-12513055D01*
X8666348Y-12513055D02*
X8647301Y-12532103D01*
X8647301Y-12532103D02*
X8628253Y-12541627D01*
X8828253Y-12665436D02*
X8837777Y-12674960D01*
X8837777Y-12674960D02*
X8828253Y-12684484D01*
X8828253Y-12684484D02*
X8818729Y-12674960D01*
X8818729Y-12674960D02*
X8828253Y-12665436D01*
X8828253Y-12665436D02*
X8828253Y-12684484D01*
X8961586Y-12484484D02*
X8980634Y-12484484D01*
X8980634Y-12484484D02*
X8999682Y-12494008D01*
X8999682Y-12494008D02*
X9009205Y-12503531D01*
X9009205Y-12503531D02*
X9018729Y-12522579D01*
X9018729Y-12522579D02*
X9028253Y-12560674D01*
X9028253Y-12560674D02*
X9028253Y-12608293D01*
X9028253Y-12608293D02*
X9018729Y-12646388D01*
X9018729Y-12646388D02*
X9009205Y-12665436D01*
X9009205Y-12665436D02*
X8999682Y-12674960D01*
X8999682Y-12674960D02*
X8980634Y-12684484D01*
X8980634Y-12684484D02*
X8961586Y-12684484D01*
X8961586Y-12684484D02*
X8942539Y-12674960D01*
X8942539Y-12674960D02*
X8933015Y-12665436D01*
X8933015Y-12665436D02*
X8923491Y-12646388D01*
X8923491Y-12646388D02*
X8913967Y-12608293D01*
X8913967Y-12608293D02*
X8913967Y-12560674D01*
X8913967Y-12560674D02*
X8923491Y-12522579D01*
X8923491Y-12522579D02*
X8933015Y-12503531D01*
X8933015Y-12503531D02*
X8942539Y-12494008D01*
X8942539Y-12494008D02*
X8961586Y-12484484D01*
X9152063Y-12484484D02*
X9171110Y-12484484D01*
X9171110Y-12484484D02*
X9190158Y-12494008D01*
X9190158Y-12494008D02*
X9199682Y-12503531D01*
X9199682Y-12503531D02*
X9209205Y-12522579D01*
X9209205Y-12522579D02*
X9218729Y-12560674D01*
X9218729Y-12560674D02*
X9218729Y-12608293D01*
X9218729Y-12608293D02*
X9209205Y-12646388D01*
X9209205Y-12646388D02*
X9199682Y-12665436D01*
X9199682Y-12665436D02*
X9190158Y-12674960D01*
X9190158Y-12674960D02*
X9171110Y-12684484D01*
X9171110Y-12684484D02*
X9152063Y-12684484D01*
X9152063Y-12684484D02*
X9133015Y-12674960D01*
X9133015Y-12674960D02*
X9123491Y-12665436D01*
X9123491Y-12665436D02*
X9113967Y-12646388D01*
X9113967Y-12646388D02*
X9104444Y-12608293D01*
X9104444Y-12608293D02*
X9104444Y-12560674D01*
X9104444Y-12560674D02*
X9113967Y-12522579D01*
X9113967Y-12522579D02*
X9123491Y-12503531D01*
X9123491Y-12503531D02*
X9133015Y-12494008D01*
X9133015Y-12494008D02*
X9152063Y-12484484D01*
X9342539Y-12484484D02*
X9361586Y-12484484D01*
X9361586Y-12484484D02*
X9380634Y-12494008D01*
X9380634Y-12494008D02*
X9390158Y-12503531D01*
X9390158Y-12503531D02*
X9399682Y-12522579D01*
X9399682Y-12522579D02*
X9409205Y-12560674D01*
X9409205Y-12560674D02*
X9409205Y-12608293D01*
X9409205Y-12608293D02*
X9399682Y-12646388D01*
X9399682Y-12646388D02*
X9390158Y-12665436D01*
X9390158Y-12665436D02*
X9380634Y-12674960D01*
X9380634Y-12674960D02*
X9361586Y-12684484D01*
X9361586Y-12684484D02*
X9342539Y-12684484D01*
X9342539Y-12684484D02*
X9323491Y-12674960D01*
X9323491Y-12674960D02*
X9313967Y-12665436D01*
X9313967Y-12665436D02*
X9304444Y-12646388D01*
X9304444Y-12646388D02*
X9294920Y-12608293D01*
X9294920Y-12608293D02*
X9294920Y-12560674D01*
X9294920Y-12560674D02*
X9304444Y-12522579D01*
X9304444Y-12522579D02*
X9313967Y-12503531D01*
X9313967Y-12503531D02*
X9323491Y-12494008D01*
X9323491Y-12494008D02*
X9342539Y-12484484D01*
X9494920Y-12684484D02*
X9494920Y-12551150D01*
X9494920Y-12570198D02*
X9504444Y-12560674D01*
X9504444Y-12560674D02*
X9523491Y-12551150D01*
X9523491Y-12551150D02*
X9552063Y-12551150D01*
X9552063Y-12551150D02*
X9571110Y-12560674D01*
X9571110Y-12560674D02*
X9580634Y-12579722D01*
X9580634Y-12579722D02*
X9580634Y-12684484D01*
X9580634Y-12579722D02*
X9590158Y-12560674D01*
X9590158Y-12560674D02*
X9609205Y-12551150D01*
X9609205Y-12551150D02*
X9637777Y-12551150D01*
X9637777Y-12551150D02*
X9656825Y-12560674D01*
X9656825Y-12560674D02*
X9666348Y-12579722D01*
X9666348Y-12579722D02*
X9666348Y-12684484D01*
X9761586Y-12684484D02*
X9761586Y-12551150D01*
X9761586Y-12570198D02*
X9771110Y-12560674D01*
X9771110Y-12560674D02*
X9790158Y-12551150D01*
X9790158Y-12551150D02*
X9818729Y-12551150D01*
X9818729Y-12551150D02*
X9837777Y-12560674D01*
X9837777Y-12560674D02*
X9847301Y-12579722D01*
X9847301Y-12579722D02*
X9847301Y-12684484D01*
X9847301Y-12579722D02*
X9856825Y-12560674D01*
X9856825Y-12560674D02*
X9875872Y-12551150D01*
X9875872Y-12551150D02*
X9904444Y-12551150D01*
X9904444Y-12551150D02*
X9923491Y-12560674D01*
X9923491Y-12560674D02*
X9933015Y-12579722D01*
X9933015Y-12579722D02*
X9933015Y-12684484D01*
X10323491Y-12474960D02*
X10152063Y-12732103D01*
X10580634Y-12484484D02*
X10599682Y-12484484D01*
X10599682Y-12484484D02*
X10618729Y-12494008D01*
X10618729Y-12494008D02*
X10628253Y-12503531D01*
X10628253Y-12503531D02*
X10637777Y-12522579D01*
X10637777Y-12522579D02*
X10647301Y-12560674D01*
X10647301Y-12560674D02*
X10647301Y-12608293D01*
X10647301Y-12608293D02*
X10637777Y-12646388D01*
X10637777Y-12646388D02*
X10628253Y-12665436D01*
X10628253Y-12665436D02*
X10618729Y-12674960D01*
X10618729Y-12674960D02*
X10599682Y-12684484D01*
X10599682Y-12684484D02*
X10580634Y-12684484D01*
X10580634Y-12684484D02*
X10561587Y-12674960D01*
X10561587Y-12674960D02*
X10552063Y-12665436D01*
X10552063Y-12665436D02*
X10542539Y-12646388D01*
X10542539Y-12646388D02*
X10533015Y-12608293D01*
X10533015Y-12608293D02*
X10533015Y-12560674D01*
X10533015Y-12560674D02*
X10542539Y-12522579D01*
X10542539Y-12522579D02*
X10552063Y-12503531D01*
X10552063Y-12503531D02*
X10561587Y-12494008D01*
X10561587Y-12494008D02*
X10580634Y-12484484D01*
X10733015Y-12665436D02*
X10742539Y-12674960D01*
X10742539Y-12674960D02*
X10733015Y-12684484D01*
X10733015Y-12684484D02*
X10723491Y-12674960D01*
X10723491Y-12674960D02*
X10733015Y-12665436D01*
X10733015Y-12665436D02*
X10733015Y-12684484D01*
X10866348Y-12484484D02*
X10885396Y-12484484D01*
X10885396Y-12484484D02*
X10904444Y-12494008D01*
X10904444Y-12494008D02*
X10913968Y-12503531D01*
X10913968Y-12503531D02*
X10923491Y-12522579D01*
X10923491Y-12522579D02*
X10933015Y-12560674D01*
X10933015Y-12560674D02*
X10933015Y-12608293D01*
X10933015Y-12608293D02*
X10923491Y-12646388D01*
X10923491Y-12646388D02*
X10913968Y-12665436D01*
X10913968Y-12665436D02*
X10904444Y-12674960D01*
X10904444Y-12674960D02*
X10885396Y-12684484D01*
X10885396Y-12684484D02*
X10866348Y-12684484D01*
X10866348Y-12684484D02*
X10847301Y-12674960D01*
X10847301Y-12674960D02*
X10837777Y-12665436D01*
X10837777Y-12665436D02*
X10828253Y-12646388D01*
X10828253Y-12646388D02*
X10818729Y-12608293D01*
X10818729Y-12608293D02*
X10818729Y-12560674D01*
X10818729Y-12560674D02*
X10828253Y-12522579D01*
X10828253Y-12522579D02*
X10837777Y-12503531D01*
X10837777Y-12503531D02*
X10847301Y-12494008D01*
X10847301Y-12494008D02*
X10866348Y-12484484D01*
X10999682Y-12484484D02*
X11123491Y-12484484D01*
X11123491Y-12484484D02*
X11056825Y-12560674D01*
X11056825Y-12560674D02*
X11085396Y-12560674D01*
X11085396Y-12560674D02*
X11104444Y-12570198D01*
X11104444Y-12570198D02*
X11113968Y-12579722D01*
X11113968Y-12579722D02*
X11123491Y-12598769D01*
X11123491Y-12598769D02*
X11123491Y-12646388D01*
X11123491Y-12646388D02*
X11113968Y-12665436D01*
X11113968Y-12665436D02*
X11104444Y-12674960D01*
X11104444Y-12674960D02*
X11085396Y-12684484D01*
X11085396Y-12684484D02*
X11028253Y-12684484D01*
X11028253Y-12684484D02*
X11009206Y-12674960D01*
X11009206Y-12674960D02*
X10999682Y-12665436D01*
X11218729Y-12684484D02*
X11256825Y-12684484D01*
X11256825Y-12684484D02*
X11275872Y-12674960D01*
X11275872Y-12674960D02*
X11285396Y-12665436D01*
X11285396Y-12665436D02*
X11304444Y-12636865D01*
X11304444Y-12636865D02*
X11313967Y-12598769D01*
X11313967Y-12598769D02*
X11313967Y-12522579D01*
X11313967Y-12522579D02*
X11304444Y-12503531D01*
X11304444Y-12503531D02*
X11294920Y-12494008D01*
X11294920Y-12494008D02*
X11275872Y-12484484D01*
X11275872Y-12484484D02*
X11237777Y-12484484D01*
X11237777Y-12484484D02*
X11218729Y-12494008D01*
X11218729Y-12494008D02*
X11209206Y-12503531D01*
X11209206Y-12503531D02*
X11199682Y-12522579D01*
X11199682Y-12522579D02*
X11199682Y-12570198D01*
X11199682Y-12570198D02*
X11209206Y-12589246D01*
X11209206Y-12589246D02*
X11218729Y-12598769D01*
X11218729Y-12598769D02*
X11237777Y-12608293D01*
X11237777Y-12608293D02*
X11275872Y-12608293D01*
X11275872Y-12608293D02*
X11294920Y-12598769D01*
X11294920Y-12598769D02*
X11304444Y-12589246D01*
X11304444Y-12589246D02*
X11313967Y-12570198D01*
X11485396Y-12551150D02*
X11485396Y-12684484D01*
X11437777Y-12474960D02*
X11390158Y-12617817D01*
X11390158Y-12617817D02*
X11513967Y-12617817D01*
X11580634Y-12484484D02*
X11580634Y-12522579D01*
X11656825Y-12484484D02*
X11656825Y-12522579D01*
X11952063Y-12760674D02*
X11942539Y-12751150D01*
X11942539Y-12751150D02*
X11923491Y-12722579D01*
X11923491Y-12722579D02*
X11913968Y-12703531D01*
X11913968Y-12703531D02*
X11904444Y-12674960D01*
X11904444Y-12674960D02*
X11894920Y-12627341D01*
X11894920Y-12627341D02*
X11894920Y-12589246D01*
X11894920Y-12589246D02*
X11904444Y-12541627D01*
X11904444Y-12541627D02*
X11913968Y-12513055D01*
X11913968Y-12513055D02*
X11923491Y-12494008D01*
X11923491Y-12494008D02*
X11942539Y-12465436D01*
X11942539Y-12465436D02*
X11952063Y-12455912D01*
X12018729Y-12503531D02*
X12028253Y-12494008D01*
X12028253Y-12494008D02*
X12047301Y-12484484D01*
X12047301Y-12484484D02*
X12094920Y-12484484D01*
X12094920Y-12484484D02*
X12113968Y-12494008D01*
X12113968Y-12494008D02*
X12123491Y-12503531D01*
X12123491Y-12503531D02*
X12133015Y-12522579D01*
X12133015Y-12522579D02*
X12133015Y-12541627D01*
X12133015Y-12541627D02*
X12123491Y-12570198D01*
X12123491Y-12570198D02*
X12009206Y-12684484D01*
X12009206Y-12684484D02*
X12133015Y-12684484D01*
X12304444Y-12551150D02*
X12304444Y-12684484D01*
X12256825Y-12474960D02*
X12209206Y-12617817D01*
X12209206Y-12617817D02*
X12333015Y-12617817D01*
X12561587Y-12684484D02*
X12561587Y-12484484D01*
X12647301Y-12684484D02*
X12647301Y-12579722D01*
X12647301Y-12579722D02*
X12637777Y-12560674D01*
X12637777Y-12560674D02*
X12618730Y-12551150D01*
X12618730Y-12551150D02*
X12590158Y-12551150D01*
X12590158Y-12551150D02*
X12571110Y-12560674D01*
X12571110Y-12560674D02*
X12561587Y-12570198D01*
X12771110Y-12684484D02*
X12752063Y-12674960D01*
X12752063Y-12674960D02*
X12742539Y-12665436D01*
X12742539Y-12665436D02*
X12733015Y-12646388D01*
X12733015Y-12646388D02*
X12733015Y-12589246D01*
X12733015Y-12589246D02*
X12742539Y-12570198D01*
X12742539Y-12570198D02*
X12752063Y-12560674D01*
X12752063Y-12560674D02*
X12771110Y-12551150D01*
X12771110Y-12551150D02*
X12799682Y-12551150D01*
X12799682Y-12551150D02*
X12818730Y-12560674D01*
X12818730Y-12560674D02*
X12828253Y-12570198D01*
X12828253Y-12570198D02*
X12837777Y-12589246D01*
X12837777Y-12589246D02*
X12837777Y-12646388D01*
X12837777Y-12646388D02*
X12828253Y-12665436D01*
X12828253Y-12665436D02*
X12818730Y-12674960D01*
X12818730Y-12674960D02*
X12799682Y-12684484D01*
X12799682Y-12684484D02*
X12771110Y-12684484D01*
X12952063Y-12684484D02*
X12933015Y-12674960D01*
X12933015Y-12674960D02*
X12923491Y-12655912D01*
X12923491Y-12655912D02*
X12923491Y-12484484D01*
X13104444Y-12674960D02*
X13085396Y-12684484D01*
X13085396Y-12684484D02*
X13047301Y-12684484D01*
X13047301Y-12684484D02*
X13028253Y-12674960D01*
X13028253Y-12674960D02*
X13018730Y-12655912D01*
X13018730Y-12655912D02*
X13018730Y-12579722D01*
X13018730Y-12579722D02*
X13028253Y-12560674D01*
X13028253Y-12560674D02*
X13047301Y-12551150D01*
X13047301Y-12551150D02*
X13085396Y-12551150D01*
X13085396Y-12551150D02*
X13104444Y-12560674D01*
X13104444Y-12560674D02*
X13113968Y-12579722D01*
X13113968Y-12579722D02*
X13113968Y-12598769D01*
X13113968Y-12598769D02*
X13018730Y-12617817D01*
X13190158Y-12674960D02*
X13209206Y-12684484D01*
X13209206Y-12684484D02*
X13247301Y-12684484D01*
X13247301Y-12684484D02*
X13266349Y-12674960D01*
X13266349Y-12674960D02*
X13275872Y-12655912D01*
X13275872Y-12655912D02*
X13275872Y-12646388D01*
X13275872Y-12646388D02*
X13266349Y-12627341D01*
X13266349Y-12627341D02*
X13247301Y-12617817D01*
X13247301Y-12617817D02*
X13218730Y-12617817D01*
X13218730Y-12617817D02*
X13199682Y-12608293D01*
X13199682Y-12608293D02*
X13190158Y-12589246D01*
X13190158Y-12589246D02*
X13190158Y-12579722D01*
X13190158Y-12579722D02*
X13199682Y-12560674D01*
X13199682Y-12560674D02*
X13218730Y-12551150D01*
X13218730Y-12551150D02*
X13247301Y-12551150D01*
X13247301Y-12551150D02*
X13266349Y-12560674D01*
X13342539Y-12760674D02*
X13352063Y-12751150D01*
X13352063Y-12751150D02*
X13371111Y-12722579D01*
X13371111Y-12722579D02*
X13380634Y-12703531D01*
X13380634Y-12703531D02*
X13390158Y-12674960D01*
X13390158Y-12674960D02*
X13399682Y-12627341D01*
X13399682Y-12627341D02*
X13399682Y-12589246D01*
X13399682Y-12589246D02*
X13390158Y-12541627D01*
X13390158Y-12541627D02*
X13380634Y-12513055D01*
X13380634Y-12513055D02*
X13371111Y-12494008D01*
X13371111Y-12494008D02*
X13352063Y-12465436D01*
X13352063Y-12465436D02*
X13342539Y-12455912D01*
X8277000Y-12757000D02*
X8277000Y-12957000D01*
X8177000Y-12857000D02*
X8377000Y-12857000D01*
X8618729Y-12748484D02*
X8742539Y-12748484D01*
X8742539Y-12748484D02*
X8675872Y-12824674D01*
X8675872Y-12824674D02*
X8704444Y-12824674D01*
X8704444Y-12824674D02*
X8723491Y-12834198D01*
X8723491Y-12834198D02*
X8733015Y-12843722D01*
X8733015Y-12843722D02*
X8742539Y-12862769D01*
X8742539Y-12862769D02*
X8742539Y-12910388D01*
X8742539Y-12910388D02*
X8733015Y-12929436D01*
X8733015Y-12929436D02*
X8723491Y-12938960D01*
X8723491Y-12938960D02*
X8704444Y-12948484D01*
X8704444Y-12948484D02*
X8647301Y-12948484D01*
X8647301Y-12948484D02*
X8628253Y-12938960D01*
X8628253Y-12938960D02*
X8618729Y-12929436D01*
X8828253Y-12929436D02*
X8837777Y-12938960D01*
X8837777Y-12938960D02*
X8828253Y-12948484D01*
X8828253Y-12948484D02*
X8818729Y-12938960D01*
X8818729Y-12938960D02*
X8828253Y-12929436D01*
X8828253Y-12929436D02*
X8828253Y-12948484D01*
X8913967Y-12767531D02*
X8923491Y-12758008D01*
X8923491Y-12758008D02*
X8942539Y-12748484D01*
X8942539Y-12748484D02*
X8990158Y-12748484D01*
X8990158Y-12748484D02*
X9009205Y-12758008D01*
X9009205Y-12758008D02*
X9018729Y-12767531D01*
X9018729Y-12767531D02*
X9028253Y-12786579D01*
X9028253Y-12786579D02*
X9028253Y-12805627D01*
X9028253Y-12805627D02*
X9018729Y-12834198D01*
X9018729Y-12834198D02*
X8904444Y-12948484D01*
X8904444Y-12948484D02*
X9028253Y-12948484D01*
X9152063Y-12748484D02*
X9171110Y-12748484D01*
X9171110Y-12748484D02*
X9190158Y-12758008D01*
X9190158Y-12758008D02*
X9199682Y-12767531D01*
X9199682Y-12767531D02*
X9209205Y-12786579D01*
X9209205Y-12786579D02*
X9218729Y-12824674D01*
X9218729Y-12824674D02*
X9218729Y-12872293D01*
X9218729Y-12872293D02*
X9209205Y-12910388D01*
X9209205Y-12910388D02*
X9199682Y-12929436D01*
X9199682Y-12929436D02*
X9190158Y-12938960D01*
X9190158Y-12938960D02*
X9171110Y-12948484D01*
X9171110Y-12948484D02*
X9152063Y-12948484D01*
X9152063Y-12948484D02*
X9133015Y-12938960D01*
X9133015Y-12938960D02*
X9123491Y-12929436D01*
X9123491Y-12929436D02*
X9113967Y-12910388D01*
X9113967Y-12910388D02*
X9104444Y-12872293D01*
X9104444Y-12872293D02*
X9104444Y-12824674D01*
X9104444Y-12824674D02*
X9113967Y-12786579D01*
X9113967Y-12786579D02*
X9123491Y-12767531D01*
X9123491Y-12767531D02*
X9133015Y-12758008D01*
X9133015Y-12758008D02*
X9152063Y-12748484D01*
X9342539Y-12748484D02*
X9361586Y-12748484D01*
X9361586Y-12748484D02*
X9380634Y-12758008D01*
X9380634Y-12758008D02*
X9390158Y-12767531D01*
X9390158Y-12767531D02*
X9399682Y-12786579D01*
X9399682Y-12786579D02*
X9409205Y-12824674D01*
X9409205Y-12824674D02*
X9409205Y-12872293D01*
X9409205Y-12872293D02*
X9399682Y-12910388D01*
X9399682Y-12910388D02*
X9390158Y-12929436D01*
X9390158Y-12929436D02*
X9380634Y-12938960D01*
X9380634Y-12938960D02*
X9361586Y-12948484D01*
X9361586Y-12948484D02*
X9342539Y-12948484D01*
X9342539Y-12948484D02*
X9323491Y-12938960D01*
X9323491Y-12938960D02*
X9313967Y-12929436D01*
X9313967Y-12929436D02*
X9304444Y-12910388D01*
X9304444Y-12910388D02*
X9294920Y-12872293D01*
X9294920Y-12872293D02*
X9294920Y-12824674D01*
X9294920Y-12824674D02*
X9304444Y-12786579D01*
X9304444Y-12786579D02*
X9313967Y-12767531D01*
X9313967Y-12767531D02*
X9323491Y-12758008D01*
X9323491Y-12758008D02*
X9342539Y-12748484D01*
X9494920Y-12948484D02*
X9494920Y-12815150D01*
X9494920Y-12834198D02*
X9504444Y-12824674D01*
X9504444Y-12824674D02*
X9523491Y-12815150D01*
X9523491Y-12815150D02*
X9552063Y-12815150D01*
X9552063Y-12815150D02*
X9571110Y-12824674D01*
X9571110Y-12824674D02*
X9580634Y-12843722D01*
X9580634Y-12843722D02*
X9580634Y-12948484D01*
X9580634Y-12843722D02*
X9590158Y-12824674D01*
X9590158Y-12824674D02*
X9609205Y-12815150D01*
X9609205Y-12815150D02*
X9637777Y-12815150D01*
X9637777Y-12815150D02*
X9656825Y-12824674D01*
X9656825Y-12824674D02*
X9666348Y-12843722D01*
X9666348Y-12843722D02*
X9666348Y-12948484D01*
X9761586Y-12948484D02*
X9761586Y-12815150D01*
X9761586Y-12834198D02*
X9771110Y-12824674D01*
X9771110Y-12824674D02*
X9790158Y-12815150D01*
X9790158Y-12815150D02*
X9818729Y-12815150D01*
X9818729Y-12815150D02*
X9837777Y-12824674D01*
X9837777Y-12824674D02*
X9847301Y-12843722D01*
X9847301Y-12843722D02*
X9847301Y-12948484D01*
X9847301Y-12843722D02*
X9856825Y-12824674D01*
X9856825Y-12824674D02*
X9875872Y-12815150D01*
X9875872Y-12815150D02*
X9904444Y-12815150D01*
X9904444Y-12815150D02*
X9923491Y-12824674D01*
X9923491Y-12824674D02*
X9933015Y-12843722D01*
X9933015Y-12843722D02*
X9933015Y-12948484D01*
X10323491Y-12738960D02*
X10152063Y-12996103D01*
X10580634Y-12748484D02*
X10599682Y-12748484D01*
X10599682Y-12748484D02*
X10618729Y-12758008D01*
X10618729Y-12758008D02*
X10628253Y-12767531D01*
X10628253Y-12767531D02*
X10637777Y-12786579D01*
X10637777Y-12786579D02*
X10647301Y-12824674D01*
X10647301Y-12824674D02*
X10647301Y-12872293D01*
X10647301Y-12872293D02*
X10637777Y-12910388D01*
X10637777Y-12910388D02*
X10628253Y-12929436D01*
X10628253Y-12929436D02*
X10618729Y-12938960D01*
X10618729Y-12938960D02*
X10599682Y-12948484D01*
X10599682Y-12948484D02*
X10580634Y-12948484D01*
X10580634Y-12948484D02*
X10561587Y-12938960D01*
X10561587Y-12938960D02*
X10552063Y-12929436D01*
X10552063Y-12929436D02*
X10542539Y-12910388D01*
X10542539Y-12910388D02*
X10533015Y-12872293D01*
X10533015Y-12872293D02*
X10533015Y-12824674D01*
X10533015Y-12824674D02*
X10542539Y-12786579D01*
X10542539Y-12786579D02*
X10552063Y-12767531D01*
X10552063Y-12767531D02*
X10561587Y-12758008D01*
X10561587Y-12758008D02*
X10580634Y-12748484D01*
X10733015Y-12929436D02*
X10742539Y-12938960D01*
X10742539Y-12938960D02*
X10733015Y-12948484D01*
X10733015Y-12948484D02*
X10723491Y-12938960D01*
X10723491Y-12938960D02*
X10733015Y-12929436D01*
X10733015Y-12929436D02*
X10733015Y-12948484D01*
X10933015Y-12948484D02*
X10818729Y-12948484D01*
X10875872Y-12948484D02*
X10875872Y-12748484D01*
X10875872Y-12748484D02*
X10856825Y-12777055D01*
X10856825Y-12777055D02*
X10837777Y-12796103D01*
X10837777Y-12796103D02*
X10818729Y-12805627D01*
X11009206Y-12767531D02*
X11018729Y-12758008D01*
X11018729Y-12758008D02*
X11037777Y-12748484D01*
X11037777Y-12748484D02*
X11085396Y-12748484D01*
X11085396Y-12748484D02*
X11104444Y-12758008D01*
X11104444Y-12758008D02*
X11113968Y-12767531D01*
X11113968Y-12767531D02*
X11123491Y-12786579D01*
X11123491Y-12786579D02*
X11123491Y-12805627D01*
X11123491Y-12805627D02*
X11113968Y-12834198D01*
X11113968Y-12834198D02*
X10999682Y-12948484D01*
X10999682Y-12948484D02*
X11123491Y-12948484D01*
X11294920Y-12748484D02*
X11256825Y-12748484D01*
X11256825Y-12748484D02*
X11237777Y-12758008D01*
X11237777Y-12758008D02*
X11228253Y-12767531D01*
X11228253Y-12767531D02*
X11209206Y-12796103D01*
X11209206Y-12796103D02*
X11199682Y-12834198D01*
X11199682Y-12834198D02*
X11199682Y-12910388D01*
X11199682Y-12910388D02*
X11209206Y-12929436D01*
X11209206Y-12929436D02*
X11218729Y-12938960D01*
X11218729Y-12938960D02*
X11237777Y-12948484D01*
X11237777Y-12948484D02*
X11275872Y-12948484D01*
X11275872Y-12948484D02*
X11294920Y-12938960D01*
X11294920Y-12938960D02*
X11304444Y-12929436D01*
X11304444Y-12929436D02*
X11313967Y-12910388D01*
X11313967Y-12910388D02*
X11313967Y-12862769D01*
X11313967Y-12862769D02*
X11304444Y-12843722D01*
X11304444Y-12843722D02*
X11294920Y-12834198D01*
X11294920Y-12834198D02*
X11275872Y-12824674D01*
X11275872Y-12824674D02*
X11237777Y-12824674D01*
X11237777Y-12824674D02*
X11218729Y-12834198D01*
X11218729Y-12834198D02*
X11209206Y-12843722D01*
X11209206Y-12843722D02*
X11199682Y-12862769D01*
X11437777Y-12748484D02*
X11456825Y-12748484D01*
X11456825Y-12748484D02*
X11475872Y-12758008D01*
X11475872Y-12758008D02*
X11485396Y-12767531D01*
X11485396Y-12767531D02*
X11494920Y-12786579D01*
X11494920Y-12786579D02*
X11504444Y-12824674D01*
X11504444Y-12824674D02*
X11504444Y-12872293D01*
X11504444Y-12872293D02*
X11494920Y-12910388D01*
X11494920Y-12910388D02*
X11485396Y-12929436D01*
X11485396Y-12929436D02*
X11475872Y-12938960D01*
X11475872Y-12938960D02*
X11456825Y-12948484D01*
X11456825Y-12948484D02*
X11437777Y-12948484D01*
X11437777Y-12948484D02*
X11418729Y-12938960D01*
X11418729Y-12938960D02*
X11409206Y-12929436D01*
X11409206Y-12929436D02*
X11399682Y-12910388D01*
X11399682Y-12910388D02*
X11390158Y-12872293D01*
X11390158Y-12872293D02*
X11390158Y-12824674D01*
X11390158Y-12824674D02*
X11399682Y-12786579D01*
X11399682Y-12786579D02*
X11409206Y-12767531D01*
X11409206Y-12767531D02*
X11418729Y-12758008D01*
X11418729Y-12758008D02*
X11437777Y-12748484D01*
X11580634Y-12748484D02*
X11580634Y-12786579D01*
X11656825Y-12748484D02*
X11656825Y-12786579D01*
X11952063Y-13024674D02*
X11942539Y-13015150D01*
X11942539Y-13015150D02*
X11923491Y-12986579D01*
X11923491Y-12986579D02*
X11913968Y-12967531D01*
X11913968Y-12967531D02*
X11904444Y-12938960D01*
X11904444Y-12938960D02*
X11894920Y-12891341D01*
X11894920Y-12891341D02*
X11894920Y-12853246D01*
X11894920Y-12853246D02*
X11904444Y-12805627D01*
X11904444Y-12805627D02*
X11913968Y-12777055D01*
X11913968Y-12777055D02*
X11923491Y-12758008D01*
X11923491Y-12758008D02*
X11942539Y-12729436D01*
X11942539Y-12729436D02*
X11952063Y-12719912D01*
X12113968Y-12815150D02*
X12113968Y-12948484D01*
X12066348Y-12738960D02*
X12018729Y-12881817D01*
X12018729Y-12881817D02*
X12142539Y-12881817D01*
X12371110Y-12948484D02*
X12371110Y-12748484D01*
X12456825Y-12948484D02*
X12456825Y-12843722D01*
X12456825Y-12843722D02*
X12447301Y-12824674D01*
X12447301Y-12824674D02*
X12428253Y-12815150D01*
X12428253Y-12815150D02*
X12399682Y-12815150D01*
X12399682Y-12815150D02*
X12380634Y-12824674D01*
X12380634Y-12824674D02*
X12371110Y-12834198D01*
X12580634Y-12948484D02*
X12561587Y-12938960D01*
X12561587Y-12938960D02*
X12552063Y-12929436D01*
X12552063Y-12929436D02*
X12542539Y-12910388D01*
X12542539Y-12910388D02*
X12542539Y-12853246D01*
X12542539Y-12853246D02*
X12552063Y-12834198D01*
X12552063Y-12834198D02*
X12561587Y-12824674D01*
X12561587Y-12824674D02*
X12580634Y-12815150D01*
X12580634Y-12815150D02*
X12609206Y-12815150D01*
X12609206Y-12815150D02*
X12628253Y-12824674D01*
X12628253Y-12824674D02*
X12637777Y-12834198D01*
X12637777Y-12834198D02*
X12647301Y-12853246D01*
X12647301Y-12853246D02*
X12647301Y-12910388D01*
X12647301Y-12910388D02*
X12637777Y-12929436D01*
X12637777Y-12929436D02*
X12628253Y-12938960D01*
X12628253Y-12938960D02*
X12609206Y-12948484D01*
X12609206Y-12948484D02*
X12580634Y-12948484D01*
X12761587Y-12948484D02*
X12742539Y-12938960D01*
X12742539Y-12938960D02*
X12733015Y-12919912D01*
X12733015Y-12919912D02*
X12733015Y-12748484D01*
X12913968Y-12938960D02*
X12894920Y-12948484D01*
X12894920Y-12948484D02*
X12856825Y-12948484D01*
X12856825Y-12948484D02*
X12837777Y-12938960D01*
X12837777Y-12938960D02*
X12828253Y-12919912D01*
X12828253Y-12919912D02*
X12828253Y-12843722D01*
X12828253Y-12843722D02*
X12837777Y-12824674D01*
X12837777Y-12824674D02*
X12856825Y-12815150D01*
X12856825Y-12815150D02*
X12894920Y-12815150D01*
X12894920Y-12815150D02*
X12913968Y-12824674D01*
X12913968Y-12824674D02*
X12923491Y-12843722D01*
X12923491Y-12843722D02*
X12923491Y-12862769D01*
X12923491Y-12862769D02*
X12828253Y-12881817D01*
X12999682Y-12938960D02*
X13018730Y-12948484D01*
X13018730Y-12948484D02*
X13056825Y-12948484D01*
X13056825Y-12948484D02*
X13075872Y-12938960D01*
X13075872Y-12938960D02*
X13085396Y-12919912D01*
X13085396Y-12919912D02*
X13085396Y-12910388D01*
X13085396Y-12910388D02*
X13075872Y-12891341D01*
X13075872Y-12891341D02*
X13056825Y-12881817D01*
X13056825Y-12881817D02*
X13028253Y-12881817D01*
X13028253Y-12881817D02*
X13009206Y-12872293D01*
X13009206Y-12872293D02*
X12999682Y-12853246D01*
X12999682Y-12853246D02*
X12999682Y-12843722D01*
X12999682Y-12843722D02*
X13009206Y-12824674D01*
X13009206Y-12824674D02*
X13028253Y-12815150D01*
X13028253Y-12815150D02*
X13056825Y-12815150D01*
X13056825Y-12815150D02*
X13075872Y-12824674D01*
X13152063Y-13024674D02*
X13161587Y-13015150D01*
X13161587Y-13015150D02*
X13180634Y-12986579D01*
X13180634Y-12986579D02*
X13190158Y-12967531D01*
X13190158Y-12967531D02*
X13199682Y-12938960D01*
X13199682Y-12938960D02*
X13209206Y-12891341D01*
X13209206Y-12891341D02*
X13209206Y-12853246D01*
X13209206Y-12853246D02*
X13199682Y-12805627D01*
X13199682Y-12805627D02*
X13190158Y-12777055D01*
X13190158Y-12777055D02*
X13180634Y-12758008D01*
X13180634Y-12758008D02*
X13161587Y-12729436D01*
X13161587Y-12729436D02*
X13152063Y-12719912D01*
M02*
