G04 #@! TF.GenerationSoftware,KiCad,Pcbnew,(6.0.9)*
G04 #@! TF.CreationDate,2022-12-02T23:37:32+01:00*
G04 #@! TF.ProjectId,SPI2WS2812,53504932-5753-4323-9831-322e6b696361,rev?*
G04 #@! TF.SameCoordinates,Original*
G04 #@! TF.FileFunction,Soldermask,Top*
G04 #@! TF.FilePolarity,Negative*
%FSLAX46Y46*%
G04 Gerber Fmt 4.6, Leading zero omitted, Abs format (unit mm)*
G04 Created by KiCad (PCBNEW (6.0.9)) date 2022-12-02 23:37:32*
%MOMM*%
%LPD*%
G01*
G04 APERTURE LIST*
G04 Aperture macros list*
%AMRoundRect*
0 Rectangle with rounded corners*
0 $1 Rounding radius*
0 $2 $3 $4 $5 $6 $7 $8 $9 X,Y pos of 4 corners*
0 Add a 4 corners polygon primitive as box body*
4,1,4,$2,$3,$4,$5,$6,$7,$8,$9,$2,$3,0*
0 Add four circle primitives for the rounded corners*
1,1,$1+$1,$2,$3*
1,1,$1+$1,$4,$5*
1,1,$1+$1,$6,$7*
1,1,$1+$1,$8,$9*
0 Add four rect primitives between the rounded corners*
20,1,$1+$1,$2,$3,$4,$5,0*
20,1,$1+$1,$4,$5,$6,$7,0*
20,1,$1+$1,$6,$7,$8,$9,0*
20,1,$1+$1,$8,$9,$2,$3,0*%
G04 Aperture macros list end*
%ADD10RoundRect,0.100000X-0.950000X-0.400000X0.950000X-0.400000X0.950000X0.400000X-0.950000X0.400000X0*%
%ADD11RoundRect,0.350000X-1.075000X0.400000X-1.075000X-0.400000X1.075000X-0.400000X1.075000X0.400000X0*%
%ADD12RoundRect,0.100000X0.950000X0.400000X-0.950000X0.400000X-0.950000X-0.400000X0.950000X-0.400000X0*%
%ADD13RoundRect,0.100000X0.850000X0.850000X-0.850000X0.850000X-0.850000X-0.850000X0.850000X-0.850000X0*%
%ADD14O,1.900000X1.900000*%
%ADD15RoundRect,0.350000X0.412500X1.100000X-0.412500X1.100000X-0.412500X-1.100000X0.412500X-1.100000X0*%
%ADD16RoundRect,0.250000X0.587500X0.150000X-0.587500X0.150000X-0.587500X-0.150000X0.587500X-0.150000X0*%
%ADD17C,1.000000*%
%ADD18C,6.600000*%
%ADD19RoundRect,0.350000X1.075000X-0.400000X1.075000X0.400000X-1.075000X0.400000X-1.075000X-0.400000X0*%
%ADD20RoundRect,0.350000X-0.400000X-1.075000X0.400000X-1.075000X0.400000X1.075000X-0.400000X1.075000X0*%
%ADD21RoundRect,0.350000X-1.100000X0.412500X-1.100000X-0.412500X1.100000X-0.412500X1.100000X0.412500X0*%
%ADD22RoundRect,0.350000X0.400000X1.075000X-0.400000X1.075000X-0.400000X-1.075000X0.400000X-1.075000X0*%
%ADD23RoundRect,0.250000X-0.587500X-0.150000X0.587500X-0.150000X0.587500X0.150000X-0.587500X0.150000X0*%
%ADD24RoundRect,0.350000X1.100000X-0.412500X1.100000X0.412500X-1.100000X0.412500X-1.100000X-0.412500X0*%
%ADD25RoundRect,0.350000X-0.412500X-1.100000X0.412500X-1.100000X0.412500X1.100000X-0.412500X1.100000X0*%
%ADD26RoundRect,0.100000X-0.850000X-0.850000X0.850000X-0.850000X0.850000X0.850000X-0.850000X0.850000X0*%
G04 APERTURE END LIST*
D10*
X95020000Y-94300000D03*
X95020000Y-96200000D03*
X98020000Y-95250000D03*
D11*
X93980000Y-81000000D03*
X93980000Y-84100000D03*
D12*
X105005000Y-105725000D03*
X105005000Y-103825000D03*
X102005000Y-104775000D03*
D13*
X88900000Y-81280000D03*
D14*
X88900000Y-78740000D03*
X88900000Y-76200000D03*
X88900000Y-73660000D03*
X88900000Y-71120000D03*
X88900000Y-68580000D03*
D15*
X115227500Y-101600000D03*
X112102500Y-101600000D03*
D12*
X113260000Y-78420000D03*
X113260000Y-76520000D03*
X110260000Y-77470000D03*
D16*
X106982500Y-98740000D03*
X106982500Y-96840000D03*
X105107500Y-97790000D03*
D17*
X119380000Y-109360000D03*
X117682944Y-110062944D03*
X121077056Y-113457056D03*
X119380000Y-114160000D03*
X116980000Y-111760000D03*
X121077056Y-110062944D03*
X121780000Y-111760000D03*
X117682944Y-113457056D03*
D18*
X119380000Y-111760000D03*
D19*
X114300000Y-91720000D03*
X114300000Y-88620000D03*
D12*
X113260000Y-108265000D03*
X113260000Y-106365000D03*
X110260000Y-107315000D03*
D20*
X93065000Y-76200000D03*
X96165000Y-76200000D03*
D21*
X104140000Y-88607500D03*
X104140000Y-91732500D03*
D20*
X110210000Y-82550000D03*
X113310000Y-82550000D03*
D21*
X112395000Y-64477500D03*
X112395000Y-67602500D03*
D22*
X98070000Y-90170000D03*
X94970000Y-90170000D03*
D18*
X88900000Y-111760000D03*
D17*
X91300000Y-111760000D03*
X90597056Y-110062944D03*
X86500000Y-111760000D03*
X88900000Y-114160000D03*
X87202944Y-113457056D03*
X87202944Y-110062944D03*
X88900000Y-109360000D03*
X90597056Y-113457056D03*
D23*
X101297500Y-73980000D03*
X101297500Y-75880000D03*
X103172500Y-74930000D03*
D24*
X99060000Y-84112500D03*
X99060000Y-80987500D03*
D21*
X109220000Y-88607500D03*
X109220000Y-91732500D03*
D22*
X115215000Y-96520000D03*
X112115000Y-96520000D03*
D10*
X95020000Y-100015000D03*
X95020000Y-101915000D03*
X98020000Y-100965000D03*
X103275000Y-66995000D03*
X103275000Y-68895000D03*
X106275000Y-67945000D03*
D25*
X93052500Y-71120000D03*
X96177500Y-71120000D03*
D10*
X95020000Y-64455000D03*
X95020000Y-66355000D03*
X98020000Y-65405000D03*
D12*
X113260000Y-72705000D03*
X113260000Y-70805000D03*
X110260000Y-71755000D03*
D17*
X87202944Y-62657056D03*
X86500000Y-60960000D03*
X90597056Y-62657056D03*
X88900000Y-58560000D03*
X91300000Y-60960000D03*
X88900000Y-63360000D03*
D18*
X88900000Y-60960000D03*
D17*
X90597056Y-59262944D03*
X87202944Y-59262944D03*
D18*
X119380000Y-60960000D03*
D17*
X119380000Y-63360000D03*
X121780000Y-60960000D03*
X121077056Y-59262944D03*
X117682944Y-59262944D03*
X116980000Y-60960000D03*
X117682944Y-62657056D03*
X121077056Y-62657056D03*
X119380000Y-58560000D03*
D24*
X95885000Y-108242500D03*
X95885000Y-105117500D03*
D26*
X119380000Y-91440000D03*
D14*
X119380000Y-93980000D03*
X119380000Y-96520000D03*
X119380000Y-99060000D03*
X119380000Y-101600000D03*
X119380000Y-104140000D03*
D24*
X104140000Y-84112500D03*
X104140000Y-80987500D03*
D13*
X88900000Y-91440000D03*
D14*
X88900000Y-93980000D03*
X88900000Y-96520000D03*
X88900000Y-99060000D03*
X88900000Y-101600000D03*
X88900000Y-104140000D03*
D26*
X119380000Y-81280000D03*
D14*
X119380000Y-78740000D03*
X119380000Y-76200000D03*
X119380000Y-73660000D03*
X119380000Y-71120000D03*
X119380000Y-68580000D03*
M02*
