G04 #@! TF.GenerationSoftware,KiCad,Pcbnew,7.0.3-24-g09febce4ce*
G04 #@! TF.CreationDate,2023-05-23T12:19:00+02:00*
G04 #@! TF.ProjectId,SPI2WS2812,53504932-5753-4323-9831-322e6b696361,rev?*
G04 #@! TF.SameCoordinates,Original*
G04 #@! TF.FileFunction,Paste,Top*
G04 #@! TF.FilePolarity,Positive*
%FSLAX46Y46*%
G04 Gerber Fmt 4.6, Leading zero omitted, Abs format (unit mm)*
G04 Created by KiCad (PCBNEW 7.0.3-24-g09febce4ce) date 2023-05-23 12:19:00*
%MOMM*%
%LPD*%
G01*
G04 APERTURE LIST*
G04 Aperture macros list*
%AMRoundRect*
0 Rectangle with rounded corners*
0 $1 Rounding radius*
0 $2 $3 $4 $5 $6 $7 $8 $9 X,Y pos of 4 corners*
0 Add a 4 corners polygon primitive as box body*
4,1,4,$2,$3,$4,$5,$6,$7,$8,$9,$2,$3,0*
0 Add four circle primitives for the rounded corners*
1,1,$1+$1,$2,$3*
1,1,$1+$1,$4,$5*
1,1,$1+$1,$6,$7*
1,1,$1+$1,$8,$9*
0 Add four rect primitives between the rounded corners*
20,1,$1+$1,$2,$3,$4,$5,0*
20,1,$1+$1,$4,$5,$6,$7,0*
20,1,$1+$1,$6,$7,$8,$9,0*
20,1,$1+$1,$8,$9,$2,$3,0*%
G04 Aperture macros list end*
%ADD10R,1.520000X0.640000*%
%ADD11RoundRect,0.120000X-0.940000X0.400000X-0.940000X-0.400000X0.940000X-0.400000X0.940000X0.400000X0*%
%ADD12RoundRect,0.117500X0.412500X0.962500X-0.412500X0.962500X-0.412500X-0.962500X0.412500X-0.962500X0*%
%ADD13RoundRect,0.002500X0.587500X0.237500X-0.587500X0.237500X-0.587500X-0.237500X0.587500X-0.237500X0*%
%ADD14RoundRect,0.120000X0.940000X-0.400000X0.940000X0.400000X-0.940000X0.400000X-0.940000X-0.400000X0*%
%ADD15RoundRect,0.120000X-0.400000X-0.940000X0.400000X-0.940000X0.400000X0.940000X-0.400000X0.940000X0*%
%ADD16RoundRect,0.117500X-0.962500X0.412500X-0.962500X-0.412500X0.962500X-0.412500X0.962500X0.412500X0*%
%ADD17RoundRect,0.120000X0.400000X0.940000X-0.400000X0.940000X-0.400000X-0.940000X0.400000X-0.940000X0*%
%ADD18RoundRect,0.002500X-0.587500X-0.237500X0.587500X-0.237500X0.587500X0.237500X-0.587500X0.237500X0*%
%ADD19RoundRect,0.117500X0.962500X-0.412500X0.962500X0.412500X-0.962500X0.412500X-0.962500X-0.412500X0*%
%ADD20RoundRect,0.117500X-0.412500X-0.962500X0.412500X-0.962500X0.412500X0.962500X-0.412500X0.962500X0*%
G04 APERTURE END LIST*
D10*
X95020000Y-94300000D03*
X95020000Y-96200000D03*
X98020000Y-95250000D03*
D11*
X93980000Y-81000000D03*
X93980000Y-84100000D03*
D10*
X105005000Y-105725000D03*
X105005000Y-103825000D03*
X102005000Y-104775000D03*
D12*
X115227500Y-101600000D03*
X112102500Y-101600000D03*
D10*
X113260000Y-78420000D03*
X113260000Y-76520000D03*
X110260000Y-77470000D03*
D13*
X106982500Y-98740000D03*
X106982500Y-96840000D03*
X105107500Y-97790000D03*
D14*
X114300000Y-91720000D03*
X114300000Y-88620000D03*
D10*
X113260000Y-108265000D03*
X113260000Y-106365000D03*
X110260000Y-107315000D03*
D15*
X93065000Y-76200000D03*
X96165000Y-76200000D03*
D16*
X104140000Y-88607500D03*
X104140000Y-91732500D03*
D15*
X110210000Y-82550000D03*
X113310000Y-82550000D03*
D16*
X112395000Y-64477500D03*
X112395000Y-67602500D03*
D17*
X98070000Y-90170000D03*
X94970000Y-90170000D03*
D18*
X101297500Y-73980000D03*
X101297500Y-75880000D03*
X103172500Y-74930000D03*
D19*
X99060000Y-84112500D03*
X99060000Y-80987500D03*
D16*
X109220000Y-88607500D03*
X109220000Y-91732500D03*
D17*
X115215000Y-96520000D03*
X112115000Y-96520000D03*
D10*
X95020000Y-100015000D03*
X95020000Y-101915000D03*
X98020000Y-100965000D03*
X103275000Y-66995000D03*
X103275000Y-68895000D03*
X106275000Y-67945000D03*
D20*
X93052500Y-71120000D03*
X96177500Y-71120000D03*
D10*
X95020000Y-64455000D03*
X95020000Y-66355000D03*
X98020000Y-65405000D03*
X113260000Y-72705000D03*
X113260000Y-70805000D03*
X110260000Y-71755000D03*
D19*
X95885000Y-108242500D03*
X95885000Y-105117500D03*
X104140000Y-84112500D03*
X104140000Y-80987500D03*
M02*
