G04 #@! TF.GenerationSoftware,KiCad,Pcbnew,(7.0.0-55-gb63d0a3138)*
G04 #@! TF.CreationDate,2023-04-02T22:04:30+02:00*
G04 #@! TF.ProjectId,SPI2WS2812,53504932-5753-4323-9831-322e6b696361,rev?*
G04 #@! TF.SameCoordinates,Original*
G04 #@! TF.FileFunction,Legend,Bot*
G04 #@! TF.FilePolarity,Positive*
%FSLAX46Y46*%
G04 Gerber Fmt 4.6, Leading zero omitted, Abs format (unit mm)*
G04 Created by KiCad (PCBNEW (7.0.0-55-gb63d0a3138)) date 2023-04-02 22:04:30*
%MOMM*%
%LPD*%
G01*
G04 APERTURE LIST*
G04 Aperture macros list*
%AMRoundRect*
0 Rectangle with rounded corners*
0 $1 Rounding radius*
0 $2 $3 $4 $5 $6 $7 $8 $9 X,Y pos of 4 corners*
0 Add a 4 corners polygon primitive as box body*
4,1,4,$2,$3,$4,$5,$6,$7,$8,$9,$2,$3,0*
0 Add four circle primitives for the rounded corners*
1,1,$1+$1,$2,$3*
1,1,$1+$1,$4,$5*
1,1,$1+$1,$6,$7*
1,1,$1+$1,$8,$9*
0 Add four rect primitives between the rounded corners*
20,1,$1+$1,$2,$3,$4,$5,0*
20,1,$1+$1,$4,$5,$6,$7,0*
20,1,$1+$1,$6,$7,$8,$9,0*
20,1,$1+$1,$8,$9,$2,$3,0*%
G04 Aperture macros list end*
%ADD10C,0.300000*%
%ADD11C,0.150000*%
%ADD12C,0.750000*%
%ADD13C,0.120000*%
%ADD14RoundRect,0.100000X0.850000X0.850000X-0.850000X0.850000X-0.850000X-0.850000X0.850000X-0.850000X0*%
%ADD15O,1.900000X1.900000*%
%ADD16C,1.000000*%
%ADD17C,6.600000*%
%ADD18RoundRect,0.100000X-0.850000X-0.850000X0.850000X-0.850000X0.850000X0.850000X-0.850000X0.850000X0*%
%ADD19RoundRect,0.100000X-0.950000X-0.400000X0.950000X-0.400000X0.950000X0.400000X-0.950000X0.400000X0*%
%ADD20RoundRect,0.350000X-1.100000X0.412500X-1.100000X-0.412500X1.100000X-0.412500X1.100000X0.412500X0*%
%ADD21RoundRect,0.350000X-0.412500X-1.100000X0.412500X-1.100000X0.412500X1.100000X-0.412500X1.100000X0*%
%ADD22RoundRect,0.100000X0.950000X0.400000X-0.950000X0.400000X-0.950000X-0.400000X0.950000X-0.400000X0*%
%ADD23RoundRect,0.350000X1.100000X-0.412500X1.100000X0.412500X-1.100000X0.412500X-1.100000X-0.412500X0*%
%ADD24RoundRect,0.250000X-0.587500X-0.150000X0.587500X-0.150000X0.587500X0.150000X-0.587500X0.150000X0*%
%ADD25RoundRect,0.350000X-0.400000X-1.075000X0.400000X-1.075000X0.400000X1.075000X-0.400000X1.075000X0*%
%ADD26RoundRect,0.350000X0.412500X1.100000X-0.412500X1.100000X-0.412500X-1.100000X0.412500X-1.100000X0*%
%ADD27RoundRect,0.350000X-1.075000X0.400000X-1.075000X-0.400000X1.075000X-0.400000X1.075000X0.400000X0*%
%ADD28RoundRect,0.350000X1.075000X-0.400000X1.075000X0.400000X-1.075000X0.400000X-1.075000X-0.400000X0*%
%ADD29RoundRect,0.250000X0.587500X0.150000X-0.587500X0.150000X-0.587500X-0.150000X0.587500X-0.150000X0*%
%ADD30RoundRect,0.350000X0.400000X1.075000X-0.400000X1.075000X-0.400000X-1.075000X0.400000X-1.075000X0*%
G04 APERTURE END LIST*
D10*
X116840000Y-86360000D02*
X116840000Y-107950000D01*
X91440000Y-86360000D02*
X91440000Y-64770000D01*
X93980000Y-56515000D02*
X93980000Y-61595000D01*
X116840000Y-107950000D02*
X114300000Y-111125000D01*
X93980000Y-61595000D02*
X91440000Y-64770000D01*
D11*
X119380000Y-66675000D02*
X119380000Y-64770000D01*
X88900000Y-106045000D02*
X88900000Y-107950000D01*
D10*
X114300000Y-111125000D02*
X114300000Y-116205000D01*
X84455000Y-86360000D02*
X123825000Y-86360000D01*
D11*
X84439286Y-98740238D02*
X84582143Y-98692619D01*
X84582143Y-98692619D02*
X84820238Y-98692619D01*
X84820238Y-98692619D02*
X84915476Y-98740238D01*
X84915476Y-98740238D02*
X84963095Y-98787857D01*
X84963095Y-98787857D02*
X85010714Y-98883095D01*
X85010714Y-98883095D02*
X85010714Y-98978333D01*
X85010714Y-98978333D02*
X84963095Y-99073571D01*
X84963095Y-99073571D02*
X84915476Y-99121190D01*
X84915476Y-99121190D02*
X84820238Y-99168809D01*
X84820238Y-99168809D02*
X84629762Y-99216428D01*
X84629762Y-99216428D02*
X84534524Y-99264047D01*
X84534524Y-99264047D02*
X84486905Y-99311666D01*
X84486905Y-99311666D02*
X84439286Y-99406904D01*
X84439286Y-99406904D02*
X84439286Y-99502142D01*
X84439286Y-99502142D02*
X84486905Y-99597380D01*
X84486905Y-99597380D02*
X84534524Y-99645000D01*
X84534524Y-99645000D02*
X84629762Y-99692619D01*
X84629762Y-99692619D02*
X84867857Y-99692619D01*
X84867857Y-99692619D02*
X85010714Y-99645000D01*
X86010714Y-98787857D02*
X85963095Y-98740238D01*
X85963095Y-98740238D02*
X85820238Y-98692619D01*
X85820238Y-98692619D02*
X85725000Y-98692619D01*
X85725000Y-98692619D02*
X85582143Y-98740238D01*
X85582143Y-98740238D02*
X85486905Y-98835476D01*
X85486905Y-98835476D02*
X85439286Y-98930714D01*
X85439286Y-98930714D02*
X85391667Y-99121190D01*
X85391667Y-99121190D02*
X85391667Y-99264047D01*
X85391667Y-99264047D02*
X85439286Y-99454523D01*
X85439286Y-99454523D02*
X85486905Y-99549761D01*
X85486905Y-99549761D02*
X85582143Y-99645000D01*
X85582143Y-99645000D02*
X85725000Y-99692619D01*
X85725000Y-99692619D02*
X85820238Y-99692619D01*
X85820238Y-99692619D02*
X85963095Y-99645000D01*
X85963095Y-99645000D02*
X86010714Y-99597380D01*
X86439286Y-98692619D02*
X86439286Y-99692619D01*
X87010714Y-98692619D02*
X86582143Y-99264047D01*
X87010714Y-99692619D02*
X86439286Y-99121190D01*
X86510713Y-79107380D02*
X86510713Y-78107380D01*
X86510713Y-78107380D02*
X86272618Y-78107380D01*
X86272618Y-78107380D02*
X86129761Y-78155000D01*
X86129761Y-78155000D02*
X86034523Y-78250238D01*
X86034523Y-78250238D02*
X85986904Y-78345476D01*
X85986904Y-78345476D02*
X85939285Y-78535952D01*
X85939285Y-78535952D02*
X85939285Y-78678809D01*
X85939285Y-78678809D02*
X85986904Y-78869285D01*
X85986904Y-78869285D02*
X86034523Y-78964523D01*
X86034523Y-78964523D02*
X86129761Y-79059761D01*
X86129761Y-79059761D02*
X86272618Y-79107380D01*
X86272618Y-79107380D02*
X86510713Y-79107380D01*
X85320237Y-78107380D02*
X85129761Y-78107380D01*
X85129761Y-78107380D02*
X85034523Y-78155000D01*
X85034523Y-78155000D02*
X84939285Y-78250238D01*
X84939285Y-78250238D02*
X84891666Y-78440714D01*
X84891666Y-78440714D02*
X84891666Y-78774047D01*
X84891666Y-78774047D02*
X84939285Y-78964523D01*
X84939285Y-78964523D02*
X85034523Y-79059761D01*
X85034523Y-79059761D02*
X85129761Y-79107380D01*
X85129761Y-79107380D02*
X85320237Y-79107380D01*
X85320237Y-79107380D02*
X85415475Y-79059761D01*
X85415475Y-79059761D02*
X85510713Y-78964523D01*
X85510713Y-78964523D02*
X85558332Y-78774047D01*
X85558332Y-78774047D02*
X85558332Y-78440714D01*
X85558332Y-78440714D02*
X85510713Y-78250238D01*
X85510713Y-78250238D02*
X85415475Y-78155000D01*
X85415475Y-78155000D02*
X85320237Y-78107380D01*
X86463094Y-70963571D02*
X86129761Y-70963571D01*
X85986904Y-71487380D02*
X86463094Y-71487380D01*
X86463094Y-71487380D02*
X86463094Y-70487380D01*
X86463094Y-70487380D02*
X85986904Y-70487380D01*
X85558332Y-71487380D02*
X85558332Y-70487380D01*
X85558332Y-70487380D02*
X84986904Y-71487380D01*
X84986904Y-71487380D02*
X84986904Y-70487380D01*
X86601190Y-70135000D02*
X84848809Y-70135000D01*
X121269286Y-98740238D02*
X121412143Y-98692619D01*
X121412143Y-98692619D02*
X121650238Y-98692619D01*
X121650238Y-98692619D02*
X121745476Y-98740238D01*
X121745476Y-98740238D02*
X121793095Y-98787857D01*
X121793095Y-98787857D02*
X121840714Y-98883095D01*
X121840714Y-98883095D02*
X121840714Y-98978333D01*
X121840714Y-98978333D02*
X121793095Y-99073571D01*
X121793095Y-99073571D02*
X121745476Y-99121190D01*
X121745476Y-99121190D02*
X121650238Y-99168809D01*
X121650238Y-99168809D02*
X121459762Y-99216428D01*
X121459762Y-99216428D02*
X121364524Y-99264047D01*
X121364524Y-99264047D02*
X121316905Y-99311666D01*
X121316905Y-99311666D02*
X121269286Y-99406904D01*
X121269286Y-99406904D02*
X121269286Y-99502142D01*
X121269286Y-99502142D02*
X121316905Y-99597380D01*
X121316905Y-99597380D02*
X121364524Y-99645000D01*
X121364524Y-99645000D02*
X121459762Y-99692619D01*
X121459762Y-99692619D02*
X121697857Y-99692619D01*
X121697857Y-99692619D02*
X121840714Y-99645000D01*
X122840714Y-98787857D02*
X122793095Y-98740238D01*
X122793095Y-98740238D02*
X122650238Y-98692619D01*
X122650238Y-98692619D02*
X122555000Y-98692619D01*
X122555000Y-98692619D02*
X122412143Y-98740238D01*
X122412143Y-98740238D02*
X122316905Y-98835476D01*
X122316905Y-98835476D02*
X122269286Y-98930714D01*
X122269286Y-98930714D02*
X122221667Y-99121190D01*
X122221667Y-99121190D02*
X122221667Y-99264047D01*
X122221667Y-99264047D02*
X122269286Y-99454523D01*
X122269286Y-99454523D02*
X122316905Y-99549761D01*
X122316905Y-99549761D02*
X122412143Y-99645000D01*
X122412143Y-99645000D02*
X122555000Y-99692619D01*
X122555000Y-99692619D02*
X122650238Y-99692619D01*
X122650238Y-99692619D02*
X122793095Y-99645000D01*
X122793095Y-99645000D02*
X122840714Y-99597380D01*
X123269286Y-98692619D02*
X123269286Y-99692619D01*
X123840714Y-98692619D02*
X123412143Y-99264047D01*
X123840714Y-99692619D02*
X123269286Y-99121190D01*
X121816905Y-101756428D02*
X122150238Y-101756428D01*
X122293095Y-101232619D02*
X121816905Y-101232619D01*
X121816905Y-101232619D02*
X121816905Y-102232619D01*
X121816905Y-102232619D02*
X122293095Y-102232619D01*
X122721667Y-101232619D02*
X122721667Y-102232619D01*
X122721667Y-102232619D02*
X123293095Y-101232619D01*
X123293095Y-101232619D02*
X123293095Y-102232619D01*
X121678810Y-102585000D02*
X123431191Y-102585000D01*
D12*
X97091429Y-113927857D02*
X97091429Y-111927857D01*
X96377143Y-115070714D02*
X95662857Y-112927857D01*
X95662857Y-112927857D02*
X97520000Y-112927857D01*
D11*
X86105951Y-81266428D02*
X85344047Y-81266428D01*
X85724999Y-81647380D02*
X85724999Y-80885476D01*
D12*
X112759999Y-57792142D02*
X110902856Y-57792142D01*
X110902856Y-57792142D02*
X111902856Y-58935000D01*
X111902856Y-58935000D02*
X111474285Y-58935000D01*
X111474285Y-58935000D02*
X111188571Y-59077857D01*
X111188571Y-59077857D02*
X111045713Y-59220714D01*
X111045713Y-59220714D02*
X110902856Y-59506428D01*
X110902856Y-59506428D02*
X110902856Y-60220714D01*
X110902856Y-60220714D02*
X111045713Y-60506428D01*
X111045713Y-60506428D02*
X111188571Y-60649285D01*
X111188571Y-60649285D02*
X111474285Y-60792142D01*
X111474285Y-60792142D02*
X112331428Y-60792142D01*
X112331428Y-60792142D02*
X112617142Y-60649285D01*
X112617142Y-60649285D02*
X112759999Y-60506428D01*
D11*
X123840713Y-73979761D02*
X123697856Y-74027380D01*
X123697856Y-74027380D02*
X123459761Y-74027380D01*
X123459761Y-74027380D02*
X123364523Y-73979761D01*
X123364523Y-73979761D02*
X123316904Y-73932142D01*
X123316904Y-73932142D02*
X123269285Y-73836904D01*
X123269285Y-73836904D02*
X123269285Y-73741666D01*
X123269285Y-73741666D02*
X123316904Y-73646428D01*
X123316904Y-73646428D02*
X123364523Y-73598809D01*
X123364523Y-73598809D02*
X123459761Y-73551190D01*
X123459761Y-73551190D02*
X123650237Y-73503571D01*
X123650237Y-73503571D02*
X123745475Y-73455952D01*
X123745475Y-73455952D02*
X123793094Y-73408333D01*
X123793094Y-73408333D02*
X123840713Y-73313095D01*
X123840713Y-73313095D02*
X123840713Y-73217857D01*
X123840713Y-73217857D02*
X123793094Y-73122619D01*
X123793094Y-73122619D02*
X123745475Y-73075000D01*
X123745475Y-73075000D02*
X123650237Y-73027380D01*
X123650237Y-73027380D02*
X123412142Y-73027380D01*
X123412142Y-73027380D02*
X123269285Y-73075000D01*
X122269285Y-73932142D02*
X122316904Y-73979761D01*
X122316904Y-73979761D02*
X122459761Y-74027380D01*
X122459761Y-74027380D02*
X122554999Y-74027380D01*
X122554999Y-74027380D02*
X122697856Y-73979761D01*
X122697856Y-73979761D02*
X122793094Y-73884523D01*
X122793094Y-73884523D02*
X122840713Y-73789285D01*
X122840713Y-73789285D02*
X122888332Y-73598809D01*
X122888332Y-73598809D02*
X122888332Y-73455952D01*
X122888332Y-73455952D02*
X122840713Y-73265476D01*
X122840713Y-73265476D02*
X122793094Y-73170238D01*
X122793094Y-73170238D02*
X122697856Y-73075000D01*
X122697856Y-73075000D02*
X122554999Y-73027380D01*
X122554999Y-73027380D02*
X122459761Y-73027380D01*
X122459761Y-73027380D02*
X122316904Y-73075000D01*
X122316904Y-73075000D02*
X122269285Y-73122619D01*
X121840713Y-74027380D02*
X121840713Y-73027380D01*
X121269285Y-74027380D02*
X121697856Y-73455952D01*
X121269285Y-73027380D02*
X121840713Y-73598809D01*
X122935951Y-81266428D02*
X122174047Y-81266428D01*
X122554999Y-81647380D02*
X122554999Y-80885476D01*
X121769286Y-93612619D02*
X121769286Y-94612619D01*
X121769286Y-94612619D02*
X122007381Y-94612619D01*
X122007381Y-94612619D02*
X122150238Y-94565000D01*
X122150238Y-94565000D02*
X122245476Y-94469761D01*
X122245476Y-94469761D02*
X122293095Y-94374523D01*
X122293095Y-94374523D02*
X122340714Y-94184047D01*
X122340714Y-94184047D02*
X122340714Y-94041190D01*
X122340714Y-94041190D02*
X122293095Y-93850714D01*
X122293095Y-93850714D02*
X122245476Y-93755476D01*
X122245476Y-93755476D02*
X122150238Y-93660238D01*
X122150238Y-93660238D02*
X122007381Y-93612619D01*
X122007381Y-93612619D02*
X121769286Y-93612619D01*
X122959762Y-94612619D02*
X123150238Y-94612619D01*
X123150238Y-94612619D02*
X123245476Y-94565000D01*
X123245476Y-94565000D02*
X123340714Y-94469761D01*
X123340714Y-94469761D02*
X123388333Y-94279285D01*
X123388333Y-94279285D02*
X123388333Y-93945952D01*
X123388333Y-93945952D02*
X123340714Y-93755476D01*
X123340714Y-93755476D02*
X123245476Y-93660238D01*
X123245476Y-93660238D02*
X123150238Y-93612619D01*
X123150238Y-93612619D02*
X122959762Y-93612619D01*
X122959762Y-93612619D02*
X122864524Y-93660238D01*
X122864524Y-93660238D02*
X122769286Y-93755476D01*
X122769286Y-93755476D02*
X122721667Y-93945952D01*
X122721667Y-93945952D02*
X122721667Y-94279285D01*
X122721667Y-94279285D02*
X122769286Y-94469761D01*
X122769286Y-94469761D02*
X122864524Y-94565000D01*
X122864524Y-94565000D02*
X122959762Y-94612619D01*
X122935951Y-91426428D02*
X122174047Y-91426428D01*
X122554999Y-91807380D02*
X122554999Y-91045476D01*
X86105951Y-91426428D02*
X85344047Y-91426428D01*
X85724999Y-91807380D02*
X85724999Y-91045476D01*
X87010713Y-73979761D02*
X86867856Y-74027380D01*
X86867856Y-74027380D02*
X86629761Y-74027380D01*
X86629761Y-74027380D02*
X86534523Y-73979761D01*
X86534523Y-73979761D02*
X86486904Y-73932142D01*
X86486904Y-73932142D02*
X86439285Y-73836904D01*
X86439285Y-73836904D02*
X86439285Y-73741666D01*
X86439285Y-73741666D02*
X86486904Y-73646428D01*
X86486904Y-73646428D02*
X86534523Y-73598809D01*
X86534523Y-73598809D02*
X86629761Y-73551190D01*
X86629761Y-73551190D02*
X86820237Y-73503571D01*
X86820237Y-73503571D02*
X86915475Y-73455952D01*
X86915475Y-73455952D02*
X86963094Y-73408333D01*
X86963094Y-73408333D02*
X87010713Y-73313095D01*
X87010713Y-73313095D02*
X87010713Y-73217857D01*
X87010713Y-73217857D02*
X86963094Y-73122619D01*
X86963094Y-73122619D02*
X86915475Y-73075000D01*
X86915475Y-73075000D02*
X86820237Y-73027380D01*
X86820237Y-73027380D02*
X86582142Y-73027380D01*
X86582142Y-73027380D02*
X86439285Y-73075000D01*
X85439285Y-73932142D02*
X85486904Y-73979761D01*
X85486904Y-73979761D02*
X85629761Y-74027380D01*
X85629761Y-74027380D02*
X85724999Y-74027380D01*
X85724999Y-74027380D02*
X85867856Y-73979761D01*
X85867856Y-73979761D02*
X85963094Y-73884523D01*
X85963094Y-73884523D02*
X86010713Y-73789285D01*
X86010713Y-73789285D02*
X86058332Y-73598809D01*
X86058332Y-73598809D02*
X86058332Y-73455952D01*
X86058332Y-73455952D02*
X86010713Y-73265476D01*
X86010713Y-73265476D02*
X85963094Y-73170238D01*
X85963094Y-73170238D02*
X85867856Y-73075000D01*
X85867856Y-73075000D02*
X85724999Y-73027380D01*
X85724999Y-73027380D02*
X85629761Y-73027380D01*
X85629761Y-73027380D02*
X85486904Y-73075000D01*
X85486904Y-73075000D02*
X85439285Y-73122619D01*
X85010713Y-74027380D02*
X85010713Y-73027380D01*
X84439285Y-74027380D02*
X84867856Y-73455952D01*
X84439285Y-73027380D02*
X85010713Y-73598809D01*
X85201191Y-96200238D02*
X85344048Y-96152619D01*
X85344048Y-96152619D02*
X85582143Y-96152619D01*
X85582143Y-96152619D02*
X85677381Y-96200238D01*
X85677381Y-96200238D02*
X85725000Y-96247857D01*
X85725000Y-96247857D02*
X85772619Y-96343095D01*
X85772619Y-96343095D02*
X85772619Y-96438333D01*
X85772619Y-96438333D02*
X85725000Y-96533571D01*
X85725000Y-96533571D02*
X85677381Y-96581190D01*
X85677381Y-96581190D02*
X85582143Y-96628809D01*
X85582143Y-96628809D02*
X85391667Y-96676428D01*
X85391667Y-96676428D02*
X85296429Y-96724047D01*
X85296429Y-96724047D02*
X85248810Y-96771666D01*
X85248810Y-96771666D02*
X85201191Y-96866904D01*
X85201191Y-96866904D02*
X85201191Y-96962142D01*
X85201191Y-96962142D02*
X85248810Y-97057380D01*
X85248810Y-97057380D02*
X85296429Y-97105000D01*
X85296429Y-97105000D02*
X85391667Y-97152619D01*
X85391667Y-97152619D02*
X85629762Y-97152619D01*
X85629762Y-97152619D02*
X85772619Y-97105000D01*
X86201191Y-96152619D02*
X86201191Y-97152619D01*
X84986905Y-101756428D02*
X85320238Y-101756428D01*
X85463095Y-101232619D02*
X84986905Y-101232619D01*
X84986905Y-101232619D02*
X84986905Y-102232619D01*
X84986905Y-102232619D02*
X85463095Y-102232619D01*
X85891667Y-101232619D02*
X85891667Y-102232619D01*
X85891667Y-102232619D02*
X86463095Y-101232619D01*
X86463095Y-101232619D02*
X86463095Y-102232619D01*
X84848810Y-102585000D02*
X86601191Y-102585000D01*
X123293094Y-70963571D02*
X122959761Y-70963571D01*
X122816904Y-71487380D02*
X123293094Y-71487380D01*
X123293094Y-71487380D02*
X123293094Y-70487380D01*
X123293094Y-70487380D02*
X122816904Y-70487380D01*
X122388332Y-71487380D02*
X122388332Y-70487380D01*
X122388332Y-70487380D02*
X121816904Y-71487380D01*
X121816904Y-71487380D02*
X121816904Y-70487380D01*
X123431190Y-70135000D02*
X121678809Y-70135000D01*
X86248808Y-76519761D02*
X86105951Y-76567380D01*
X86105951Y-76567380D02*
X85867856Y-76567380D01*
X85867856Y-76567380D02*
X85772618Y-76519761D01*
X85772618Y-76519761D02*
X85724999Y-76472142D01*
X85724999Y-76472142D02*
X85677380Y-76376904D01*
X85677380Y-76376904D02*
X85677380Y-76281666D01*
X85677380Y-76281666D02*
X85724999Y-76186428D01*
X85724999Y-76186428D02*
X85772618Y-76138809D01*
X85772618Y-76138809D02*
X85867856Y-76091190D01*
X85867856Y-76091190D02*
X86058332Y-76043571D01*
X86058332Y-76043571D02*
X86153570Y-75995952D01*
X86153570Y-75995952D02*
X86201189Y-75948333D01*
X86201189Y-75948333D02*
X86248808Y-75853095D01*
X86248808Y-75853095D02*
X86248808Y-75757857D01*
X86248808Y-75757857D02*
X86201189Y-75662619D01*
X86201189Y-75662619D02*
X86153570Y-75615000D01*
X86153570Y-75615000D02*
X86058332Y-75567380D01*
X86058332Y-75567380D02*
X85820237Y-75567380D01*
X85820237Y-75567380D02*
X85677380Y-75615000D01*
X85248808Y-76567380D02*
X85248808Y-75567380D01*
X123340713Y-79107380D02*
X123340713Y-78107380D01*
X123340713Y-78107380D02*
X123102618Y-78107380D01*
X123102618Y-78107380D02*
X122959761Y-78155000D01*
X122959761Y-78155000D02*
X122864523Y-78250238D01*
X122864523Y-78250238D02*
X122816904Y-78345476D01*
X122816904Y-78345476D02*
X122769285Y-78535952D01*
X122769285Y-78535952D02*
X122769285Y-78678809D01*
X122769285Y-78678809D02*
X122816904Y-78869285D01*
X122816904Y-78869285D02*
X122864523Y-78964523D01*
X122864523Y-78964523D02*
X122959761Y-79059761D01*
X122959761Y-79059761D02*
X123102618Y-79107380D01*
X123102618Y-79107380D02*
X123340713Y-79107380D01*
X122150237Y-78107380D02*
X121959761Y-78107380D01*
X121959761Y-78107380D02*
X121864523Y-78155000D01*
X121864523Y-78155000D02*
X121769285Y-78250238D01*
X121769285Y-78250238D02*
X121721666Y-78440714D01*
X121721666Y-78440714D02*
X121721666Y-78774047D01*
X121721666Y-78774047D02*
X121769285Y-78964523D01*
X121769285Y-78964523D02*
X121864523Y-79059761D01*
X121864523Y-79059761D02*
X121959761Y-79107380D01*
X121959761Y-79107380D02*
X122150237Y-79107380D01*
X122150237Y-79107380D02*
X122245475Y-79059761D01*
X122245475Y-79059761D02*
X122340713Y-78964523D01*
X122340713Y-78964523D02*
X122388332Y-78774047D01*
X122388332Y-78774047D02*
X122388332Y-78440714D01*
X122388332Y-78440714D02*
X122340713Y-78250238D01*
X122340713Y-78250238D02*
X122245475Y-78155000D01*
X122245475Y-78155000D02*
X122150237Y-78107380D01*
X122031191Y-96200238D02*
X122174048Y-96152619D01*
X122174048Y-96152619D02*
X122412143Y-96152619D01*
X122412143Y-96152619D02*
X122507381Y-96200238D01*
X122507381Y-96200238D02*
X122555000Y-96247857D01*
X122555000Y-96247857D02*
X122602619Y-96343095D01*
X122602619Y-96343095D02*
X122602619Y-96438333D01*
X122602619Y-96438333D02*
X122555000Y-96533571D01*
X122555000Y-96533571D02*
X122507381Y-96581190D01*
X122507381Y-96581190D02*
X122412143Y-96628809D01*
X122412143Y-96628809D02*
X122221667Y-96676428D01*
X122221667Y-96676428D02*
X122126429Y-96724047D01*
X122126429Y-96724047D02*
X122078810Y-96771666D01*
X122078810Y-96771666D02*
X122031191Y-96866904D01*
X122031191Y-96866904D02*
X122031191Y-96962142D01*
X122031191Y-96962142D02*
X122078810Y-97057380D01*
X122078810Y-97057380D02*
X122126429Y-97105000D01*
X122126429Y-97105000D02*
X122221667Y-97152619D01*
X122221667Y-97152619D02*
X122459762Y-97152619D01*
X122459762Y-97152619D02*
X122602619Y-97105000D01*
X123031191Y-96152619D02*
X123031191Y-97152619D01*
X123078808Y-76519761D02*
X122935951Y-76567380D01*
X122935951Y-76567380D02*
X122697856Y-76567380D01*
X122697856Y-76567380D02*
X122602618Y-76519761D01*
X122602618Y-76519761D02*
X122554999Y-76472142D01*
X122554999Y-76472142D02*
X122507380Y-76376904D01*
X122507380Y-76376904D02*
X122507380Y-76281666D01*
X122507380Y-76281666D02*
X122554999Y-76186428D01*
X122554999Y-76186428D02*
X122602618Y-76138809D01*
X122602618Y-76138809D02*
X122697856Y-76091190D01*
X122697856Y-76091190D02*
X122888332Y-76043571D01*
X122888332Y-76043571D02*
X122983570Y-75995952D01*
X122983570Y-75995952D02*
X123031189Y-75948333D01*
X123031189Y-75948333D02*
X123078808Y-75853095D01*
X123078808Y-75853095D02*
X123078808Y-75757857D01*
X123078808Y-75757857D02*
X123031189Y-75662619D01*
X123031189Y-75662619D02*
X122983570Y-75615000D01*
X122983570Y-75615000D02*
X122888332Y-75567380D01*
X122888332Y-75567380D02*
X122650237Y-75567380D01*
X122650237Y-75567380D02*
X122507380Y-75615000D01*
X122078808Y-76567380D02*
X122078808Y-75567380D01*
X84939286Y-93612619D02*
X84939286Y-94612619D01*
X84939286Y-94612619D02*
X85177381Y-94612619D01*
X85177381Y-94612619D02*
X85320238Y-94565000D01*
X85320238Y-94565000D02*
X85415476Y-94469761D01*
X85415476Y-94469761D02*
X85463095Y-94374523D01*
X85463095Y-94374523D02*
X85510714Y-94184047D01*
X85510714Y-94184047D02*
X85510714Y-94041190D01*
X85510714Y-94041190D02*
X85463095Y-93850714D01*
X85463095Y-93850714D02*
X85415476Y-93755476D01*
X85415476Y-93755476D02*
X85320238Y-93660238D01*
X85320238Y-93660238D02*
X85177381Y-93612619D01*
X85177381Y-93612619D02*
X84939286Y-93612619D01*
X86129762Y-94612619D02*
X86320238Y-94612619D01*
X86320238Y-94612619D02*
X86415476Y-94565000D01*
X86415476Y-94565000D02*
X86510714Y-94469761D01*
X86510714Y-94469761D02*
X86558333Y-94279285D01*
X86558333Y-94279285D02*
X86558333Y-93945952D01*
X86558333Y-93945952D02*
X86510714Y-93755476D01*
X86510714Y-93755476D02*
X86415476Y-93660238D01*
X86415476Y-93660238D02*
X86320238Y-93612619D01*
X86320238Y-93612619D02*
X86129762Y-93612619D01*
X86129762Y-93612619D02*
X86034524Y-93660238D01*
X86034524Y-93660238D02*
X85939286Y-93755476D01*
X85939286Y-93755476D02*
X85891667Y-93945952D01*
X85891667Y-93945952D02*
X85891667Y-94279285D01*
X85891667Y-94279285D02*
X85939286Y-94469761D01*
X85939286Y-94469761D02*
X86034524Y-94565000D01*
X86034524Y-94565000D02*
X86129762Y-94612619D01*
X108079380Y-103917905D02*
X108079380Y-104489333D01*
X109079380Y-104203619D02*
X108079380Y-104203619D01*
X109079380Y-105346476D02*
X109079380Y-104775048D01*
X109079380Y-105060762D02*
X108079380Y-105060762D01*
X108079380Y-105060762D02*
X108222238Y-104965524D01*
X108222238Y-104965524D02*
X108317476Y-104870286D01*
X108317476Y-104870286D02*
X108365095Y-104775048D01*
X108079380Y-105965524D02*
X108079380Y-106060762D01*
X108079380Y-106060762D02*
X108127000Y-106156000D01*
X108127000Y-106156000D02*
X108174619Y-106203619D01*
X108174619Y-106203619D02*
X108269857Y-106251238D01*
X108269857Y-106251238D02*
X108460333Y-106298857D01*
X108460333Y-106298857D02*
X108698428Y-106298857D01*
X108698428Y-106298857D02*
X108888904Y-106251238D01*
X108888904Y-106251238D02*
X108984142Y-106203619D01*
X108984142Y-106203619D02*
X109031761Y-106156000D01*
X109031761Y-106156000D02*
X109079380Y-106060762D01*
X109079380Y-106060762D02*
X109079380Y-105965524D01*
X109079380Y-105965524D02*
X109031761Y-105870286D01*
X109031761Y-105870286D02*
X108984142Y-105822667D01*
X108984142Y-105822667D02*
X108888904Y-105775048D01*
X108888904Y-105775048D02*
X108698428Y-105727429D01*
X108698428Y-105727429D02*
X108460333Y-105727429D01*
X108460333Y-105727429D02*
X108269857Y-105775048D01*
X108269857Y-105775048D02*
X108174619Y-105822667D01*
X108174619Y-105822667D02*
X108127000Y-105870286D01*
X108127000Y-105870286D02*
X108079380Y-105965524D01*
X99702857Y-94252142D02*
X99750476Y-94299761D01*
X99750476Y-94299761D02*
X99893333Y-94347380D01*
X99893333Y-94347380D02*
X99988571Y-94347380D01*
X99988571Y-94347380D02*
X100131428Y-94299761D01*
X100131428Y-94299761D02*
X100226666Y-94204523D01*
X100226666Y-94204523D02*
X100274285Y-94109285D01*
X100274285Y-94109285D02*
X100321904Y-93918809D01*
X100321904Y-93918809D02*
X100321904Y-93775952D01*
X100321904Y-93775952D02*
X100274285Y-93585476D01*
X100274285Y-93585476D02*
X100226666Y-93490238D01*
X100226666Y-93490238D02*
X100131428Y-93395000D01*
X100131428Y-93395000D02*
X99988571Y-93347380D01*
X99988571Y-93347380D02*
X99893333Y-93347380D01*
X99893333Y-93347380D02*
X99750476Y-93395000D01*
X99750476Y-93395000D02*
X99702857Y-93442619D01*
X98750476Y-94347380D02*
X99321904Y-94347380D01*
X99036190Y-94347380D02*
X99036190Y-93347380D01*
X99036190Y-93347380D02*
X99131428Y-93490238D01*
X99131428Y-93490238D02*
X99226666Y-93585476D01*
X99226666Y-93585476D02*
X99321904Y-93633095D01*
X98369523Y-93442619D02*
X98321904Y-93395000D01*
X98321904Y-93395000D02*
X98226666Y-93347380D01*
X98226666Y-93347380D02*
X97988571Y-93347380D01*
X97988571Y-93347380D02*
X97893333Y-93395000D01*
X97893333Y-93395000D02*
X97845714Y-93442619D01*
X97845714Y-93442619D02*
X97798095Y-93537857D01*
X97798095Y-93537857D02*
X97798095Y-93633095D01*
X97798095Y-93633095D02*
X97845714Y-93775952D01*
X97845714Y-93775952D02*
X98417142Y-94347380D01*
X98417142Y-94347380D02*
X97798095Y-94347380D01*
X98824142Y-101433335D02*
X98871761Y-101385716D01*
X98871761Y-101385716D02*
X98919380Y-101242859D01*
X98919380Y-101242859D02*
X98919380Y-101147621D01*
X98919380Y-101147621D02*
X98871761Y-101004764D01*
X98871761Y-101004764D02*
X98776523Y-100909526D01*
X98776523Y-100909526D02*
X98681285Y-100861907D01*
X98681285Y-100861907D02*
X98490809Y-100814288D01*
X98490809Y-100814288D02*
X98347952Y-100814288D01*
X98347952Y-100814288D02*
X98157476Y-100861907D01*
X98157476Y-100861907D02*
X98062238Y-100909526D01*
X98062238Y-100909526D02*
X97967000Y-101004764D01*
X97967000Y-101004764D02*
X97919380Y-101147621D01*
X97919380Y-101147621D02*
X97919380Y-101242859D01*
X97919380Y-101242859D02*
X97967000Y-101385716D01*
X97967000Y-101385716D02*
X98014619Y-101433335D01*
X98919380Y-101909526D02*
X98919380Y-102100002D01*
X98919380Y-102100002D02*
X98871761Y-102195240D01*
X98871761Y-102195240D02*
X98824142Y-102242859D01*
X98824142Y-102242859D02*
X98681285Y-102338097D01*
X98681285Y-102338097D02*
X98490809Y-102385716D01*
X98490809Y-102385716D02*
X98109857Y-102385716D01*
X98109857Y-102385716D02*
X98014619Y-102338097D01*
X98014619Y-102338097D02*
X97967000Y-102290478D01*
X97967000Y-102290478D02*
X97919380Y-102195240D01*
X97919380Y-102195240D02*
X97919380Y-102004764D01*
X97919380Y-102004764D02*
X97967000Y-101909526D01*
X97967000Y-101909526D02*
X98014619Y-101861907D01*
X98014619Y-101861907D02*
X98109857Y-101814288D01*
X98109857Y-101814288D02*
X98347952Y-101814288D01*
X98347952Y-101814288D02*
X98443190Y-101861907D01*
X98443190Y-101861907D02*
X98490809Y-101909526D01*
X98490809Y-101909526D02*
X98538428Y-102004764D01*
X98538428Y-102004764D02*
X98538428Y-102195240D01*
X98538428Y-102195240D02*
X98490809Y-102290478D01*
X98490809Y-102290478D02*
X98443190Y-102338097D01*
X98443190Y-102338097D02*
X98347952Y-102385716D01*
X107317380Y-64166905D02*
X107317380Y-64738333D01*
X108317380Y-64452619D02*
X107317380Y-64452619D01*
X108317380Y-65595476D02*
X108317380Y-65024048D01*
X108317380Y-65309762D02*
X107317380Y-65309762D01*
X107317380Y-65309762D02*
X107460238Y-65214524D01*
X107460238Y-65214524D02*
X107555476Y-65119286D01*
X107555476Y-65119286D02*
X107603095Y-65024048D01*
X107317380Y-65928810D02*
X107317380Y-66547857D01*
X107317380Y-66547857D02*
X107698333Y-66214524D01*
X107698333Y-66214524D02*
X107698333Y-66357381D01*
X107698333Y-66357381D02*
X107745952Y-66452619D01*
X107745952Y-66452619D02*
X107793571Y-66500238D01*
X107793571Y-66500238D02*
X107888809Y-66547857D01*
X107888809Y-66547857D02*
X108126904Y-66547857D01*
X108126904Y-66547857D02*
X108222142Y-66500238D01*
X108222142Y-66500238D02*
X108269761Y-66452619D01*
X108269761Y-66452619D02*
X108317380Y-66357381D01*
X108317380Y-66357381D02*
X108317380Y-66071667D01*
X108317380Y-66071667D02*
X108269761Y-65976429D01*
X108269761Y-65976429D02*
X108222142Y-65928810D01*
X99697381Y-70516904D02*
X99697381Y-71088332D01*
X100697381Y-70802618D02*
X99697381Y-70802618D01*
X100697381Y-71945475D02*
X100697381Y-71374047D01*
X100697381Y-71659761D02*
X99697381Y-71659761D01*
X99697381Y-71659761D02*
X99840239Y-71564523D01*
X99840239Y-71564523D02*
X99935477Y-71469285D01*
X99935477Y-71469285D02*
X99983096Y-71374047D01*
X99697381Y-72802618D02*
X99697381Y-72612142D01*
X99697381Y-72612142D02*
X99745001Y-72516904D01*
X99745001Y-72516904D02*
X99792620Y-72469285D01*
X99792620Y-72469285D02*
X99935477Y-72374047D01*
X99935477Y-72374047D02*
X100125953Y-72326428D01*
X100125953Y-72326428D02*
X100506905Y-72326428D01*
X100506905Y-72326428D02*
X100602143Y-72374047D01*
X100602143Y-72374047D02*
X100649762Y-72421666D01*
X100649762Y-72421666D02*
X100697381Y-72516904D01*
X100697381Y-72516904D02*
X100697381Y-72707380D01*
X100697381Y-72707380D02*
X100649762Y-72802618D01*
X100649762Y-72802618D02*
X100602143Y-72850237D01*
X100602143Y-72850237D02*
X100506905Y-72897856D01*
X100506905Y-72897856D02*
X100268810Y-72897856D01*
X100268810Y-72897856D02*
X100173572Y-72850237D01*
X100173572Y-72850237D02*
X100125953Y-72802618D01*
X100125953Y-72802618D02*
X100078334Y-72707380D01*
X100078334Y-72707380D02*
X100078334Y-72516904D01*
X100078334Y-72516904D02*
X100125953Y-72421666D01*
X100125953Y-72421666D02*
X100173572Y-72374047D01*
X100173572Y-72374047D02*
X100268810Y-72326428D01*
X109862858Y-79520142D02*
X109910477Y-79567761D01*
X109910477Y-79567761D02*
X110053334Y-79615380D01*
X110053334Y-79615380D02*
X110148572Y-79615380D01*
X110148572Y-79615380D02*
X110291429Y-79567761D01*
X110291429Y-79567761D02*
X110386667Y-79472523D01*
X110386667Y-79472523D02*
X110434286Y-79377285D01*
X110434286Y-79377285D02*
X110481905Y-79186809D01*
X110481905Y-79186809D02*
X110481905Y-79043952D01*
X110481905Y-79043952D02*
X110434286Y-78853476D01*
X110434286Y-78853476D02*
X110386667Y-78758238D01*
X110386667Y-78758238D02*
X110291429Y-78663000D01*
X110291429Y-78663000D02*
X110148572Y-78615380D01*
X110148572Y-78615380D02*
X110053334Y-78615380D01*
X110053334Y-78615380D02*
X109910477Y-78663000D01*
X109910477Y-78663000D02*
X109862858Y-78710619D01*
X108910477Y-79615380D02*
X109481905Y-79615380D01*
X109196191Y-79615380D02*
X109196191Y-78615380D01*
X109196191Y-78615380D02*
X109291429Y-78758238D01*
X109291429Y-78758238D02*
X109386667Y-78853476D01*
X109386667Y-78853476D02*
X109481905Y-78901095D01*
X108053334Y-78615380D02*
X108243810Y-78615380D01*
X108243810Y-78615380D02*
X108339048Y-78663000D01*
X108339048Y-78663000D02*
X108386667Y-78710619D01*
X108386667Y-78710619D02*
X108481905Y-78853476D01*
X108481905Y-78853476D02*
X108529524Y-79043952D01*
X108529524Y-79043952D02*
X108529524Y-79424904D01*
X108529524Y-79424904D02*
X108481905Y-79520142D01*
X108481905Y-79520142D02*
X108434286Y-79567761D01*
X108434286Y-79567761D02*
X108339048Y-79615380D01*
X108339048Y-79615380D02*
X108148572Y-79615380D01*
X108148572Y-79615380D02*
X108053334Y-79567761D01*
X108053334Y-79567761D02*
X108005715Y-79520142D01*
X108005715Y-79520142D02*
X107958096Y-79424904D01*
X107958096Y-79424904D02*
X107958096Y-79186809D01*
X107958096Y-79186809D02*
X108005715Y-79091571D01*
X108005715Y-79091571D02*
X108053334Y-79043952D01*
X108053334Y-79043952D02*
X108148572Y-78996333D01*
X108148572Y-78996333D02*
X108339048Y-78996333D01*
X108339048Y-78996333D02*
X108434286Y-79043952D01*
X108434286Y-79043952D02*
X108481905Y-79091571D01*
X108481905Y-79091571D02*
X108529524Y-79186809D01*
X109354857Y-108984142D02*
X109402476Y-109031761D01*
X109402476Y-109031761D02*
X109545333Y-109079380D01*
X109545333Y-109079380D02*
X109640571Y-109079380D01*
X109640571Y-109079380D02*
X109783428Y-109031761D01*
X109783428Y-109031761D02*
X109878666Y-108936523D01*
X109878666Y-108936523D02*
X109926285Y-108841285D01*
X109926285Y-108841285D02*
X109973904Y-108650809D01*
X109973904Y-108650809D02*
X109973904Y-108507952D01*
X109973904Y-108507952D02*
X109926285Y-108317476D01*
X109926285Y-108317476D02*
X109878666Y-108222238D01*
X109878666Y-108222238D02*
X109783428Y-108127000D01*
X109783428Y-108127000D02*
X109640571Y-108079380D01*
X109640571Y-108079380D02*
X109545333Y-108079380D01*
X109545333Y-108079380D02*
X109402476Y-108127000D01*
X109402476Y-108127000D02*
X109354857Y-108174619D01*
X108402476Y-109079380D02*
X108973904Y-109079380D01*
X108688190Y-109079380D02*
X108688190Y-108079380D01*
X108688190Y-108079380D02*
X108783428Y-108222238D01*
X108783428Y-108222238D02*
X108878666Y-108317476D01*
X108878666Y-108317476D02*
X108973904Y-108365095D01*
X107783428Y-108079380D02*
X107688190Y-108079380D01*
X107688190Y-108079380D02*
X107592952Y-108127000D01*
X107592952Y-108127000D02*
X107545333Y-108174619D01*
X107545333Y-108174619D02*
X107497714Y-108269857D01*
X107497714Y-108269857D02*
X107450095Y-108460333D01*
X107450095Y-108460333D02*
X107450095Y-108698428D01*
X107450095Y-108698428D02*
X107497714Y-108888904D01*
X107497714Y-108888904D02*
X107545333Y-108984142D01*
X107545333Y-108984142D02*
X107592952Y-109031761D01*
X107592952Y-109031761D02*
X107688190Y-109079380D01*
X107688190Y-109079380D02*
X107783428Y-109079380D01*
X107783428Y-109079380D02*
X107878666Y-109031761D01*
X107878666Y-109031761D02*
X107926285Y-108984142D01*
X107926285Y-108984142D02*
X107973904Y-108888904D01*
X107973904Y-108888904D02*
X108021523Y-108698428D01*
X108021523Y-108698428D02*
X108021523Y-108460333D01*
X108021523Y-108460333D02*
X107973904Y-108269857D01*
X107973904Y-108269857D02*
X107926285Y-108174619D01*
X107926285Y-108174619D02*
X107878666Y-108127000D01*
X107878666Y-108127000D02*
X107783428Y-108079380D01*
X100210857Y-64788142D02*
X100258476Y-64835761D01*
X100258476Y-64835761D02*
X100401333Y-64883380D01*
X100401333Y-64883380D02*
X100496571Y-64883380D01*
X100496571Y-64883380D02*
X100639428Y-64835761D01*
X100639428Y-64835761D02*
X100734666Y-64740523D01*
X100734666Y-64740523D02*
X100782285Y-64645285D01*
X100782285Y-64645285D02*
X100829904Y-64454809D01*
X100829904Y-64454809D02*
X100829904Y-64311952D01*
X100829904Y-64311952D02*
X100782285Y-64121476D01*
X100782285Y-64121476D02*
X100734666Y-64026238D01*
X100734666Y-64026238D02*
X100639428Y-63931000D01*
X100639428Y-63931000D02*
X100496571Y-63883380D01*
X100496571Y-63883380D02*
X100401333Y-63883380D01*
X100401333Y-63883380D02*
X100258476Y-63931000D01*
X100258476Y-63931000D02*
X100210857Y-63978619D01*
X99258476Y-64883380D02*
X99829904Y-64883380D01*
X99544190Y-64883380D02*
X99544190Y-63883380D01*
X99544190Y-63883380D02*
X99639428Y-64026238D01*
X99639428Y-64026238D02*
X99734666Y-64121476D01*
X99734666Y-64121476D02*
X99829904Y-64169095D01*
X98401333Y-64216714D02*
X98401333Y-64883380D01*
X98639428Y-63835761D02*
X98877523Y-64550047D01*
X98877523Y-64550047D02*
X98258476Y-64550047D01*
X107317385Y-99726906D02*
X107317385Y-100298334D01*
X108317385Y-100012620D02*
X107317385Y-100012620D01*
X108317385Y-101155477D02*
X108317385Y-100584049D01*
X108317385Y-100869763D02*
X107317385Y-100869763D01*
X107317385Y-100869763D02*
X107460243Y-100774525D01*
X107460243Y-100774525D02*
X107555481Y-100679287D01*
X107555481Y-100679287D02*
X107603100Y-100584049D01*
X107412624Y-101536430D02*
X107365005Y-101584049D01*
X107365005Y-101584049D02*
X107317385Y-101679287D01*
X107317385Y-101679287D02*
X107317385Y-101917382D01*
X107317385Y-101917382D02*
X107365005Y-102012620D01*
X107365005Y-102012620D02*
X107412624Y-102060239D01*
X107412624Y-102060239D02*
X107507862Y-102107858D01*
X107507862Y-102107858D02*
X107603100Y-102107858D01*
X107603100Y-102107858D02*
X107745957Y-102060239D01*
X107745957Y-102060239D02*
X108317385Y-101488811D01*
X108317385Y-101488811D02*
X108317385Y-102107858D01*
X106402094Y-98411380D02*
X106402094Y-97411380D01*
X106402094Y-97411380D02*
X106163999Y-97411380D01*
X106163999Y-97411380D02*
X106021142Y-97459000D01*
X106021142Y-97459000D02*
X105925904Y-97554238D01*
X105925904Y-97554238D02*
X105878285Y-97649476D01*
X105878285Y-97649476D02*
X105830666Y-97839952D01*
X105830666Y-97839952D02*
X105830666Y-97982809D01*
X105830666Y-97982809D02*
X105878285Y-98173285D01*
X105878285Y-98173285D02*
X105925904Y-98268523D01*
X105925904Y-98268523D02*
X106021142Y-98363761D01*
X106021142Y-98363761D02*
X106163999Y-98411380D01*
X106163999Y-98411380D02*
X106402094Y-98411380D01*
X105497332Y-97411380D02*
X104878285Y-97411380D01*
X104878285Y-97411380D02*
X105211618Y-97792333D01*
X105211618Y-97792333D02*
X105068761Y-97792333D01*
X105068761Y-97792333D02*
X104973523Y-97839952D01*
X104973523Y-97839952D02*
X104925904Y-97887571D01*
X104925904Y-97887571D02*
X104878285Y-97982809D01*
X104878285Y-97982809D02*
X104878285Y-98220904D01*
X104878285Y-98220904D02*
X104925904Y-98316142D01*
X104925904Y-98316142D02*
X104973523Y-98363761D01*
X104973523Y-98363761D02*
X105068761Y-98411380D01*
X105068761Y-98411380D02*
X105354475Y-98411380D01*
X105354475Y-98411380D02*
X105449713Y-98363761D01*
X105449713Y-98363761D02*
X105497332Y-98316142D01*
X108571380Y-90003333D02*
X108095190Y-89670000D01*
X108571380Y-89431905D02*
X107571380Y-89431905D01*
X107571380Y-89431905D02*
X107571380Y-89812857D01*
X107571380Y-89812857D02*
X107619000Y-89908095D01*
X107619000Y-89908095D02*
X107666619Y-89955714D01*
X107666619Y-89955714D02*
X107761857Y-90003333D01*
X107761857Y-90003333D02*
X107904714Y-90003333D01*
X107904714Y-90003333D02*
X107999952Y-89955714D01*
X107999952Y-89955714D02*
X108047571Y-89908095D01*
X108047571Y-89908095D02*
X108095190Y-89812857D01*
X108095190Y-89812857D02*
X108095190Y-89431905D01*
X108571380Y-90479524D02*
X108571380Y-90670000D01*
X108571380Y-90670000D02*
X108523761Y-90765238D01*
X108523761Y-90765238D02*
X108476142Y-90812857D01*
X108476142Y-90812857D02*
X108333285Y-90908095D01*
X108333285Y-90908095D02*
X108142809Y-90955714D01*
X108142809Y-90955714D02*
X107761857Y-90955714D01*
X107761857Y-90955714D02*
X107666619Y-90908095D01*
X107666619Y-90908095D02*
X107619000Y-90860476D01*
X107619000Y-90860476D02*
X107571380Y-90765238D01*
X107571380Y-90765238D02*
X107571380Y-90574762D01*
X107571380Y-90574762D02*
X107619000Y-90479524D01*
X107619000Y-90479524D02*
X107666619Y-90431905D01*
X107666619Y-90431905D02*
X107761857Y-90384286D01*
X107761857Y-90384286D02*
X107999952Y-90384286D01*
X107999952Y-90384286D02*
X108095190Y-90431905D01*
X108095190Y-90431905D02*
X108142809Y-90479524D01*
X108142809Y-90479524D02*
X108190428Y-90574762D01*
X108190428Y-90574762D02*
X108190428Y-90765238D01*
X108190428Y-90765238D02*
X108142809Y-90860476D01*
X108142809Y-90860476D02*
X108095190Y-90908095D01*
X108095190Y-90908095D02*
X107999952Y-90955714D01*
X110508142Y-70477142D02*
X110555761Y-70429523D01*
X110555761Y-70429523D02*
X110603380Y-70286666D01*
X110603380Y-70286666D02*
X110603380Y-70191428D01*
X110603380Y-70191428D02*
X110555761Y-70048571D01*
X110555761Y-70048571D02*
X110460523Y-69953333D01*
X110460523Y-69953333D02*
X110365285Y-69905714D01*
X110365285Y-69905714D02*
X110174809Y-69858095D01*
X110174809Y-69858095D02*
X110031952Y-69858095D01*
X110031952Y-69858095D02*
X109841476Y-69905714D01*
X109841476Y-69905714D02*
X109746238Y-69953333D01*
X109746238Y-69953333D02*
X109651000Y-70048571D01*
X109651000Y-70048571D02*
X109603380Y-70191428D01*
X109603380Y-70191428D02*
X109603380Y-70286666D01*
X109603380Y-70286666D02*
X109651000Y-70429523D01*
X109651000Y-70429523D02*
X109698619Y-70477142D01*
X110603380Y-71429523D02*
X110603380Y-70858095D01*
X110603380Y-71143809D02*
X109603380Y-71143809D01*
X109603380Y-71143809D02*
X109746238Y-71048571D01*
X109746238Y-71048571D02*
X109841476Y-70953333D01*
X109841476Y-70953333D02*
X109889095Y-70858095D01*
X109603380Y-71762857D02*
X109603380Y-72381904D01*
X109603380Y-72381904D02*
X109984333Y-72048571D01*
X109984333Y-72048571D02*
X109984333Y-72191428D01*
X109984333Y-72191428D02*
X110031952Y-72286666D01*
X110031952Y-72286666D02*
X110079571Y-72334285D01*
X110079571Y-72334285D02*
X110174809Y-72381904D01*
X110174809Y-72381904D02*
X110412904Y-72381904D01*
X110412904Y-72381904D02*
X110508142Y-72334285D01*
X110508142Y-72334285D02*
X110555761Y-72286666D01*
X110555761Y-72286666D02*
X110603380Y-72191428D01*
X110603380Y-72191428D02*
X110603380Y-71905714D01*
X110603380Y-71905714D02*
X110555761Y-71810476D01*
X110555761Y-71810476D02*
X110508142Y-71762857D01*
X114942857Y-79615380D02*
X115276190Y-79139190D01*
X115514285Y-79615380D02*
X115514285Y-78615380D01*
X115514285Y-78615380D02*
X115133333Y-78615380D01*
X115133333Y-78615380D02*
X115038095Y-78663000D01*
X115038095Y-78663000D02*
X114990476Y-78710619D01*
X114990476Y-78710619D02*
X114942857Y-78805857D01*
X114942857Y-78805857D02*
X114942857Y-78948714D01*
X114942857Y-78948714D02*
X114990476Y-79043952D01*
X114990476Y-79043952D02*
X115038095Y-79091571D01*
X115038095Y-79091571D02*
X115133333Y-79139190D01*
X115133333Y-79139190D02*
X115514285Y-79139190D01*
X113990476Y-79615380D02*
X114561904Y-79615380D01*
X114276190Y-79615380D02*
X114276190Y-78615380D01*
X114276190Y-78615380D02*
X114371428Y-78758238D01*
X114371428Y-78758238D02*
X114466666Y-78853476D01*
X114466666Y-78853476D02*
X114561904Y-78901095D01*
X113038095Y-79615380D02*
X113609523Y-79615380D01*
X113323809Y-79615380D02*
X113323809Y-78615380D01*
X113323809Y-78615380D02*
X113419047Y-78758238D01*
X113419047Y-78758238D02*
X113514285Y-78853476D01*
X113514285Y-78853476D02*
X113609523Y-78901095D01*
X104782856Y-94252142D02*
X104830475Y-94299761D01*
X104830475Y-94299761D02*
X104973332Y-94347380D01*
X104973332Y-94347380D02*
X105068570Y-94347380D01*
X105068570Y-94347380D02*
X105211427Y-94299761D01*
X105211427Y-94299761D02*
X105306665Y-94204523D01*
X105306665Y-94204523D02*
X105354284Y-94109285D01*
X105354284Y-94109285D02*
X105401903Y-93918809D01*
X105401903Y-93918809D02*
X105401903Y-93775952D01*
X105401903Y-93775952D02*
X105354284Y-93585476D01*
X105354284Y-93585476D02*
X105306665Y-93490238D01*
X105306665Y-93490238D02*
X105211427Y-93395000D01*
X105211427Y-93395000D02*
X105068570Y-93347380D01*
X105068570Y-93347380D02*
X104973332Y-93347380D01*
X104973332Y-93347380D02*
X104830475Y-93395000D01*
X104830475Y-93395000D02*
X104782856Y-93442619D01*
X103830475Y-94347380D02*
X104401903Y-94347380D01*
X104116189Y-94347380D02*
X104116189Y-93347380D01*
X104116189Y-93347380D02*
X104211427Y-93490238D01*
X104211427Y-93490238D02*
X104306665Y-93585476D01*
X104306665Y-93585476D02*
X104401903Y-93633095D01*
X102878094Y-94347380D02*
X103449522Y-94347380D01*
X103163808Y-94347380D02*
X103163808Y-93347380D01*
X103163808Y-93347380D02*
X103259046Y-93490238D01*
X103259046Y-93490238D02*
X103354284Y-93585476D01*
X103354284Y-93585476D02*
X103449522Y-93633095D01*
X94146666Y-94347380D02*
X94479999Y-93871190D01*
X94718094Y-94347380D02*
X94718094Y-93347380D01*
X94718094Y-93347380D02*
X94337142Y-93347380D01*
X94337142Y-93347380D02*
X94241904Y-93395000D01*
X94241904Y-93395000D02*
X94194285Y-93442619D01*
X94194285Y-93442619D02*
X94146666Y-93537857D01*
X94146666Y-93537857D02*
X94146666Y-93680714D01*
X94146666Y-93680714D02*
X94194285Y-93775952D01*
X94194285Y-93775952D02*
X94241904Y-93823571D01*
X94241904Y-93823571D02*
X94337142Y-93871190D01*
X94337142Y-93871190D02*
X94718094Y-93871190D01*
X93575237Y-93775952D02*
X93670475Y-93728333D01*
X93670475Y-93728333D02*
X93718094Y-93680714D01*
X93718094Y-93680714D02*
X93765713Y-93585476D01*
X93765713Y-93585476D02*
X93765713Y-93537857D01*
X93765713Y-93537857D02*
X93718094Y-93442619D01*
X93718094Y-93442619D02*
X93670475Y-93395000D01*
X93670475Y-93395000D02*
X93575237Y-93347380D01*
X93575237Y-93347380D02*
X93384761Y-93347380D01*
X93384761Y-93347380D02*
X93289523Y-93395000D01*
X93289523Y-93395000D02*
X93241904Y-93442619D01*
X93241904Y-93442619D02*
X93194285Y-93537857D01*
X93194285Y-93537857D02*
X93194285Y-93585476D01*
X93194285Y-93585476D02*
X93241904Y-93680714D01*
X93241904Y-93680714D02*
X93289523Y-93728333D01*
X93289523Y-93728333D02*
X93384761Y-93775952D01*
X93384761Y-93775952D02*
X93575237Y-93775952D01*
X93575237Y-93775952D02*
X93670475Y-93823571D01*
X93670475Y-93823571D02*
X93718094Y-93871190D01*
X93718094Y-93871190D02*
X93765713Y-93966428D01*
X93765713Y-93966428D02*
X93765713Y-94156904D01*
X93765713Y-94156904D02*
X93718094Y-94252142D01*
X93718094Y-94252142D02*
X93670475Y-94299761D01*
X93670475Y-94299761D02*
X93575237Y-94347380D01*
X93575237Y-94347380D02*
X93384761Y-94347380D01*
X93384761Y-94347380D02*
X93289523Y-94299761D01*
X93289523Y-94299761D02*
X93241904Y-94252142D01*
X93241904Y-94252142D02*
X93194285Y-94156904D01*
X93194285Y-94156904D02*
X93194285Y-93966428D01*
X93194285Y-93966428D02*
X93241904Y-93871190D01*
X93241904Y-93871190D02*
X93289523Y-93823571D01*
X93289523Y-93823571D02*
X93384761Y-93775952D01*
X103354094Y-75551380D02*
X103354094Y-74551380D01*
X103354094Y-74551380D02*
X103115999Y-74551380D01*
X103115999Y-74551380D02*
X102973142Y-74599000D01*
X102973142Y-74599000D02*
X102877904Y-74694238D01*
X102877904Y-74694238D02*
X102830285Y-74789476D01*
X102830285Y-74789476D02*
X102782666Y-74979952D01*
X102782666Y-74979952D02*
X102782666Y-75122809D01*
X102782666Y-75122809D02*
X102830285Y-75313285D01*
X102830285Y-75313285D02*
X102877904Y-75408523D01*
X102877904Y-75408523D02*
X102973142Y-75503761D01*
X102973142Y-75503761D02*
X103115999Y-75551380D01*
X103115999Y-75551380D02*
X103354094Y-75551380D01*
X101925523Y-74884714D02*
X101925523Y-75551380D01*
X102163618Y-74503761D02*
X102401713Y-75218047D01*
X102401713Y-75218047D02*
X101782666Y-75218047D01*
X98919380Y-96353334D02*
X98443190Y-96020001D01*
X98919380Y-95781906D02*
X97919380Y-95781906D01*
X97919380Y-95781906D02*
X97919380Y-96162858D01*
X97919380Y-96162858D02*
X97967000Y-96258096D01*
X97967000Y-96258096D02*
X98014619Y-96305715D01*
X98014619Y-96305715D02*
X98109857Y-96353334D01*
X98109857Y-96353334D02*
X98252714Y-96353334D01*
X98252714Y-96353334D02*
X98347952Y-96305715D01*
X98347952Y-96305715D02*
X98395571Y-96258096D01*
X98395571Y-96258096D02*
X98443190Y-96162858D01*
X98443190Y-96162858D02*
X98443190Y-95781906D01*
X97919380Y-96686668D02*
X97919380Y-97353334D01*
X97919380Y-97353334D02*
X98919380Y-96924763D01*
X110603380Y-75557141D02*
X110127190Y-75223808D01*
X110603380Y-74985713D02*
X109603380Y-74985713D01*
X109603380Y-74985713D02*
X109603380Y-75366665D01*
X109603380Y-75366665D02*
X109651000Y-75461903D01*
X109651000Y-75461903D02*
X109698619Y-75509522D01*
X109698619Y-75509522D02*
X109793857Y-75557141D01*
X109793857Y-75557141D02*
X109936714Y-75557141D01*
X109936714Y-75557141D02*
X110031952Y-75509522D01*
X110031952Y-75509522D02*
X110079571Y-75461903D01*
X110079571Y-75461903D02*
X110127190Y-75366665D01*
X110127190Y-75366665D02*
X110127190Y-74985713D01*
X110603380Y-76509522D02*
X110603380Y-75938094D01*
X110603380Y-76223808D02*
X109603380Y-76223808D01*
X109603380Y-76223808D02*
X109746238Y-76128570D01*
X109746238Y-76128570D02*
X109841476Y-76033332D01*
X109841476Y-76033332D02*
X109889095Y-75938094D01*
X109603380Y-77128570D02*
X109603380Y-77223808D01*
X109603380Y-77223808D02*
X109651000Y-77319046D01*
X109651000Y-77319046D02*
X109698619Y-77366665D01*
X109698619Y-77366665D02*
X109793857Y-77414284D01*
X109793857Y-77414284D02*
X109984333Y-77461903D01*
X109984333Y-77461903D02*
X110222428Y-77461903D01*
X110222428Y-77461903D02*
X110412904Y-77414284D01*
X110412904Y-77414284D02*
X110508142Y-77366665D01*
X110508142Y-77366665D02*
X110555761Y-77319046D01*
X110555761Y-77319046D02*
X110603380Y-77223808D01*
X110603380Y-77223808D02*
X110603380Y-77128570D01*
X110603380Y-77128570D02*
X110555761Y-77033332D01*
X110555761Y-77033332D02*
X110508142Y-76985713D01*
X110508142Y-76985713D02*
X110412904Y-76938094D01*
X110412904Y-76938094D02*
X110222428Y-76890475D01*
X110222428Y-76890475D02*
X109984333Y-76890475D01*
X109984333Y-76890475D02*
X109793857Y-76938094D01*
X109793857Y-76938094D02*
X109698619Y-76985713D01*
X109698619Y-76985713D02*
X109651000Y-77033332D01*
X109651000Y-77033332D02*
X109603380Y-77128570D01*
X99951380Y-106934095D02*
X99951380Y-107505523D01*
X100951380Y-107219809D02*
X99951380Y-107219809D01*
X100951380Y-107886476D02*
X100951380Y-108076952D01*
X100951380Y-108076952D02*
X100903761Y-108172190D01*
X100903761Y-108172190D02*
X100856142Y-108219809D01*
X100856142Y-108219809D02*
X100713285Y-108315047D01*
X100713285Y-108315047D02*
X100522809Y-108362666D01*
X100522809Y-108362666D02*
X100141857Y-108362666D01*
X100141857Y-108362666D02*
X100046619Y-108315047D01*
X100046619Y-108315047D02*
X99999000Y-108267428D01*
X99999000Y-108267428D02*
X99951380Y-108172190D01*
X99951380Y-108172190D02*
X99951380Y-107981714D01*
X99951380Y-107981714D02*
X99999000Y-107886476D01*
X99999000Y-107886476D02*
X100046619Y-107838857D01*
X100046619Y-107838857D02*
X100141857Y-107791238D01*
X100141857Y-107791238D02*
X100379952Y-107791238D01*
X100379952Y-107791238D02*
X100475190Y-107838857D01*
X100475190Y-107838857D02*
X100522809Y-107886476D01*
X100522809Y-107886476D02*
X100570428Y-107981714D01*
X100570428Y-107981714D02*
X100570428Y-108172190D01*
X100570428Y-108172190D02*
X100522809Y-108267428D01*
X100522809Y-108267428D02*
X100475190Y-108315047D01*
X100475190Y-108315047D02*
X100379952Y-108362666D01*
X99697381Y-75596904D02*
X99697381Y-76168332D01*
X100697381Y-75882618D02*
X99697381Y-75882618D01*
X100697381Y-77025475D02*
X100697381Y-76454047D01*
X100697381Y-76739761D02*
X99697381Y-76739761D01*
X99697381Y-76739761D02*
X99840239Y-76644523D01*
X99840239Y-76644523D02*
X99935477Y-76549285D01*
X99935477Y-76549285D02*
X99983096Y-76454047D01*
X99697381Y-77930237D02*
X99697381Y-77454047D01*
X99697381Y-77454047D02*
X100173572Y-77406428D01*
X100173572Y-77406428D02*
X100125953Y-77454047D01*
X100125953Y-77454047D02*
X100078334Y-77549285D01*
X100078334Y-77549285D02*
X100078334Y-77787380D01*
X100078334Y-77787380D02*
X100125953Y-77882618D01*
X100125953Y-77882618D02*
X100173572Y-77930237D01*
X100173572Y-77930237D02*
X100268810Y-77977856D01*
X100268810Y-77977856D02*
X100506905Y-77977856D01*
X100506905Y-77977856D02*
X100602143Y-77930237D01*
X100602143Y-77930237D02*
X100649762Y-77882618D01*
X100649762Y-77882618D02*
X100697381Y-77787380D01*
X100697381Y-77787380D02*
X100697381Y-77549285D01*
X100697381Y-77549285D02*
X100649762Y-77454047D01*
X100649762Y-77454047D02*
X100602143Y-77406428D01*
X107317381Y-94646904D02*
X107317381Y-95218332D01*
X108317381Y-94932618D02*
X107317381Y-94932618D01*
X108317381Y-96075475D02*
X108317381Y-95504047D01*
X108317381Y-95789761D02*
X107317381Y-95789761D01*
X107317381Y-95789761D02*
X107460239Y-95694523D01*
X107460239Y-95694523D02*
X107555477Y-95599285D01*
X107555477Y-95599285D02*
X107603096Y-95504047D01*
X108317381Y-97027856D02*
X108317381Y-96456428D01*
X108317381Y-96742142D02*
X107317381Y-96742142D01*
X107317381Y-96742142D02*
X107460239Y-96646904D01*
X107460239Y-96646904D02*
X107555477Y-96551666D01*
X107555477Y-96551666D02*
X107603096Y-96456428D01*
X104782857Y-79520142D02*
X104830476Y-79567761D01*
X104830476Y-79567761D02*
X104973333Y-79615380D01*
X104973333Y-79615380D02*
X105068571Y-79615380D01*
X105068571Y-79615380D02*
X105211428Y-79567761D01*
X105211428Y-79567761D02*
X105306666Y-79472523D01*
X105306666Y-79472523D02*
X105354285Y-79377285D01*
X105354285Y-79377285D02*
X105401904Y-79186809D01*
X105401904Y-79186809D02*
X105401904Y-79043952D01*
X105401904Y-79043952D02*
X105354285Y-78853476D01*
X105354285Y-78853476D02*
X105306666Y-78758238D01*
X105306666Y-78758238D02*
X105211428Y-78663000D01*
X105211428Y-78663000D02*
X105068571Y-78615380D01*
X105068571Y-78615380D02*
X104973333Y-78615380D01*
X104973333Y-78615380D02*
X104830476Y-78663000D01*
X104830476Y-78663000D02*
X104782857Y-78710619D01*
X103830476Y-79615380D02*
X104401904Y-79615380D01*
X104116190Y-79615380D02*
X104116190Y-78615380D01*
X104116190Y-78615380D02*
X104211428Y-78758238D01*
X104211428Y-78758238D02*
X104306666Y-78853476D01*
X104306666Y-78853476D02*
X104401904Y-78901095D01*
X102925714Y-78615380D02*
X103401904Y-78615380D01*
X103401904Y-78615380D02*
X103449523Y-79091571D01*
X103449523Y-79091571D02*
X103401904Y-79043952D01*
X103401904Y-79043952D02*
X103306666Y-78996333D01*
X103306666Y-78996333D02*
X103068571Y-78996333D01*
X103068571Y-78996333D02*
X102973333Y-79043952D01*
X102973333Y-79043952D02*
X102925714Y-79091571D01*
X102925714Y-79091571D02*
X102878095Y-79186809D01*
X102878095Y-79186809D02*
X102878095Y-79424904D01*
X102878095Y-79424904D02*
X102925714Y-79520142D01*
X102925714Y-79520142D02*
X102973333Y-79567761D01*
X102973333Y-79567761D02*
X103068571Y-79615380D01*
X103068571Y-79615380D02*
X103306666Y-79615380D01*
X103306666Y-79615380D02*
X103401904Y-79567761D01*
X103401904Y-79567761D02*
X103449523Y-79520142D01*
X100443380Y-81907142D02*
X99967190Y-81573809D01*
X100443380Y-81335714D02*
X99443380Y-81335714D01*
X99443380Y-81335714D02*
X99443380Y-81716666D01*
X99443380Y-81716666D02*
X99491000Y-81811904D01*
X99491000Y-81811904D02*
X99538619Y-81859523D01*
X99538619Y-81859523D02*
X99633857Y-81907142D01*
X99633857Y-81907142D02*
X99776714Y-81907142D01*
X99776714Y-81907142D02*
X99871952Y-81859523D01*
X99871952Y-81859523D02*
X99919571Y-81811904D01*
X99919571Y-81811904D02*
X99967190Y-81716666D01*
X99967190Y-81716666D02*
X99967190Y-81335714D01*
X100443380Y-82859523D02*
X100443380Y-82288095D01*
X100443380Y-82573809D02*
X99443380Y-82573809D01*
X99443380Y-82573809D02*
X99586238Y-82478571D01*
X99586238Y-82478571D02*
X99681476Y-82383333D01*
X99681476Y-82383333D02*
X99729095Y-82288095D01*
X99538619Y-83240476D02*
X99491000Y-83288095D01*
X99491000Y-83288095D02*
X99443380Y-83383333D01*
X99443380Y-83383333D02*
X99443380Y-83621428D01*
X99443380Y-83621428D02*
X99491000Y-83716666D01*
X99491000Y-83716666D02*
X99538619Y-83764285D01*
X99538619Y-83764285D02*
X99633857Y-83811904D01*
X99633857Y-83811904D02*
X99729095Y-83811904D01*
X99729095Y-83811904D02*
X99871952Y-83764285D01*
X99871952Y-83764285D02*
X100443380Y-83192857D01*
X100443380Y-83192857D02*
X100443380Y-83811904D01*
X99062381Y-66706904D02*
X99062381Y-67278332D01*
X100062381Y-66992618D02*
X99062381Y-66992618D01*
X100062381Y-68135475D02*
X100062381Y-67564047D01*
X100062381Y-67849761D02*
X99062381Y-67849761D01*
X99062381Y-67849761D02*
X99205239Y-67754523D01*
X99205239Y-67754523D02*
X99300477Y-67659285D01*
X99300477Y-67659285D02*
X99348096Y-67564047D01*
X99395715Y-68992618D02*
X100062381Y-68992618D01*
X99014762Y-68754523D02*
X99729048Y-68516428D01*
X99729048Y-68516428D02*
X99729048Y-69135475D01*
D13*
X105535000Y-103195001D02*
X104075000Y-103195001D01*
X105535000Y-103195001D02*
X105535000Y-104125001D01*
X105535000Y-106355001D02*
X102375000Y-106355001D01*
X105535000Y-106355001D02*
X105535000Y-105425001D01*
X100420001Y-89458752D02*
X100420001Y-90881256D01*
X97700001Y-89458752D02*
X97700001Y-90881256D01*
X93903752Y-100240002D02*
X95326256Y-100240002D01*
X93903752Y-102960002D02*
X95326256Y-102960002D01*
X111000000Y-66985000D02*
X112460000Y-66985000D01*
X111000000Y-66985000D02*
X111000000Y-66055000D01*
X111000000Y-63825000D02*
X114160000Y-63825000D01*
X111000000Y-63825000D02*
X111000000Y-64755000D01*
X90230000Y-105470000D02*
X87570000Y-105470000D01*
X90230000Y-92710000D02*
X90230000Y-105470000D01*
X90230000Y-92710000D02*
X87570000Y-92710000D01*
X90230000Y-91440000D02*
X90230000Y-90110000D01*
X90230000Y-90110000D02*
X88900000Y-90110000D01*
X87570000Y-92710000D02*
X87570000Y-105470000D01*
X97280001Y-70174999D02*
X95820001Y-70174999D01*
X97280001Y-70174999D02*
X97280001Y-71104999D01*
X97280001Y-73334999D02*
X94120001Y-73334999D01*
X97280001Y-73334999D02*
X97280001Y-72404999D01*
X107860001Y-83261253D02*
X107860001Y-81838749D01*
X110580001Y-83261253D02*
X110580001Y-81838749D01*
X111035001Y-107391252D02*
X111035001Y-105968748D01*
X113755001Y-107391252D02*
X113755001Y-105968748D01*
X97245001Y-65328749D02*
X97245001Y-66751253D01*
X94525001Y-65328749D02*
X94525001Y-66751253D01*
X111000005Y-102545001D02*
X112460005Y-102545001D01*
X111000005Y-102545001D02*
X111000005Y-101615001D01*
X111000005Y-99385001D02*
X114160005Y-99385001D01*
X111000005Y-99385001D02*
X111000005Y-100315001D01*
X102235001Y-96230003D02*
X101585001Y-96230003D01*
X102235001Y-96230003D02*
X102885001Y-96230003D01*
X102235001Y-99350003D02*
X100560001Y-99350003D01*
X102235001Y-99350003D02*
X102885001Y-99350003D01*
X111036265Y-88815000D02*
X112483739Y-88815000D01*
X111036265Y-91525000D02*
X112483739Y-91525000D01*
X114376253Y-72480001D02*
X112953749Y-72480001D01*
X114376253Y-69760001D02*
X112953749Y-69760001D01*
X115655000Y-81826263D02*
X115655000Y-83273737D01*
X112945000Y-81826263D02*
X112945000Y-83273737D01*
X105499999Y-89458749D02*
X105499999Y-90881253D01*
X102779999Y-89458749D02*
X102779999Y-90881253D01*
X118050000Y-67250000D02*
X120710000Y-67250000D01*
X118050000Y-80010000D02*
X118050000Y-67250000D01*
X118050000Y-80010000D02*
X120710000Y-80010000D01*
X118050000Y-81280000D02*
X118050000Y-82610000D01*
X118050000Y-82610000D02*
X119380000Y-82610000D01*
X120710000Y-80010000D02*
X120710000Y-67250000D01*
X92625000Y-90893737D02*
X92625000Y-89446263D01*
X95335000Y-90893737D02*
X95335000Y-89446263D01*
X106044999Y-76489999D02*
X106694999Y-76489999D01*
X106044999Y-76489999D02*
X105394999Y-76489999D01*
X106044999Y-73369999D02*
X107719999Y-73369999D01*
X106044999Y-73369999D02*
X105394999Y-73369999D01*
X93891265Y-95165001D02*
X95338739Y-95165001D01*
X93891265Y-97875001D02*
X95338739Y-97875001D01*
X114388736Y-77554999D02*
X112941262Y-77554999D01*
X114388736Y-74844999D02*
X112941262Y-74844999D01*
X97280000Y-105735000D02*
X95820000Y-105735000D01*
X97280000Y-105735000D02*
X97280000Y-106665000D01*
X97280000Y-108895000D02*
X94120000Y-108895000D01*
X97280000Y-108895000D02*
X97280000Y-107965000D01*
X97280001Y-75889999D02*
X95820001Y-75889999D01*
X97280001Y-75889999D02*
X97280001Y-76819999D01*
X97280001Y-79049999D02*
X94120001Y-79049999D01*
X97280001Y-79049999D02*
X97280001Y-78119999D01*
X111000001Y-96829999D02*
X112460001Y-96829999D01*
X111000001Y-96829999D02*
X111000001Y-95899999D01*
X111000001Y-93669999D02*
X114160001Y-93669999D01*
X111000001Y-93669999D02*
X111000001Y-94599999D01*
X102780000Y-83261252D02*
X102780000Y-81838748D01*
X105500000Y-83261252D02*
X105500000Y-81838748D01*
X97243737Y-83905001D02*
X95796263Y-83905001D01*
X97243737Y-81195001D02*
X95796263Y-81195001D01*
X102745001Y-69524999D02*
X104205001Y-69524999D01*
X102745001Y-69524999D02*
X102745001Y-68594999D01*
X102745001Y-66364999D02*
X105905001Y-66364999D01*
X102745001Y-66364999D02*
X102745001Y-67294999D01*
%LPC*%
D14*
X88900000Y-81280000D03*
D15*
X88899999Y-78739999D03*
X88899999Y-76199999D03*
X88899999Y-73659999D03*
X88899999Y-71119999D03*
X88899999Y-68579999D03*
D16*
X119380000Y-114160000D03*
X117682944Y-113457056D03*
X121077056Y-113457056D03*
X116980000Y-111760000D03*
D17*
X119380000Y-111760000D03*
D16*
X121780000Y-111760000D03*
X117682944Y-110062944D03*
X121077056Y-110062944D03*
X119380000Y-109360000D03*
X88900000Y-114160000D03*
X87202944Y-113457056D03*
X90597056Y-113457056D03*
X86500000Y-111760000D03*
D17*
X88900000Y-111760000D03*
D16*
X91300000Y-111760000D03*
X87202944Y-110062944D03*
X90597056Y-110062944D03*
X88900000Y-109360000D03*
X88900000Y-63360000D03*
X87202944Y-62657056D03*
X90597056Y-62657056D03*
X86500000Y-60960000D03*
D17*
X88900000Y-60960000D03*
D16*
X91300000Y-60960000D03*
X87202944Y-59262944D03*
X90597056Y-59262944D03*
X88900000Y-58560000D03*
X119380000Y-63360000D03*
X117682944Y-62657056D03*
X121077056Y-62657056D03*
X116980000Y-60960000D03*
D17*
X119380000Y-60960000D03*
D16*
X121780000Y-60960000D03*
X117682944Y-59262944D03*
X121077056Y-59262944D03*
X119380000Y-58560000D03*
D18*
X119380000Y-91440000D03*
D15*
X119379999Y-93979999D03*
X119379999Y-96519999D03*
X119379999Y-99059999D03*
X119379999Y-101599999D03*
X119379999Y-104139999D03*
D19*
X103275000Y-105725001D03*
X103275000Y-103825001D03*
X106275000Y-104775001D03*
D20*
X99060001Y-88607504D03*
X99060001Y-91732504D03*
D21*
X93052504Y-101600002D03*
X96177504Y-101600002D03*
D22*
X113260000Y-64455000D03*
X113260000Y-66355000D03*
X110260000Y-65405000D03*
D14*
X88900000Y-91440000D03*
D15*
X88899999Y-93979999D03*
X88899999Y-96519999D03*
X88899999Y-99059999D03*
X88899999Y-101599999D03*
X88899999Y-104139999D03*
D19*
X95020001Y-72704999D03*
X95020001Y-70804999D03*
X98020001Y-71754999D03*
D23*
X109220001Y-84112501D03*
X109220001Y-80987501D03*
X112395001Y-108242500D03*
X112395001Y-105117500D03*
D20*
X95885001Y-64477501D03*
X95885001Y-67602501D03*
D22*
X113260005Y-100015001D03*
X113260005Y-101915001D03*
X110260005Y-100965001D03*
D24*
X101297501Y-98740003D03*
X101297501Y-96840003D03*
X103172501Y-97790003D03*
D25*
X110210002Y-90170000D03*
X113310002Y-90170000D03*
D26*
X115227501Y-71120001D03*
X112102501Y-71120001D03*
D27*
X114300000Y-81000000D03*
X114300000Y-84100000D03*
D20*
X104139999Y-88607501D03*
X104139999Y-91732501D03*
D18*
X119380000Y-81280000D03*
D15*
X119379999Y-78739999D03*
X119379999Y-76199999D03*
X119379999Y-73659999D03*
X119379999Y-71119999D03*
X119379999Y-68579999D03*
D28*
X93980000Y-91720000D03*
X93980000Y-88620000D03*
D29*
X106982499Y-73979999D03*
X106982499Y-75879999D03*
X105107499Y-74929999D03*
D25*
X93065002Y-96520001D03*
X96165002Y-96520001D03*
D30*
X115214999Y-76199999D03*
X112114999Y-76199999D03*
D19*
X95020000Y-108265000D03*
X95020000Y-106365000D03*
X98020000Y-107315000D03*
X95020001Y-78419999D03*
X95020001Y-76519999D03*
X98020001Y-77469999D03*
D22*
X113260001Y-94299999D03*
X113260001Y-96199999D03*
X110260001Y-95249999D03*
D23*
X104140000Y-84112500D03*
X104140000Y-80987500D03*
D30*
X98070000Y-82550001D03*
X94970000Y-82550001D03*
D22*
X105005001Y-66994999D03*
X105005001Y-68894999D03*
X102005001Y-67944999D03*
M02*
