G04 #@! TF.GenerationSoftware,KiCad,Pcbnew,(6.0.9)*
G04 #@! TF.CreationDate,2022-11-27T19:58:19+01:00*
G04 #@! TF.ProjectId,SPI2WS2812,53504932-5753-4323-9831-322e6b696361,rev?*
G04 #@! TF.SameCoordinates,Original*
G04 #@! TF.FileFunction,Paste,Bot*
G04 #@! TF.FilePolarity,Positive*
%FSLAX46Y46*%
G04 Gerber Fmt 4.6, Leading zero omitted, Abs format (unit mm)*
G04 Created by KiCad (PCBNEW (6.0.9)) date 2022-11-27 19:58:19*
%MOMM*%
%LPD*%
G01*
G04 APERTURE LIST*
G04 Aperture macros list*
%AMRoundRect*
0 Rectangle with rounded corners*
0 $1 Rounding radius*
0 $2 $3 $4 $5 $6 $7 $8 $9 X,Y pos of 4 corners*
0 Add a 4 corners polygon primitive as box body*
4,1,4,$2,$3,$4,$5,$6,$7,$8,$9,$2,$3,0*
0 Add four circle primitives for the rounded corners*
1,1,$1+$1,$2,$3*
1,1,$1+$1,$4,$5*
1,1,$1+$1,$6,$7*
1,1,$1+$1,$8,$9*
0 Add four rect primitives between the rounded corners*
20,1,$1+$1,$2,$3,$4,$5,0*
20,1,$1+$1,$4,$5,$6,$7,0*
20,1,$1+$1,$6,$7,$8,$9,0*
20,1,$1+$1,$8,$9,$2,$3,0*%
G04 Aperture macros list end*
%ADD10R,1.900000X0.800000*%
%ADD11RoundRect,0.250000X0.400000X1.075000X-0.400000X1.075000X-0.400000X-1.075000X0.400000X-1.075000X0*%
%ADD12RoundRect,0.250000X-1.075000X0.400000X-1.075000X-0.400000X1.075000X-0.400000X1.075000X0.400000X0*%
%ADD13RoundRect,0.250000X-0.400000X-1.075000X0.400000X-1.075000X0.400000X1.075000X-0.400000X1.075000X0*%
%ADD14RoundRect,0.250000X1.075000X-0.400000X1.075000X0.400000X-1.075000X0.400000X-1.075000X-0.400000X0*%
%ADD15RoundRect,0.150000X0.587500X0.150000X-0.587500X0.150000X-0.587500X-0.150000X0.587500X-0.150000X0*%
%ADD16RoundRect,0.150000X-0.587500X-0.150000X0.587500X-0.150000X0.587500X0.150000X-0.587500X0.150000X0*%
%ADD17RoundRect,0.250000X1.100000X-0.412500X1.100000X0.412500X-1.100000X0.412500X-1.100000X-0.412500X0*%
%ADD18RoundRect,0.250000X-1.100000X0.412500X-1.100000X-0.412500X1.100000X-0.412500X1.100000X0.412500X0*%
%ADD19RoundRect,0.250000X0.412500X1.100000X-0.412500X1.100000X-0.412500X-1.100000X0.412500X-1.100000X0*%
%ADD20RoundRect,0.250000X-0.412500X-1.100000X0.412500X-1.100000X0.412500X1.100000X-0.412500X1.100000X0*%
G04 APERTURE END LIST*
D10*
X98020001Y-71754999D03*
X95020001Y-70804999D03*
X95020001Y-72704999D03*
X98020001Y-77469999D03*
X95020001Y-76519999D03*
X95020001Y-78419999D03*
X102005001Y-67944999D03*
X105005001Y-68894999D03*
X105005001Y-66994999D03*
X110260000Y-65405000D03*
X113260000Y-66355000D03*
X113260000Y-64455000D03*
X113260005Y-100015001D03*
X113260005Y-101915001D03*
X110260005Y-100965001D03*
X113260001Y-94299999D03*
X113260001Y-96199999D03*
X110260001Y-95249999D03*
X103275000Y-105725001D03*
X103275000Y-103825001D03*
X106275000Y-104775001D03*
X95020000Y-108265000D03*
X95020000Y-106365000D03*
X98020000Y-107315000D03*
D11*
X94970000Y-82550001D03*
X98070000Y-82550001D03*
D12*
X114300000Y-84100000D03*
X114300000Y-81000000D03*
D11*
X112114999Y-76199999D03*
X115214999Y-76199999D03*
D13*
X110210002Y-90170000D03*
X113310002Y-90170000D03*
D14*
X93980000Y-91720000D03*
X93980000Y-88620000D03*
D13*
X93065002Y-96520001D03*
X96165002Y-96520001D03*
D15*
X105107499Y-74929999D03*
X106982499Y-75879999D03*
X106982499Y-73979999D03*
D16*
X101297501Y-98740003D03*
X101297501Y-96840003D03*
X103172501Y-97790003D03*
D17*
X109220001Y-80987501D03*
X109220001Y-84112501D03*
X104140000Y-80987500D03*
X104140000Y-84112500D03*
D18*
X95885001Y-67602501D03*
X95885001Y-64477501D03*
D19*
X112102501Y-71120001D03*
X115227501Y-71120001D03*
D18*
X99060001Y-88607504D03*
X99060001Y-91732504D03*
X104139999Y-88607501D03*
X104139999Y-91732501D03*
D17*
X112395001Y-108242500D03*
X112395001Y-105117500D03*
D20*
X93052504Y-101600002D03*
X96177504Y-101600002D03*
M02*
