%TF.GenerationSoftware,KiCad,Pcbnew,7.0.3-24-g09febce4ce*%
%TF.CreationDate,2023-05-23T12:19:05+02:00*%
%TF.ProjectId,SPI2WS2812,53504932-5753-4323-9831-322e6b696361,rev?*%
%TF.SameCoordinates,Original*%
%TF.FileFunction,Drillmap*%
%TF.FilePolarity,Positive*%
%FSLAX45Y45*%
G04 Gerber Fmt 4.5, Leading zero omitted, Abs format (unit mm)*
G04 Created by KiCad (PCBNEW 7.0.3-24-g09febce4ce) date 2023-05-23 12:19:05*
%MOMM*%
%LPD*%
G01*
G04 APERTURE LIST*
%ADD10C,0.100000*%
%ADD11C,0.200000*%
G04 APERTURE END LIST*
D10*
X8890000Y-5588000D02*
X11938000Y-5588000D01*
X8382000Y-11176000D02*
G75*
G03*
X8890000Y-11684000I508000J0D01*
G01*
X8382000Y-11176000D02*
X8382000Y-6096000D01*
X8890000Y-5588000D02*
G75*
G03*
X8382000Y-6096000I0J-508000D01*
G01*
X11938000Y-11684000D02*
X8890000Y-11684000D01*
X11938000Y-11684000D02*
G75*
G03*
X12446000Y-11176000I0J508000D01*
G01*
X12446000Y-6096000D02*
G75*
G03*
X11938000Y-5588000I-508000J0D01*
G01*
X12446000Y-6096000D02*
X12446000Y-11176000D01*
D11*
X8637777Y-12000484D02*
X8637777Y-11800484D01*
X8637777Y-11800484D02*
X8685396Y-11800484D01*
X8685396Y-11800484D02*
X8713967Y-11810008D01*
X8713967Y-11810008D02*
X8733015Y-11829055D01*
X8733015Y-11829055D02*
X8742539Y-11848103D01*
X8742539Y-11848103D02*
X8752063Y-11886198D01*
X8752063Y-11886198D02*
X8752063Y-11914769D01*
X8752063Y-11914769D02*
X8742539Y-11952865D01*
X8742539Y-11952865D02*
X8733015Y-11971912D01*
X8733015Y-11971912D02*
X8713967Y-11990960D01*
X8713967Y-11990960D02*
X8685396Y-12000484D01*
X8685396Y-12000484D02*
X8637777Y-12000484D01*
X8837777Y-12000484D02*
X8837777Y-11867150D01*
X8837777Y-11905246D02*
X8847301Y-11886198D01*
X8847301Y-11886198D02*
X8856824Y-11876674D01*
X8856824Y-11876674D02*
X8875872Y-11867150D01*
X8875872Y-11867150D02*
X8894920Y-11867150D01*
X8961586Y-12000484D02*
X8961586Y-11867150D01*
X8961586Y-11800484D02*
X8952063Y-11810008D01*
X8952063Y-11810008D02*
X8961586Y-11819531D01*
X8961586Y-11819531D02*
X8971110Y-11810008D01*
X8971110Y-11810008D02*
X8961586Y-11800484D01*
X8961586Y-11800484D02*
X8961586Y-11819531D01*
X9085396Y-12000484D02*
X9066348Y-11990960D01*
X9066348Y-11990960D02*
X9056824Y-11971912D01*
X9056824Y-11971912D02*
X9056824Y-11800484D01*
X9190158Y-12000484D02*
X9171110Y-11990960D01*
X9171110Y-11990960D02*
X9161586Y-11971912D01*
X9161586Y-11971912D02*
X9161586Y-11800484D01*
X9418729Y-12000484D02*
X9418729Y-11800484D01*
X9418729Y-11800484D02*
X9485396Y-11943341D01*
X9485396Y-11943341D02*
X9552063Y-11800484D01*
X9552063Y-11800484D02*
X9552063Y-12000484D01*
X9733015Y-12000484D02*
X9733015Y-11895722D01*
X9733015Y-11895722D02*
X9723491Y-11876674D01*
X9723491Y-11876674D02*
X9704444Y-11867150D01*
X9704444Y-11867150D02*
X9666348Y-11867150D01*
X9666348Y-11867150D02*
X9647301Y-11876674D01*
X9733015Y-11990960D02*
X9713967Y-12000484D01*
X9713967Y-12000484D02*
X9666348Y-12000484D01*
X9666348Y-12000484D02*
X9647301Y-11990960D01*
X9647301Y-11990960D02*
X9637777Y-11971912D01*
X9637777Y-11971912D02*
X9637777Y-11952865D01*
X9637777Y-11952865D02*
X9647301Y-11933817D01*
X9647301Y-11933817D02*
X9666348Y-11924293D01*
X9666348Y-11924293D02*
X9713967Y-11924293D01*
X9713967Y-11924293D02*
X9733015Y-11914769D01*
X9828253Y-11867150D02*
X9828253Y-12067150D01*
X9828253Y-11876674D02*
X9847301Y-11867150D01*
X9847301Y-11867150D02*
X9885396Y-11867150D01*
X9885396Y-11867150D02*
X9904444Y-11876674D01*
X9904444Y-11876674D02*
X9913967Y-11886198D01*
X9913967Y-11886198D02*
X9923491Y-11905246D01*
X9923491Y-11905246D02*
X9923491Y-11962388D01*
X9923491Y-11962388D02*
X9913967Y-11981436D01*
X9913967Y-11981436D02*
X9904444Y-11990960D01*
X9904444Y-11990960D02*
X9885396Y-12000484D01*
X9885396Y-12000484D02*
X9847301Y-12000484D01*
X9847301Y-12000484D02*
X9828253Y-11990960D01*
X10009205Y-11981436D02*
X10018729Y-11990960D01*
X10018729Y-11990960D02*
X10009205Y-12000484D01*
X10009205Y-12000484D02*
X9999682Y-11990960D01*
X9999682Y-11990960D02*
X10009205Y-11981436D01*
X10009205Y-11981436D02*
X10009205Y-12000484D01*
X10009205Y-11876674D02*
X10018729Y-11886198D01*
X10018729Y-11886198D02*
X10009205Y-11895722D01*
X10009205Y-11895722D02*
X9999682Y-11886198D01*
X9999682Y-11886198D02*
X10009205Y-11876674D01*
X10009205Y-11876674D02*
X10009205Y-11895722D01*
M02*
