G04 #@! TF.GenerationSoftware,KiCad,Pcbnew,(6.0.9)*
G04 #@! TF.CreationDate,2022-11-27T21:58:06+01:00*
G04 #@! TF.ProjectId,SPI2WS2812,53504932-5753-4323-9831-322e6b696361,rev?*
G04 #@! TF.SameCoordinates,Original*
G04 #@! TF.FileFunction,Legend,Bot*
G04 #@! TF.FilePolarity,Positive*
%FSLAX46Y46*%
G04 Gerber Fmt 4.6, Leading zero omitted, Abs format (unit mm)*
G04 Created by KiCad (PCBNEW (6.0.9)) date 2022-11-27 21:58:06*
%MOMM*%
%LPD*%
G01*
G04 APERTURE LIST*
G04 Aperture macros list*
%AMRoundRect*
0 Rectangle with rounded corners*
0 $1 Rounding radius*
0 $2 $3 $4 $5 $6 $7 $8 $9 X,Y pos of 4 corners*
0 Add a 4 corners polygon primitive as box body*
4,1,4,$2,$3,$4,$5,$6,$7,$8,$9,$2,$3,0*
0 Add four circle primitives for the rounded corners*
1,1,$1+$1,$2,$3*
1,1,$1+$1,$4,$5*
1,1,$1+$1,$6,$7*
1,1,$1+$1,$8,$9*
0 Add four rect primitives between the rounded corners*
20,1,$1+$1,$2,$3,$4,$5,0*
20,1,$1+$1,$4,$5,$6,$7,0*
20,1,$1+$1,$6,$7,$8,$9,0*
20,1,$1+$1,$8,$9,$2,$3,0*%
G04 Aperture macros list end*
%ADD10C,0.150000*%
%ADD11C,0.300000*%
%ADD12C,0.750000*%
%ADD13C,0.120000*%
%ADD14R,1.700000X1.700000*%
%ADD15O,1.700000X1.700000*%
%ADD16C,0.800000*%
%ADD17C,6.400000*%
%ADD18R,1.900000X0.800000*%
%ADD19RoundRect,0.250000X-1.100000X0.412500X-1.100000X-0.412500X1.100000X-0.412500X1.100000X0.412500X0*%
%ADD20RoundRect,0.250000X-0.412500X-1.100000X0.412500X-1.100000X0.412500X1.100000X-0.412500X1.100000X0*%
%ADD21RoundRect,0.250000X1.100000X-0.412500X1.100000X0.412500X-1.100000X0.412500X-1.100000X-0.412500X0*%
%ADD22RoundRect,0.150000X-0.587500X-0.150000X0.587500X-0.150000X0.587500X0.150000X-0.587500X0.150000X0*%
%ADD23RoundRect,0.250000X-0.400000X-1.075000X0.400000X-1.075000X0.400000X1.075000X-0.400000X1.075000X0*%
%ADD24RoundRect,0.250000X0.412500X1.100000X-0.412500X1.100000X-0.412500X-1.100000X0.412500X-1.100000X0*%
%ADD25RoundRect,0.250000X-1.075000X0.400000X-1.075000X-0.400000X1.075000X-0.400000X1.075000X0.400000X0*%
%ADD26RoundRect,0.250000X1.075000X-0.400000X1.075000X0.400000X-1.075000X0.400000X-1.075000X-0.400000X0*%
%ADD27RoundRect,0.150000X0.587500X0.150000X-0.587500X0.150000X-0.587500X-0.150000X0.587500X-0.150000X0*%
%ADD28RoundRect,0.250000X0.400000X1.075000X-0.400000X1.075000X-0.400000X-1.075000X0.400000X-1.075000X0*%
G04 APERTURE END LIST*
D10*
X122031190Y-96115238D02*
X122174047Y-96067619D01*
X122412142Y-96067619D01*
X122507380Y-96115238D01*
X122555000Y-96162857D01*
X122602619Y-96258095D01*
X122602619Y-96353333D01*
X122555000Y-96448571D01*
X122507380Y-96496190D01*
X122412142Y-96543809D01*
X122221666Y-96591428D01*
X122126428Y-96639047D01*
X122078809Y-96686666D01*
X122031190Y-96781904D01*
X122031190Y-96877142D01*
X122078809Y-96972380D01*
X122126428Y-97020000D01*
X122221666Y-97067619D01*
X122459761Y-97067619D01*
X122602619Y-97020000D01*
X123031190Y-96067619D02*
X123031190Y-97067619D01*
X121578809Y-102430000D02*
X122483571Y-102430000D01*
X121816904Y-101671428D02*
X122150238Y-101671428D01*
X122293095Y-101147619D02*
X121816904Y-101147619D01*
X121816904Y-102147619D01*
X122293095Y-102147619D01*
X122483571Y-102430000D02*
X123531190Y-102430000D01*
X122721666Y-101147619D02*
X122721666Y-102147619D01*
X123293095Y-101147619D01*
X123293095Y-102147619D01*
X121269285Y-98655238D02*
X121412142Y-98607619D01*
X121650238Y-98607619D01*
X121745476Y-98655238D01*
X121793095Y-98702857D01*
X121840714Y-98798095D01*
X121840714Y-98893333D01*
X121793095Y-98988571D01*
X121745476Y-99036190D01*
X121650238Y-99083809D01*
X121459761Y-99131428D01*
X121364523Y-99179047D01*
X121316904Y-99226666D01*
X121269285Y-99321904D01*
X121269285Y-99417142D01*
X121316904Y-99512380D01*
X121364523Y-99560000D01*
X121459761Y-99607619D01*
X121697857Y-99607619D01*
X121840714Y-99560000D01*
X122840714Y-98702857D02*
X122793095Y-98655238D01*
X122650238Y-98607619D01*
X122555000Y-98607619D01*
X122412142Y-98655238D01*
X122316904Y-98750476D01*
X122269285Y-98845714D01*
X122221666Y-99036190D01*
X122221666Y-99179047D01*
X122269285Y-99369523D01*
X122316904Y-99464761D01*
X122412142Y-99560000D01*
X122555000Y-99607619D01*
X122650238Y-99607619D01*
X122793095Y-99560000D01*
X122840714Y-99512380D01*
X123269285Y-98607619D02*
X123269285Y-99607619D01*
X123840714Y-98607619D02*
X123412142Y-99179047D01*
X123840714Y-99607619D02*
X123269285Y-99036190D01*
X121769285Y-93527619D02*
X121769285Y-94527619D01*
X122007380Y-94527619D01*
X122150238Y-94480000D01*
X122245476Y-94384761D01*
X122293095Y-94289523D01*
X122340714Y-94099047D01*
X122340714Y-93956190D01*
X122293095Y-93765714D01*
X122245476Y-93670476D01*
X122150238Y-93575238D01*
X122007380Y-93527619D01*
X121769285Y-93527619D01*
X122959761Y-94527619D02*
X123150238Y-94527619D01*
X123245476Y-94480000D01*
X123340714Y-94384761D01*
X123388333Y-94194285D01*
X123388333Y-93860952D01*
X123340714Y-93670476D01*
X123245476Y-93575238D01*
X123150238Y-93527619D01*
X122959761Y-93527619D01*
X122864523Y-93575238D01*
X122769285Y-93670476D01*
X122721666Y-93860952D01*
X122721666Y-94194285D01*
X122769285Y-94384761D01*
X122864523Y-94480000D01*
X122959761Y-94527619D01*
X122935952Y-91511428D02*
X122174047Y-91511428D01*
X122555000Y-91892380D02*
X122555000Y-91130476D01*
X87010714Y-74064761D02*
X86867857Y-74112380D01*
X86629761Y-74112380D01*
X86534523Y-74064761D01*
X86486904Y-74017142D01*
X86439285Y-73921904D01*
X86439285Y-73826666D01*
X86486904Y-73731428D01*
X86534523Y-73683809D01*
X86629761Y-73636190D01*
X86820238Y-73588571D01*
X86915476Y-73540952D01*
X86963095Y-73493333D01*
X87010714Y-73398095D01*
X87010714Y-73302857D01*
X86963095Y-73207619D01*
X86915476Y-73160000D01*
X86820238Y-73112380D01*
X86582142Y-73112380D01*
X86439285Y-73160000D01*
X85439285Y-74017142D02*
X85486904Y-74064761D01*
X85629761Y-74112380D01*
X85725000Y-74112380D01*
X85867857Y-74064761D01*
X85963095Y-73969523D01*
X86010714Y-73874285D01*
X86058333Y-73683809D01*
X86058333Y-73540952D01*
X86010714Y-73350476D01*
X85963095Y-73255238D01*
X85867857Y-73160000D01*
X85725000Y-73112380D01*
X85629761Y-73112380D01*
X85486904Y-73160000D01*
X85439285Y-73207619D01*
X85010714Y-74112380D02*
X85010714Y-73112380D01*
X84439285Y-74112380D02*
X84867857Y-73540952D01*
X84439285Y-73112380D02*
X85010714Y-73683809D01*
X86701190Y-70290000D02*
X85796428Y-70290000D01*
X86463095Y-71048571D02*
X86129761Y-71048571D01*
X85986904Y-71572380D02*
X86463095Y-71572380D01*
X86463095Y-70572380D01*
X85986904Y-70572380D01*
X85796428Y-70290000D02*
X84748809Y-70290000D01*
X85558333Y-71572380D02*
X85558333Y-70572380D01*
X84986904Y-71572380D01*
X84986904Y-70572380D01*
X86105952Y-81351428D02*
X85344047Y-81351428D01*
X85725000Y-81732380D02*
X85725000Y-80970476D01*
X86510714Y-79192380D02*
X86510714Y-78192380D01*
X86272619Y-78192380D01*
X86129761Y-78240000D01*
X86034523Y-78335238D01*
X85986904Y-78430476D01*
X85939285Y-78620952D01*
X85939285Y-78763809D01*
X85986904Y-78954285D01*
X86034523Y-79049523D01*
X86129761Y-79144761D01*
X86272619Y-79192380D01*
X86510714Y-79192380D01*
X85320238Y-78192380D02*
X85129761Y-78192380D01*
X85034523Y-78240000D01*
X84939285Y-78335238D01*
X84891666Y-78525714D01*
X84891666Y-78859047D01*
X84939285Y-79049523D01*
X85034523Y-79144761D01*
X85129761Y-79192380D01*
X85320238Y-79192380D01*
X85415476Y-79144761D01*
X85510714Y-79049523D01*
X85558333Y-78859047D01*
X85558333Y-78525714D01*
X85510714Y-78335238D01*
X85415476Y-78240000D01*
X85320238Y-78192380D01*
X86248809Y-76604761D02*
X86105952Y-76652380D01*
X85867857Y-76652380D01*
X85772619Y-76604761D01*
X85725000Y-76557142D01*
X85677380Y-76461904D01*
X85677380Y-76366666D01*
X85725000Y-76271428D01*
X85772619Y-76223809D01*
X85867857Y-76176190D01*
X86058333Y-76128571D01*
X86153571Y-76080952D01*
X86201190Y-76033333D01*
X86248809Y-75938095D01*
X86248809Y-75842857D01*
X86201190Y-75747619D01*
X86153571Y-75700000D01*
X86058333Y-75652380D01*
X85820238Y-75652380D01*
X85677380Y-75700000D01*
X85248809Y-76652380D02*
X85248809Y-75652380D01*
D11*
X116840000Y-86360000D02*
X116840000Y-107950000D01*
X91440000Y-86360000D02*
X91440000Y-64770000D01*
X93980000Y-56515000D02*
X93980000Y-61595000D01*
X116840000Y-107950000D02*
X114300000Y-111125000D01*
X93980000Y-61595000D02*
X91440000Y-64770000D01*
D10*
X119380000Y-66675000D02*
X119380000Y-64770000D01*
X88900000Y-106045000D02*
X88900000Y-107950000D01*
D11*
X114300000Y-111125000D02*
X114300000Y-116205000D01*
X84455000Y-86360000D02*
X123825000Y-86360000D01*
D10*
X84439285Y-98655238D02*
X84582142Y-98607619D01*
X84820238Y-98607619D01*
X84915476Y-98655238D01*
X84963095Y-98702857D01*
X85010714Y-98798095D01*
X85010714Y-98893333D01*
X84963095Y-98988571D01*
X84915476Y-99036190D01*
X84820238Y-99083809D01*
X84629761Y-99131428D01*
X84534523Y-99179047D01*
X84486904Y-99226666D01*
X84439285Y-99321904D01*
X84439285Y-99417142D01*
X84486904Y-99512380D01*
X84534523Y-99560000D01*
X84629761Y-99607619D01*
X84867857Y-99607619D01*
X85010714Y-99560000D01*
X86010714Y-98702857D02*
X85963095Y-98655238D01*
X85820238Y-98607619D01*
X85725000Y-98607619D01*
X85582142Y-98655238D01*
X85486904Y-98750476D01*
X85439285Y-98845714D01*
X85391666Y-99036190D01*
X85391666Y-99179047D01*
X85439285Y-99369523D01*
X85486904Y-99464761D01*
X85582142Y-99560000D01*
X85725000Y-99607619D01*
X85820238Y-99607619D01*
X85963095Y-99560000D01*
X86010714Y-99512380D01*
X86439285Y-98607619D02*
X86439285Y-99607619D01*
X87010714Y-98607619D02*
X86582142Y-99179047D01*
X87010714Y-99607619D02*
X86439285Y-99036190D01*
D12*
X97091428Y-113672857D02*
X97091428Y-111672857D01*
X96377142Y-114815714D02*
X95662857Y-112672857D01*
X97520000Y-112672857D01*
X112760000Y-58047142D02*
X110902857Y-58047142D01*
X111902857Y-59190000D01*
X111474285Y-59190000D01*
X111188571Y-59332857D01*
X111045714Y-59475714D01*
X110902857Y-59761428D01*
X110902857Y-60475714D01*
X111045714Y-60761428D01*
X111188571Y-60904285D01*
X111474285Y-61047142D01*
X112331428Y-61047142D01*
X112617142Y-60904285D01*
X112760000Y-60761428D01*
D10*
X123840714Y-74064761D02*
X123697857Y-74112380D01*
X123459761Y-74112380D01*
X123364523Y-74064761D01*
X123316904Y-74017142D01*
X123269285Y-73921904D01*
X123269285Y-73826666D01*
X123316904Y-73731428D01*
X123364523Y-73683809D01*
X123459761Y-73636190D01*
X123650238Y-73588571D01*
X123745476Y-73540952D01*
X123793095Y-73493333D01*
X123840714Y-73398095D01*
X123840714Y-73302857D01*
X123793095Y-73207619D01*
X123745476Y-73160000D01*
X123650238Y-73112380D01*
X123412142Y-73112380D01*
X123269285Y-73160000D01*
X122269285Y-74017142D02*
X122316904Y-74064761D01*
X122459761Y-74112380D01*
X122555000Y-74112380D01*
X122697857Y-74064761D01*
X122793095Y-73969523D01*
X122840714Y-73874285D01*
X122888333Y-73683809D01*
X122888333Y-73540952D01*
X122840714Y-73350476D01*
X122793095Y-73255238D01*
X122697857Y-73160000D01*
X122555000Y-73112380D01*
X122459761Y-73112380D01*
X122316904Y-73160000D01*
X122269285Y-73207619D01*
X121840714Y-74112380D02*
X121840714Y-73112380D01*
X121269285Y-74112380D02*
X121697857Y-73540952D01*
X121269285Y-73112380D02*
X121840714Y-73683809D01*
X122935952Y-81351428D02*
X122174047Y-81351428D01*
X122555000Y-81732380D02*
X122555000Y-80970476D01*
X86105952Y-91511428D02*
X85344047Y-91511428D01*
X85725000Y-91892380D02*
X85725000Y-91130476D01*
X85201190Y-96115238D02*
X85344047Y-96067619D01*
X85582142Y-96067619D01*
X85677380Y-96115238D01*
X85725000Y-96162857D01*
X85772619Y-96258095D01*
X85772619Y-96353333D01*
X85725000Y-96448571D01*
X85677380Y-96496190D01*
X85582142Y-96543809D01*
X85391666Y-96591428D01*
X85296428Y-96639047D01*
X85248809Y-96686666D01*
X85201190Y-96781904D01*
X85201190Y-96877142D01*
X85248809Y-96972380D01*
X85296428Y-97020000D01*
X85391666Y-97067619D01*
X85629761Y-97067619D01*
X85772619Y-97020000D01*
X86201190Y-96067619D02*
X86201190Y-97067619D01*
X84748809Y-102430000D02*
X85653571Y-102430000D01*
X84986904Y-101671428D02*
X85320238Y-101671428D01*
X85463095Y-101147619D02*
X84986904Y-101147619D01*
X84986904Y-102147619D01*
X85463095Y-102147619D01*
X85653571Y-102430000D02*
X86701190Y-102430000D01*
X85891666Y-101147619D02*
X85891666Y-102147619D01*
X86463095Y-101147619D01*
X86463095Y-102147619D01*
X123531190Y-70290000D02*
X122626428Y-70290000D01*
X123293095Y-71048571D02*
X122959761Y-71048571D01*
X122816904Y-71572380D02*
X123293095Y-71572380D01*
X123293095Y-70572380D01*
X122816904Y-70572380D01*
X122626428Y-70290000D02*
X121578809Y-70290000D01*
X122388333Y-71572380D02*
X122388333Y-70572380D01*
X121816904Y-71572380D01*
X121816904Y-70572380D01*
X123340714Y-79192380D02*
X123340714Y-78192380D01*
X123102619Y-78192380D01*
X122959761Y-78240000D01*
X122864523Y-78335238D01*
X122816904Y-78430476D01*
X122769285Y-78620952D01*
X122769285Y-78763809D01*
X122816904Y-78954285D01*
X122864523Y-79049523D01*
X122959761Y-79144761D01*
X123102619Y-79192380D01*
X123340714Y-79192380D01*
X122150238Y-78192380D02*
X121959761Y-78192380D01*
X121864523Y-78240000D01*
X121769285Y-78335238D01*
X121721666Y-78525714D01*
X121721666Y-78859047D01*
X121769285Y-79049523D01*
X121864523Y-79144761D01*
X121959761Y-79192380D01*
X122150238Y-79192380D01*
X122245476Y-79144761D01*
X122340714Y-79049523D01*
X122388333Y-78859047D01*
X122388333Y-78525714D01*
X122340714Y-78335238D01*
X122245476Y-78240000D01*
X122150238Y-78192380D01*
X123078809Y-76604761D02*
X122935952Y-76652380D01*
X122697857Y-76652380D01*
X122602619Y-76604761D01*
X122555000Y-76557142D01*
X122507380Y-76461904D01*
X122507380Y-76366666D01*
X122555000Y-76271428D01*
X122602619Y-76223809D01*
X122697857Y-76176190D01*
X122888333Y-76128571D01*
X122983571Y-76080952D01*
X123031190Y-76033333D01*
X123078809Y-75938095D01*
X123078809Y-75842857D01*
X123031190Y-75747619D01*
X122983571Y-75700000D01*
X122888333Y-75652380D01*
X122650238Y-75652380D01*
X122507380Y-75700000D01*
X122078809Y-76652380D02*
X122078809Y-75652380D01*
X84939285Y-93527619D02*
X84939285Y-94527619D01*
X85177380Y-94527619D01*
X85320238Y-94480000D01*
X85415476Y-94384761D01*
X85463095Y-94289523D01*
X85510714Y-94099047D01*
X85510714Y-93956190D01*
X85463095Y-93765714D01*
X85415476Y-93670476D01*
X85320238Y-93575238D01*
X85177380Y-93527619D01*
X84939285Y-93527619D01*
X86129761Y-94527619D02*
X86320238Y-94527619D01*
X86415476Y-94480000D01*
X86510714Y-94384761D01*
X86558333Y-94194285D01*
X86558333Y-93860952D01*
X86510714Y-93670476D01*
X86415476Y-93575238D01*
X86320238Y-93527619D01*
X86129761Y-93527619D01*
X86034523Y-93575238D01*
X85939285Y-93670476D01*
X85891666Y-93860952D01*
X85891666Y-94194285D01*
X85939285Y-94384761D01*
X86034523Y-94480000D01*
X86129761Y-94527619D01*
X108037380Y-103536905D02*
X108037380Y-104108334D01*
X109037380Y-103822620D02*
X108037380Y-103822620D01*
X109037380Y-104965477D02*
X109037380Y-104394048D01*
X109037380Y-104679762D02*
X108037380Y-104679762D01*
X108180238Y-104584524D01*
X108275476Y-104489286D01*
X108323095Y-104394048D01*
X108037380Y-105584524D02*
X108037380Y-105679762D01*
X108085000Y-105775001D01*
X108132619Y-105822620D01*
X108227857Y-105870239D01*
X108418333Y-105917858D01*
X108656428Y-105917858D01*
X108846904Y-105870239D01*
X108942142Y-105822620D01*
X108989761Y-105775001D01*
X109037380Y-105679762D01*
X109037380Y-105584524D01*
X108989761Y-105489286D01*
X108942142Y-105441667D01*
X108846904Y-105394048D01*
X108656428Y-105346429D01*
X108418333Y-105346429D01*
X108227857Y-105394048D01*
X108132619Y-105441667D01*
X108085000Y-105489286D01*
X108037380Y-105584524D01*
X99702857Y-93702142D02*
X99750476Y-93749761D01*
X99893333Y-93797380D01*
X99988571Y-93797380D01*
X100131428Y-93749761D01*
X100226666Y-93654523D01*
X100274285Y-93559285D01*
X100321904Y-93368809D01*
X100321904Y-93225952D01*
X100274285Y-93035476D01*
X100226666Y-92940238D01*
X100131428Y-92845000D01*
X99988571Y-92797380D01*
X99893333Y-92797380D01*
X99750476Y-92845000D01*
X99702857Y-92892619D01*
X98750476Y-93797380D02*
X99321904Y-93797380D01*
X99036190Y-93797380D02*
X99036190Y-92797380D01*
X99131428Y-92940238D01*
X99226666Y-93035476D01*
X99321904Y-93083095D01*
X98369523Y-92892619D02*
X98321904Y-92845000D01*
X98226666Y-92797380D01*
X97988571Y-92797380D01*
X97893333Y-92845000D01*
X97845714Y-92892619D01*
X97798095Y-92987857D01*
X97798095Y-93083095D01*
X97845714Y-93225952D01*
X98417142Y-93797380D01*
X97798095Y-93797380D01*
X94972146Y-101433335D02*
X95019765Y-101385716D01*
X95067384Y-101242859D01*
X95067384Y-101147621D01*
X95019765Y-101004763D01*
X94924527Y-100909525D01*
X94829289Y-100861906D01*
X94638813Y-100814287D01*
X94495956Y-100814287D01*
X94305480Y-100861906D01*
X94210242Y-100909525D01*
X94115004Y-101004763D01*
X94067384Y-101147621D01*
X94067384Y-101242859D01*
X94115004Y-101385716D01*
X94162623Y-101433335D01*
X95067384Y-101909525D02*
X95067384Y-102100002D01*
X95019765Y-102195240D01*
X94972146Y-102242859D01*
X94829289Y-102338097D01*
X94638813Y-102385716D01*
X94257861Y-102385716D01*
X94162623Y-102338097D01*
X94115004Y-102290478D01*
X94067384Y-102195240D01*
X94067384Y-102004763D01*
X94115004Y-101909525D01*
X94162623Y-101861906D01*
X94257861Y-101814287D01*
X94495956Y-101814287D01*
X94591194Y-101861906D01*
X94638813Y-101909525D01*
X94686432Y-102004763D01*
X94686432Y-102195240D01*
X94638813Y-102290478D01*
X94591194Y-102338097D01*
X94495956Y-102385716D01*
X107402380Y-64166904D02*
X107402380Y-64738333D01*
X108402380Y-64452619D02*
X107402380Y-64452619D01*
X108402380Y-65595476D02*
X108402380Y-65024047D01*
X108402380Y-65309761D02*
X107402380Y-65309761D01*
X107545238Y-65214523D01*
X107640476Y-65119285D01*
X107688095Y-65024047D01*
X107402380Y-65928809D02*
X107402380Y-66547857D01*
X107783333Y-66214523D01*
X107783333Y-66357380D01*
X107830952Y-66452619D01*
X107878571Y-66500238D01*
X107973809Y-66547857D01*
X108211904Y-66547857D01*
X108307142Y-66500238D01*
X108354761Y-66452619D01*
X108402380Y-66357380D01*
X108402380Y-66071666D01*
X108354761Y-65976428D01*
X108307142Y-65928809D01*
X99782381Y-70516903D02*
X99782381Y-71088332D01*
X100782381Y-70802618D02*
X99782381Y-70802618D01*
X100782381Y-71945475D02*
X100782381Y-71374046D01*
X100782381Y-71659760D02*
X99782381Y-71659760D01*
X99925239Y-71564522D01*
X100020477Y-71469284D01*
X100068096Y-71374046D01*
X99782381Y-72802618D02*
X99782381Y-72612141D01*
X99830001Y-72516903D01*
X99877620Y-72469284D01*
X100020477Y-72374046D01*
X100210953Y-72326427D01*
X100591905Y-72326427D01*
X100687143Y-72374046D01*
X100734762Y-72421665D01*
X100782381Y-72516903D01*
X100782381Y-72707379D01*
X100734762Y-72802618D01*
X100687143Y-72850237D01*
X100591905Y-72897856D01*
X100353810Y-72897856D01*
X100258572Y-72850237D01*
X100210953Y-72802618D01*
X100163334Y-72707379D01*
X100163334Y-72516903D01*
X100210953Y-72421665D01*
X100258572Y-72374046D01*
X100353810Y-72326427D01*
X109862858Y-79732142D02*
X109910477Y-79779761D01*
X110053334Y-79827380D01*
X110148572Y-79827380D01*
X110291429Y-79779761D01*
X110386667Y-79684523D01*
X110434286Y-79589285D01*
X110481905Y-79398809D01*
X110481905Y-79255952D01*
X110434286Y-79065476D01*
X110386667Y-78970238D01*
X110291429Y-78875000D01*
X110148572Y-78827380D01*
X110053334Y-78827380D01*
X109910477Y-78875000D01*
X109862858Y-78922619D01*
X108910477Y-79827380D02*
X109481905Y-79827380D01*
X109196191Y-79827380D02*
X109196191Y-78827380D01*
X109291429Y-78970238D01*
X109386667Y-79065476D01*
X109481905Y-79113095D01*
X108053334Y-78827380D02*
X108243810Y-78827380D01*
X108339048Y-78875000D01*
X108386667Y-78922619D01*
X108481905Y-79065476D01*
X108529524Y-79255952D01*
X108529524Y-79636904D01*
X108481905Y-79732142D01*
X108434286Y-79779761D01*
X108339048Y-79827380D01*
X108148572Y-79827380D01*
X108053334Y-79779761D01*
X108005715Y-79732142D01*
X107958096Y-79636904D01*
X107958096Y-79398809D01*
X108005715Y-79303571D01*
X108053334Y-79255952D01*
X108148572Y-79208333D01*
X108339048Y-79208333D01*
X108434286Y-79255952D01*
X108481905Y-79303571D01*
X108529524Y-79398809D01*
X113037858Y-110212142D02*
X113085477Y-110259761D01*
X113228334Y-110307380D01*
X113323572Y-110307380D01*
X113466429Y-110259761D01*
X113561667Y-110164523D01*
X113609286Y-110069285D01*
X113656905Y-109878809D01*
X113656905Y-109735952D01*
X113609286Y-109545476D01*
X113561667Y-109450238D01*
X113466429Y-109355000D01*
X113323572Y-109307380D01*
X113228334Y-109307380D01*
X113085477Y-109355000D01*
X113037858Y-109402619D01*
X112085477Y-110307380D02*
X112656905Y-110307380D01*
X112371191Y-110307380D02*
X112371191Y-109307380D01*
X112466429Y-109450238D01*
X112561667Y-109545476D01*
X112656905Y-109593095D01*
X111466429Y-109307380D02*
X111371191Y-109307380D01*
X111275953Y-109355000D01*
X111228334Y-109402619D01*
X111180715Y-109497857D01*
X111133096Y-109688333D01*
X111133096Y-109926428D01*
X111180715Y-110116904D01*
X111228334Y-110212142D01*
X111275953Y-110259761D01*
X111371191Y-110307380D01*
X111466429Y-110307380D01*
X111561667Y-110259761D01*
X111609286Y-110212142D01*
X111656905Y-110116904D01*
X111704524Y-109926428D01*
X111704524Y-109688333D01*
X111656905Y-109497857D01*
X111609286Y-109402619D01*
X111561667Y-109355000D01*
X111466429Y-109307380D01*
X96527858Y-63222142D02*
X96575477Y-63269761D01*
X96718334Y-63317380D01*
X96813572Y-63317380D01*
X96956429Y-63269761D01*
X97051667Y-63174523D01*
X97099286Y-63079285D01*
X97146905Y-62888809D01*
X97146905Y-62745952D01*
X97099286Y-62555476D01*
X97051667Y-62460238D01*
X96956429Y-62365000D01*
X96813572Y-62317380D01*
X96718334Y-62317380D01*
X96575477Y-62365000D01*
X96527858Y-62412619D01*
X95575477Y-63317380D02*
X96146905Y-63317380D01*
X95861191Y-63317380D02*
X95861191Y-62317380D01*
X95956429Y-62460238D01*
X96051667Y-62555476D01*
X96146905Y-62603095D01*
X94718334Y-62650714D02*
X94718334Y-63317380D01*
X94956429Y-62269761D02*
X95194524Y-62984047D01*
X94575477Y-62984047D01*
X107402385Y-99726905D02*
X107402385Y-100298334D01*
X108402385Y-100012620D02*
X107402385Y-100012620D01*
X108402385Y-101155477D02*
X108402385Y-100584048D01*
X108402385Y-100869762D02*
X107402385Y-100869762D01*
X107545243Y-100774524D01*
X107640481Y-100679286D01*
X107688100Y-100584048D01*
X107497624Y-101536429D02*
X107450005Y-101584048D01*
X107402385Y-101679286D01*
X107402385Y-101917381D01*
X107450005Y-102012620D01*
X107497624Y-102060239D01*
X107592862Y-102107858D01*
X107688100Y-102107858D01*
X107830957Y-102060239D01*
X108402385Y-101488810D01*
X108402385Y-102107858D01*
X102973096Y-95702383D02*
X102973096Y-94702383D01*
X102735001Y-94702383D01*
X102592143Y-94750003D01*
X102496905Y-94845241D01*
X102449286Y-94940479D01*
X102401667Y-95130955D01*
X102401667Y-95273812D01*
X102449286Y-95464288D01*
X102496905Y-95559526D01*
X102592143Y-95654764D01*
X102735001Y-95702383D01*
X102973096Y-95702383D01*
X102068334Y-94702383D02*
X101449286Y-94702383D01*
X101782620Y-95083336D01*
X101639762Y-95083336D01*
X101544524Y-95130955D01*
X101496905Y-95178574D01*
X101449286Y-95273812D01*
X101449286Y-95511907D01*
X101496905Y-95607145D01*
X101544524Y-95654764D01*
X101639762Y-95702383D01*
X101925477Y-95702383D01*
X102020715Y-95654764D01*
X102068334Y-95607145D01*
X112212382Y-90003333D02*
X111736192Y-89670000D01*
X112212382Y-89431904D02*
X111212382Y-89431904D01*
X111212382Y-89812857D01*
X111260002Y-89908095D01*
X111307621Y-89955714D01*
X111402859Y-90003333D01*
X111545716Y-90003333D01*
X111640954Y-89955714D01*
X111688573Y-89908095D01*
X111736192Y-89812857D01*
X111736192Y-89431904D01*
X112212382Y-90479523D02*
X112212382Y-90670000D01*
X112164763Y-90765238D01*
X112117144Y-90812857D01*
X111974287Y-90908095D01*
X111783811Y-90955714D01*
X111402859Y-90955714D01*
X111307621Y-90908095D01*
X111260002Y-90860476D01*
X111212382Y-90765238D01*
X111212382Y-90574761D01*
X111260002Y-90479523D01*
X111307621Y-90431904D01*
X111402859Y-90384285D01*
X111640954Y-90384285D01*
X111736192Y-90431904D01*
X111783811Y-90479523D01*
X111831430Y-90574761D01*
X111831430Y-90765238D01*
X111783811Y-90860476D01*
X111736192Y-90908095D01*
X111640954Y-90955714D01*
X110847142Y-70477142D02*
X110894761Y-70429523D01*
X110942380Y-70286666D01*
X110942380Y-70191428D01*
X110894761Y-70048571D01*
X110799523Y-69953333D01*
X110704285Y-69905714D01*
X110513809Y-69858095D01*
X110370952Y-69858095D01*
X110180476Y-69905714D01*
X110085238Y-69953333D01*
X109990000Y-70048571D01*
X109942380Y-70191428D01*
X109942380Y-70286666D01*
X109990000Y-70429523D01*
X110037619Y-70477142D01*
X110942380Y-71429523D02*
X110942380Y-70858095D01*
X110942380Y-71143809D02*
X109942380Y-71143809D01*
X110085238Y-71048571D01*
X110180476Y-70953333D01*
X110228095Y-70858095D01*
X109942380Y-71762857D02*
X109942380Y-72381904D01*
X110323333Y-72048571D01*
X110323333Y-72191428D01*
X110370952Y-72286666D01*
X110418571Y-72334285D01*
X110513809Y-72381904D01*
X110751904Y-72381904D01*
X110847142Y-72334285D01*
X110894761Y-72286666D01*
X110942380Y-72191428D01*
X110942380Y-71905714D01*
X110894761Y-71810476D01*
X110847142Y-71762857D01*
X114942857Y-79827380D02*
X115276190Y-79351190D01*
X115514285Y-79827380D02*
X115514285Y-78827380D01*
X115133333Y-78827380D01*
X115038095Y-78875000D01*
X114990476Y-78922619D01*
X114942857Y-79017857D01*
X114942857Y-79160714D01*
X114990476Y-79255952D01*
X115038095Y-79303571D01*
X115133333Y-79351190D01*
X115514285Y-79351190D01*
X113990476Y-79827380D02*
X114561904Y-79827380D01*
X114276190Y-79827380D02*
X114276190Y-78827380D01*
X114371428Y-78970238D01*
X114466666Y-79065476D01*
X114561904Y-79113095D01*
X113038095Y-79827380D02*
X113609523Y-79827380D01*
X113323809Y-79827380D02*
X113323809Y-78827380D01*
X113419047Y-78970238D01*
X113514285Y-79065476D01*
X113609523Y-79113095D01*
X104782856Y-93702142D02*
X104830475Y-93749761D01*
X104973332Y-93797380D01*
X105068570Y-93797380D01*
X105211427Y-93749761D01*
X105306665Y-93654523D01*
X105354284Y-93559285D01*
X105401903Y-93368809D01*
X105401903Y-93225952D01*
X105354284Y-93035476D01*
X105306665Y-92940238D01*
X105211427Y-92845000D01*
X105068570Y-92797380D01*
X104973332Y-92797380D01*
X104830475Y-92845000D01*
X104782856Y-92892619D01*
X103830475Y-93797380D02*
X104401903Y-93797380D01*
X104116189Y-93797380D02*
X104116189Y-92797380D01*
X104211427Y-92940238D01*
X104306665Y-93035476D01*
X104401903Y-93083095D01*
X102878094Y-93797380D02*
X103449522Y-93797380D01*
X103163808Y-93797380D02*
X103163808Y-92797380D01*
X103259046Y-92940238D01*
X103354284Y-93035476D01*
X103449522Y-93083095D01*
X94146666Y-90622380D02*
X94480000Y-90146190D01*
X94718095Y-90622380D02*
X94718095Y-89622380D01*
X94337142Y-89622380D01*
X94241904Y-89670000D01*
X94194285Y-89717619D01*
X94146666Y-89812857D01*
X94146666Y-89955714D01*
X94194285Y-90050952D01*
X94241904Y-90098571D01*
X94337142Y-90146190D01*
X94718095Y-90146190D01*
X93575238Y-90050952D02*
X93670476Y-90003333D01*
X93718095Y-89955714D01*
X93765714Y-89860476D01*
X93765714Y-89812857D01*
X93718095Y-89717619D01*
X93670476Y-89670000D01*
X93575238Y-89622380D01*
X93384761Y-89622380D01*
X93289523Y-89670000D01*
X93241904Y-89717619D01*
X93194285Y-89812857D01*
X93194285Y-89860476D01*
X93241904Y-89955714D01*
X93289523Y-90003333D01*
X93384761Y-90050952D01*
X93575238Y-90050952D01*
X93670476Y-90098571D01*
X93718095Y-90146190D01*
X93765714Y-90241428D01*
X93765714Y-90431904D01*
X93718095Y-90527142D01*
X93670476Y-90574761D01*
X93575238Y-90622380D01*
X93384761Y-90622380D01*
X93289523Y-90574761D01*
X93241904Y-90527142D01*
X93194285Y-90431904D01*
X93194285Y-90241428D01*
X93241904Y-90146190D01*
X93289523Y-90098571D01*
X93384761Y-90050952D01*
X106783094Y-77922379D02*
X106783094Y-76922379D01*
X106544999Y-76922379D01*
X106402141Y-76969999D01*
X106306903Y-77065237D01*
X106259284Y-77160475D01*
X106211665Y-77350951D01*
X106211665Y-77493808D01*
X106259284Y-77684284D01*
X106306903Y-77779522D01*
X106402141Y-77874760D01*
X106544999Y-77922379D01*
X106783094Y-77922379D01*
X105354522Y-77255713D02*
X105354522Y-77922379D01*
X105592618Y-76874760D02*
X105830713Y-77589046D01*
X105211665Y-77589046D01*
X95067382Y-96353334D02*
X94591192Y-96020001D01*
X95067382Y-95781905D02*
X94067382Y-95781905D01*
X94067382Y-96162858D01*
X94115002Y-96258096D01*
X94162621Y-96305715D01*
X94257859Y-96353334D01*
X94400716Y-96353334D01*
X94495954Y-96305715D01*
X94543573Y-96258096D01*
X94591192Y-96162858D01*
X94591192Y-95781905D01*
X94067382Y-96686667D02*
X94067382Y-97353334D01*
X95067382Y-96924762D01*
X110942380Y-75557141D02*
X110466190Y-75223808D01*
X110942380Y-74985713D02*
X109942380Y-74985713D01*
X109942380Y-75366665D01*
X109990000Y-75461903D01*
X110037619Y-75509522D01*
X110132857Y-75557141D01*
X110275714Y-75557141D01*
X110370952Y-75509522D01*
X110418571Y-75461903D01*
X110466190Y-75366665D01*
X110466190Y-74985713D01*
X110942380Y-76509522D02*
X110942380Y-75938094D01*
X110942380Y-76223808D02*
X109942380Y-76223808D01*
X110085238Y-76128570D01*
X110180476Y-76033332D01*
X110228095Y-75938094D01*
X109942380Y-77128570D02*
X109942380Y-77223808D01*
X109990000Y-77319046D01*
X110037619Y-77366665D01*
X110132857Y-77414284D01*
X110323333Y-77461903D01*
X110561428Y-77461903D01*
X110751904Y-77414284D01*
X110847142Y-77366665D01*
X110894761Y-77319046D01*
X110942380Y-77223808D01*
X110942380Y-77128570D01*
X110894761Y-77033332D01*
X110847142Y-76985713D01*
X110751904Y-76938094D01*
X110561428Y-76890475D01*
X110323333Y-76890475D01*
X110132857Y-76938094D01*
X110037619Y-76985713D01*
X109990000Y-77033332D01*
X109942380Y-77128570D01*
X99782380Y-106553095D02*
X99782380Y-107124523D01*
X100782380Y-106838809D02*
X99782380Y-106838809D01*
X100782380Y-107505476D02*
X100782380Y-107695952D01*
X100734761Y-107791190D01*
X100687142Y-107838809D01*
X100544285Y-107934047D01*
X100353809Y-107981666D01*
X99972857Y-107981666D01*
X99877619Y-107934047D01*
X99830000Y-107886428D01*
X99782380Y-107791190D01*
X99782380Y-107600714D01*
X99830000Y-107505476D01*
X99877619Y-107457857D01*
X99972857Y-107410238D01*
X100210952Y-107410238D01*
X100306190Y-107457857D01*
X100353809Y-107505476D01*
X100401428Y-107600714D01*
X100401428Y-107791190D01*
X100353809Y-107886428D01*
X100306190Y-107934047D01*
X100210952Y-107981666D01*
X99782381Y-75596903D02*
X99782381Y-76168332D01*
X100782381Y-75882618D02*
X99782381Y-75882618D01*
X100782381Y-77025475D02*
X100782381Y-76454046D01*
X100782381Y-76739760D02*
X99782381Y-76739760D01*
X99925239Y-76644522D01*
X100020477Y-76549284D01*
X100068096Y-76454046D01*
X99782381Y-77930237D02*
X99782381Y-77454046D01*
X100258572Y-77406427D01*
X100210953Y-77454046D01*
X100163334Y-77549284D01*
X100163334Y-77787379D01*
X100210953Y-77882618D01*
X100258572Y-77930237D01*
X100353810Y-77977856D01*
X100591905Y-77977856D01*
X100687143Y-77930237D01*
X100734762Y-77882618D01*
X100782381Y-77787379D01*
X100782381Y-77549284D01*
X100734762Y-77454046D01*
X100687143Y-77406427D01*
X107402381Y-94646903D02*
X107402381Y-95218332D01*
X108402381Y-94932618D02*
X107402381Y-94932618D01*
X108402381Y-96075475D02*
X108402381Y-95504046D01*
X108402381Y-95789760D02*
X107402381Y-95789760D01*
X107545239Y-95694522D01*
X107640477Y-95599284D01*
X107688096Y-95504046D01*
X108402381Y-97027856D02*
X108402381Y-96456427D01*
X108402381Y-96742141D02*
X107402381Y-96742141D01*
X107545239Y-96646903D01*
X107640477Y-96551665D01*
X107688096Y-96456427D01*
X104782857Y-79732142D02*
X104830476Y-79779761D01*
X104973333Y-79827380D01*
X105068571Y-79827380D01*
X105211428Y-79779761D01*
X105306666Y-79684523D01*
X105354285Y-79589285D01*
X105401904Y-79398809D01*
X105401904Y-79255952D01*
X105354285Y-79065476D01*
X105306666Y-78970238D01*
X105211428Y-78875000D01*
X105068571Y-78827380D01*
X104973333Y-78827380D01*
X104830476Y-78875000D01*
X104782857Y-78922619D01*
X103830476Y-79827380D02*
X104401904Y-79827380D01*
X104116190Y-79827380D02*
X104116190Y-78827380D01*
X104211428Y-78970238D01*
X104306666Y-79065476D01*
X104401904Y-79113095D01*
X102925714Y-78827380D02*
X103401904Y-78827380D01*
X103449523Y-79303571D01*
X103401904Y-79255952D01*
X103306666Y-79208333D01*
X103068571Y-79208333D01*
X102973333Y-79255952D01*
X102925714Y-79303571D01*
X102878095Y-79398809D01*
X102878095Y-79636904D01*
X102925714Y-79732142D01*
X102973333Y-79779761D01*
X103068571Y-79827380D01*
X103306666Y-79827380D01*
X103401904Y-79779761D01*
X103449523Y-79732142D01*
X100147380Y-81907142D02*
X99671190Y-81573809D01*
X100147380Y-81335714D02*
X99147380Y-81335714D01*
X99147380Y-81716666D01*
X99195000Y-81811904D01*
X99242619Y-81859523D01*
X99337857Y-81907142D01*
X99480714Y-81907142D01*
X99575952Y-81859523D01*
X99623571Y-81811904D01*
X99671190Y-81716666D01*
X99671190Y-81335714D01*
X100147380Y-82859523D02*
X100147380Y-82288095D01*
X100147380Y-82573809D02*
X99147380Y-82573809D01*
X99290238Y-82478571D01*
X99385476Y-82383333D01*
X99433095Y-82288095D01*
X99242619Y-83240476D02*
X99195000Y-83288095D01*
X99147380Y-83383333D01*
X99147380Y-83621428D01*
X99195000Y-83716666D01*
X99242619Y-83764285D01*
X99337857Y-83811904D01*
X99433095Y-83811904D01*
X99575952Y-83764285D01*
X100147380Y-83192857D01*
X100147380Y-83811904D01*
X99147381Y-66706903D02*
X99147381Y-67278332D01*
X100147381Y-66992618D02*
X99147381Y-66992618D01*
X100147381Y-68135475D02*
X100147381Y-67564046D01*
X100147381Y-67849760D02*
X99147381Y-67849760D01*
X99290239Y-67754522D01*
X99385477Y-67659284D01*
X99433096Y-67564046D01*
X99480715Y-68992618D02*
X100147381Y-68992618D01*
X99099762Y-68754522D02*
X99814048Y-68516427D01*
X99814048Y-69135475D01*
D13*
X105535000Y-103195001D02*
X105535000Y-104125001D01*
X105535000Y-103195001D02*
X104075000Y-103195001D01*
X105535000Y-106355001D02*
X102375000Y-106355001D01*
X105535000Y-106355001D02*
X105535000Y-105425001D01*
X97700001Y-89458752D02*
X97700001Y-90881256D01*
X100420001Y-89458752D02*
X100420001Y-90881256D01*
X93903752Y-102960002D02*
X95326256Y-102960002D01*
X93903752Y-100240002D02*
X95326256Y-100240002D01*
X111000000Y-63825000D02*
X114160000Y-63825000D01*
X111000000Y-66985000D02*
X112460000Y-66985000D01*
X111000000Y-66985000D02*
X111000000Y-66055000D01*
X111000000Y-63825000D02*
X111000000Y-64755000D01*
X87570000Y-92710000D02*
X87570000Y-105470000D01*
X90230000Y-90110000D02*
X88900000Y-90110000D01*
X90230000Y-91440000D02*
X90230000Y-90110000D01*
X90230000Y-105470000D02*
X87570000Y-105470000D01*
X90230000Y-92710000D02*
X87570000Y-92710000D01*
X90230000Y-92710000D02*
X90230000Y-105470000D01*
X97280001Y-70174999D02*
X95820001Y-70174999D01*
X97280001Y-70174999D02*
X97280001Y-71104999D01*
X97280001Y-73334999D02*
X94120001Y-73334999D01*
X97280001Y-73334999D02*
X97280001Y-72404999D01*
X107860001Y-83261253D02*
X107860001Y-81838749D01*
X110580001Y-83261253D02*
X110580001Y-81838749D01*
X111035001Y-107391252D02*
X111035001Y-105968748D01*
X113755001Y-107391252D02*
X113755001Y-105968748D01*
X97245001Y-65328749D02*
X97245001Y-66751253D01*
X94525001Y-65328749D02*
X94525001Y-66751253D01*
X111000005Y-99385001D02*
X111000005Y-100315001D01*
X111000005Y-102545001D02*
X112460005Y-102545001D01*
X111000005Y-102545001D02*
X111000005Y-101615001D01*
X111000005Y-99385001D02*
X114160005Y-99385001D01*
X102235001Y-99350003D02*
X100560001Y-99350003D01*
X102235001Y-99350003D02*
X102885001Y-99350003D01*
X102235001Y-96230003D02*
X101585001Y-96230003D01*
X102235001Y-96230003D02*
X102885001Y-96230003D01*
X111036265Y-88815000D02*
X112483739Y-88815000D01*
X111036265Y-91525000D02*
X112483739Y-91525000D01*
X114376253Y-69760001D02*
X112953749Y-69760001D01*
X114376253Y-72480001D02*
X112953749Y-72480001D01*
X115655000Y-81826263D02*
X115655000Y-83273737D01*
X112945000Y-81826263D02*
X112945000Y-83273737D01*
X105499999Y-89458749D02*
X105499999Y-90881253D01*
X102779999Y-89458749D02*
X102779999Y-90881253D01*
X118050000Y-82610000D02*
X119380000Y-82610000D01*
X118050000Y-80010000D02*
X120710000Y-80010000D01*
X118050000Y-67250000D02*
X120710000Y-67250000D01*
X118050000Y-81280000D02*
X118050000Y-82610000D01*
X120710000Y-80010000D02*
X120710000Y-67250000D01*
X118050000Y-80010000D02*
X118050000Y-67250000D01*
X92625000Y-90893737D02*
X92625000Y-89446263D01*
X95335000Y-90893737D02*
X95335000Y-89446263D01*
X106044999Y-76489999D02*
X106694999Y-76489999D01*
X106044999Y-73369999D02*
X107719999Y-73369999D01*
X106044999Y-76489999D02*
X105394999Y-76489999D01*
X106044999Y-73369999D02*
X105394999Y-73369999D01*
X93891265Y-97875001D02*
X95338739Y-97875001D01*
X93891265Y-95165001D02*
X95338739Y-95165001D01*
X114388736Y-74844999D02*
X112941262Y-74844999D01*
X114388736Y-77554999D02*
X112941262Y-77554999D01*
X97280000Y-105735000D02*
X95820000Y-105735000D01*
X97280000Y-105735000D02*
X97280000Y-106665000D01*
X97280000Y-108895000D02*
X97280000Y-107965000D01*
X97280000Y-108895000D02*
X94120000Y-108895000D01*
X97280001Y-75889999D02*
X95820001Y-75889999D01*
X97280001Y-79049999D02*
X97280001Y-78119999D01*
X97280001Y-75889999D02*
X97280001Y-76819999D01*
X97280001Y-79049999D02*
X94120001Y-79049999D01*
X111000001Y-93669999D02*
X111000001Y-94599999D01*
X111000001Y-93669999D02*
X114160001Y-93669999D01*
X111000001Y-96829999D02*
X111000001Y-95899999D01*
X111000001Y-96829999D02*
X112460001Y-96829999D01*
X105500000Y-83261252D02*
X105500000Y-81838748D01*
X102780000Y-83261252D02*
X102780000Y-81838748D01*
X97243737Y-81195001D02*
X95796263Y-81195001D01*
X97243737Y-83905001D02*
X95796263Y-83905001D01*
X102745001Y-69524999D02*
X102745001Y-68594999D01*
X102745001Y-66364999D02*
X102745001Y-67294999D01*
X102745001Y-69524999D02*
X104205001Y-69524999D01*
X102745001Y-66364999D02*
X105905001Y-66364999D01*
%LPC*%
D14*
X88900000Y-81280000D03*
D15*
X88900000Y-78740000D03*
X88900000Y-76200000D03*
X88900000Y-73660000D03*
X88900000Y-71120000D03*
X88900000Y-68580000D03*
D16*
X119380000Y-109360000D03*
X117682944Y-110062944D03*
X121077056Y-113457056D03*
X119380000Y-114160000D03*
X116980000Y-111760000D03*
X121077056Y-110062944D03*
X121780000Y-111760000D03*
X117682944Y-113457056D03*
D17*
X119380000Y-111760000D03*
X88900000Y-111760000D03*
D16*
X91300000Y-111760000D03*
X90597056Y-110062944D03*
X86500000Y-111760000D03*
X88900000Y-114160000D03*
X87202944Y-113457056D03*
X87202944Y-110062944D03*
X88900000Y-109360000D03*
X90597056Y-113457056D03*
X87202944Y-62657056D03*
X86500000Y-60960000D03*
X90597056Y-62657056D03*
X88900000Y-58560000D03*
X91300000Y-60960000D03*
X88900000Y-63360000D03*
D17*
X88900000Y-60960000D03*
D16*
X90597056Y-59262944D03*
X87202944Y-59262944D03*
D17*
X119380000Y-60960000D03*
D16*
X119380000Y-63360000D03*
X121780000Y-60960000D03*
X121077056Y-59262944D03*
X117682944Y-59262944D03*
X116980000Y-60960000D03*
X117682944Y-62657056D03*
X121077056Y-62657056D03*
X119380000Y-58560000D03*
D14*
X119380000Y-91440000D03*
D15*
X119380000Y-93980000D03*
X119380000Y-96520000D03*
X119380000Y-99060000D03*
X119380000Y-101600000D03*
X119380000Y-104140000D03*
D18*
X103275000Y-105725001D03*
X103275000Y-103825001D03*
X106275000Y-104775001D03*
D19*
X99060001Y-88607504D03*
X99060001Y-91732504D03*
D20*
X93052504Y-101600002D03*
X96177504Y-101600002D03*
D18*
X113260000Y-64455000D03*
X113260000Y-66355000D03*
X110260000Y-65405000D03*
D14*
X88900000Y-91440000D03*
D15*
X88900000Y-93980000D03*
X88900000Y-96520000D03*
X88900000Y-99060000D03*
X88900000Y-101600000D03*
X88900000Y-104140000D03*
D18*
X95020001Y-72704999D03*
X95020001Y-70804999D03*
X98020001Y-71754999D03*
D21*
X109220001Y-84112501D03*
X109220001Y-80987501D03*
X112395001Y-108242500D03*
X112395001Y-105117500D03*
D19*
X95885001Y-64477501D03*
X95885001Y-67602501D03*
D18*
X113260005Y-100015001D03*
X113260005Y-101915001D03*
X110260005Y-100965001D03*
D22*
X101297501Y-98740003D03*
X101297501Y-96840003D03*
X103172501Y-97790003D03*
D23*
X110210002Y-90170000D03*
X113310002Y-90170000D03*
D24*
X115227501Y-71120001D03*
X112102501Y-71120001D03*
D25*
X114300000Y-81000000D03*
X114300000Y-84100000D03*
D19*
X104139999Y-88607501D03*
X104139999Y-91732501D03*
D14*
X119380000Y-81280000D03*
D15*
X119380000Y-78740000D03*
X119380000Y-76200000D03*
X119380000Y-73660000D03*
X119380000Y-71120000D03*
X119380000Y-68580000D03*
D26*
X93980000Y-91720000D03*
X93980000Y-88620000D03*
D27*
X106982499Y-73979999D03*
X106982499Y-75879999D03*
X105107499Y-74929999D03*
D23*
X93065002Y-96520001D03*
X96165002Y-96520001D03*
D28*
X115214999Y-76199999D03*
X112114999Y-76199999D03*
D18*
X95020000Y-108265000D03*
X95020000Y-106365000D03*
X98020000Y-107315000D03*
X95020001Y-78419999D03*
X95020001Y-76519999D03*
X98020001Y-77469999D03*
X113260001Y-94299999D03*
X113260001Y-96199999D03*
X110260001Y-95249999D03*
D21*
X104140000Y-84112500D03*
X104140000Y-80987500D03*
D28*
X98070000Y-82550001D03*
X94970000Y-82550001D03*
D18*
X105005001Y-66994999D03*
X105005001Y-68894999D03*
X102005001Y-67944999D03*
M02*
