G04 #@! TF.GenerationSoftware,KiCad,Pcbnew,7.0.3-24-g09febce4ce*
G04 #@! TF.CreationDate,2023-05-23T12:19:00+02:00*
G04 #@! TF.ProjectId,SPI2WS2812,53504932-5753-4323-9831-322e6b696361,rev?*
G04 #@! TF.SameCoordinates,Original*
G04 #@! TF.FileFunction,Legend,Bot*
G04 #@! TF.FilePolarity,Positive*
%FSLAX46Y46*%
G04 Gerber Fmt 4.6, Leading zero omitted, Abs format (unit mm)*
G04 Created by KiCad (PCBNEW 7.0.3-24-g09febce4ce) date 2023-05-23 12:19:00*
%MOMM*%
%LPD*%
G01*
G04 APERTURE LIST*
G04 Aperture macros list*
%AMRoundRect*
0 Rectangle with rounded corners*
0 $1 Rounding radius*
0 $2 $3 $4 $5 $6 $7 $8 $9 X,Y pos of 4 corners*
0 Add a 4 corners polygon primitive as box body*
4,1,4,$2,$3,$4,$5,$6,$7,$8,$9,$2,$3,0*
0 Add four circle primitives for the rounded corners*
1,1,$1+$1,$2,$3*
1,1,$1+$1,$4,$5*
1,1,$1+$1,$6,$7*
1,1,$1+$1,$8,$9*
0 Add four rect primitives between the rounded corners*
20,1,$1+$1,$2,$3,$4,$5,0*
20,1,$1+$1,$4,$5,$6,$7,0*
20,1,$1+$1,$6,$7,$8,$9,0*
20,1,$1+$1,$8,$9,$2,$3,0*%
G04 Aperture macros list end*
%ADD10C,0.300000*%
%ADD11C,0.150000*%
%ADD12C,0.750000*%
%ADD13C,0.120000*%
%ADD14RoundRect,0.100000X0.850000X0.850000X-0.850000X0.850000X-0.850000X-0.850000X0.850000X-0.850000X0*%
%ADD15O,1.900000X1.900000*%
%ADD16C,1.900000*%
%ADD17C,1.000000*%
%ADD18C,6.600000*%
%ADD19RoundRect,0.100000X-0.850000X-0.850000X0.850000X-0.850000X0.850000X0.850000X-0.850000X0.850000X0*%
%ADD20RoundRect,0.100000X-0.950000X-0.400000X0.950000X-0.400000X0.950000X0.400000X-0.950000X0.400000X0*%
%ADD21RoundRect,0.350000X-1.100000X0.412500X-1.100000X-0.412500X1.100000X-0.412500X1.100000X0.412500X0*%
%ADD22RoundRect,0.350000X-0.412500X-1.100000X0.412500X-1.100000X0.412500X1.100000X-0.412500X1.100000X0*%
%ADD23RoundRect,0.100000X0.950000X0.400000X-0.950000X0.400000X-0.950000X-0.400000X0.950000X-0.400000X0*%
%ADD24RoundRect,0.350000X1.100000X-0.412500X1.100000X0.412500X-1.100000X0.412500X-1.100000X-0.412500X0*%
%ADD25RoundRect,0.250000X-0.587500X-0.150000X0.587500X-0.150000X0.587500X0.150000X-0.587500X0.150000X0*%
%ADD26RoundRect,0.350000X-0.400000X-1.075000X0.400000X-1.075000X0.400000X1.075000X-0.400000X1.075000X0*%
%ADD27RoundRect,0.350000X0.412500X1.100000X-0.412500X1.100000X-0.412500X-1.100000X0.412500X-1.100000X0*%
%ADD28RoundRect,0.350000X-1.075000X0.400000X-1.075000X-0.400000X1.075000X-0.400000X1.075000X0.400000X0*%
%ADD29RoundRect,0.350000X1.075000X-0.400000X1.075000X0.400000X-1.075000X0.400000X-1.075000X-0.400000X0*%
%ADD30RoundRect,0.250000X0.587500X0.150000X-0.587500X0.150000X-0.587500X-0.150000X0.587500X-0.150000X0*%
%ADD31RoundRect,0.350000X0.400000X1.075000X-0.400000X1.075000X-0.400000X-1.075000X0.400000X-1.075000X0*%
G04 APERTURE END LIST*
D10*
X116840000Y-86360000D02*
X116840000Y-107950000D01*
X91440000Y-86360000D02*
X91440000Y-64770000D01*
X93980000Y-56515000D02*
X93980000Y-61595000D01*
X116840000Y-107950000D02*
X114300000Y-111125000D01*
X93980000Y-61595000D02*
X91440000Y-64770000D01*
D11*
X119380000Y-66675000D02*
X119380000Y-64770000D01*
X88900000Y-106045000D02*
X88900000Y-107950000D01*
D10*
X114300000Y-111125000D02*
X114300000Y-116205000D01*
X84455000Y-86360000D02*
X123825000Y-86360000D01*
D11*
X84439286Y-98652800D02*
X84582143Y-98605180D01*
X84582143Y-98605180D02*
X84820238Y-98605180D01*
X84820238Y-98605180D02*
X84915476Y-98652800D01*
X84915476Y-98652800D02*
X84963095Y-98700419D01*
X84963095Y-98700419D02*
X85010714Y-98795657D01*
X85010714Y-98795657D02*
X85010714Y-98890895D01*
X85010714Y-98890895D02*
X84963095Y-98986133D01*
X84963095Y-98986133D02*
X84915476Y-99033752D01*
X84915476Y-99033752D02*
X84820238Y-99081371D01*
X84820238Y-99081371D02*
X84629762Y-99128990D01*
X84629762Y-99128990D02*
X84534524Y-99176609D01*
X84534524Y-99176609D02*
X84486905Y-99224228D01*
X84486905Y-99224228D02*
X84439286Y-99319466D01*
X84439286Y-99319466D02*
X84439286Y-99414704D01*
X84439286Y-99414704D02*
X84486905Y-99509942D01*
X84486905Y-99509942D02*
X84534524Y-99557561D01*
X84534524Y-99557561D02*
X84629762Y-99605180D01*
X84629762Y-99605180D02*
X84867857Y-99605180D01*
X84867857Y-99605180D02*
X85010714Y-99557561D01*
X86010714Y-98700419D02*
X85963095Y-98652800D01*
X85963095Y-98652800D02*
X85820238Y-98605180D01*
X85820238Y-98605180D02*
X85725000Y-98605180D01*
X85725000Y-98605180D02*
X85582143Y-98652800D01*
X85582143Y-98652800D02*
X85486905Y-98748038D01*
X85486905Y-98748038D02*
X85439286Y-98843276D01*
X85439286Y-98843276D02*
X85391667Y-99033752D01*
X85391667Y-99033752D02*
X85391667Y-99176609D01*
X85391667Y-99176609D02*
X85439286Y-99367085D01*
X85439286Y-99367085D02*
X85486905Y-99462323D01*
X85486905Y-99462323D02*
X85582143Y-99557561D01*
X85582143Y-99557561D02*
X85725000Y-99605180D01*
X85725000Y-99605180D02*
X85820238Y-99605180D01*
X85820238Y-99605180D02*
X85963095Y-99557561D01*
X85963095Y-99557561D02*
X86010714Y-99509942D01*
X86439286Y-98605180D02*
X86439286Y-99605180D01*
X87010714Y-98605180D02*
X86582143Y-99176609D01*
X87010714Y-99605180D02*
X86439286Y-99033752D01*
X86510713Y-79194819D02*
X86510713Y-78194819D01*
X86510713Y-78194819D02*
X86272618Y-78194819D01*
X86272618Y-78194819D02*
X86129761Y-78242438D01*
X86129761Y-78242438D02*
X86034523Y-78337676D01*
X86034523Y-78337676D02*
X85986904Y-78432914D01*
X85986904Y-78432914D02*
X85939285Y-78623390D01*
X85939285Y-78623390D02*
X85939285Y-78766247D01*
X85939285Y-78766247D02*
X85986904Y-78956723D01*
X85986904Y-78956723D02*
X86034523Y-79051961D01*
X86034523Y-79051961D02*
X86129761Y-79147200D01*
X86129761Y-79147200D02*
X86272618Y-79194819D01*
X86272618Y-79194819D02*
X86510713Y-79194819D01*
X85320237Y-78194819D02*
X85129761Y-78194819D01*
X85129761Y-78194819D02*
X85034523Y-78242438D01*
X85034523Y-78242438D02*
X84939285Y-78337676D01*
X84939285Y-78337676D02*
X84891666Y-78528152D01*
X84891666Y-78528152D02*
X84891666Y-78861485D01*
X84891666Y-78861485D02*
X84939285Y-79051961D01*
X84939285Y-79051961D02*
X85034523Y-79147200D01*
X85034523Y-79147200D02*
X85129761Y-79194819D01*
X85129761Y-79194819D02*
X85320237Y-79194819D01*
X85320237Y-79194819D02*
X85415475Y-79147200D01*
X85415475Y-79147200D02*
X85510713Y-79051961D01*
X85510713Y-79051961D02*
X85558332Y-78861485D01*
X85558332Y-78861485D02*
X85558332Y-78528152D01*
X85558332Y-78528152D02*
X85510713Y-78337676D01*
X85510713Y-78337676D02*
X85415475Y-78242438D01*
X85415475Y-78242438D02*
X85320237Y-78194819D01*
X86463094Y-71051009D02*
X86129761Y-71051009D01*
X85986904Y-71574819D02*
X86463094Y-71574819D01*
X86463094Y-71574819D02*
X86463094Y-70574819D01*
X86463094Y-70574819D02*
X85986904Y-70574819D01*
X85558332Y-71574819D02*
X85558332Y-70574819D01*
X85558332Y-70574819D02*
X84986904Y-71574819D01*
X84986904Y-71574819D02*
X84986904Y-70574819D01*
X86601190Y-70297200D02*
X84848809Y-70297200D01*
X121269286Y-98652800D02*
X121412143Y-98605180D01*
X121412143Y-98605180D02*
X121650238Y-98605180D01*
X121650238Y-98605180D02*
X121745476Y-98652800D01*
X121745476Y-98652800D02*
X121793095Y-98700419D01*
X121793095Y-98700419D02*
X121840714Y-98795657D01*
X121840714Y-98795657D02*
X121840714Y-98890895D01*
X121840714Y-98890895D02*
X121793095Y-98986133D01*
X121793095Y-98986133D02*
X121745476Y-99033752D01*
X121745476Y-99033752D02*
X121650238Y-99081371D01*
X121650238Y-99081371D02*
X121459762Y-99128990D01*
X121459762Y-99128990D02*
X121364524Y-99176609D01*
X121364524Y-99176609D02*
X121316905Y-99224228D01*
X121316905Y-99224228D02*
X121269286Y-99319466D01*
X121269286Y-99319466D02*
X121269286Y-99414704D01*
X121269286Y-99414704D02*
X121316905Y-99509942D01*
X121316905Y-99509942D02*
X121364524Y-99557561D01*
X121364524Y-99557561D02*
X121459762Y-99605180D01*
X121459762Y-99605180D02*
X121697857Y-99605180D01*
X121697857Y-99605180D02*
X121840714Y-99557561D01*
X122840714Y-98700419D02*
X122793095Y-98652800D01*
X122793095Y-98652800D02*
X122650238Y-98605180D01*
X122650238Y-98605180D02*
X122555000Y-98605180D01*
X122555000Y-98605180D02*
X122412143Y-98652800D01*
X122412143Y-98652800D02*
X122316905Y-98748038D01*
X122316905Y-98748038D02*
X122269286Y-98843276D01*
X122269286Y-98843276D02*
X122221667Y-99033752D01*
X122221667Y-99033752D02*
X122221667Y-99176609D01*
X122221667Y-99176609D02*
X122269286Y-99367085D01*
X122269286Y-99367085D02*
X122316905Y-99462323D01*
X122316905Y-99462323D02*
X122412143Y-99557561D01*
X122412143Y-99557561D02*
X122555000Y-99605180D01*
X122555000Y-99605180D02*
X122650238Y-99605180D01*
X122650238Y-99605180D02*
X122793095Y-99557561D01*
X122793095Y-99557561D02*
X122840714Y-99509942D01*
X123269286Y-98605180D02*
X123269286Y-99605180D01*
X123840714Y-98605180D02*
X123412143Y-99176609D01*
X123840714Y-99605180D02*
X123269286Y-99033752D01*
X121816905Y-101668990D02*
X122150238Y-101668990D01*
X122293095Y-101145180D02*
X121816905Y-101145180D01*
X121816905Y-101145180D02*
X121816905Y-102145180D01*
X121816905Y-102145180D02*
X122293095Y-102145180D01*
X122721667Y-101145180D02*
X122721667Y-102145180D01*
X122721667Y-102145180D02*
X123293095Y-101145180D01*
X123293095Y-101145180D02*
X123293095Y-102145180D01*
X121678810Y-102422800D02*
X123431191Y-102422800D01*
D12*
X97091429Y-113681142D02*
X97091429Y-111681142D01*
X96377143Y-114824000D02*
X95662857Y-112681142D01*
X95662857Y-112681142D02*
X97520000Y-112681142D01*
D11*
X86105951Y-81353866D02*
X85344047Y-81353866D01*
X85724999Y-81734819D02*
X85724999Y-80972914D01*
D12*
X112759999Y-58038857D02*
X110902856Y-58038857D01*
X110902856Y-58038857D02*
X111902856Y-59181714D01*
X111902856Y-59181714D02*
X111474285Y-59181714D01*
X111474285Y-59181714D02*
X111188571Y-59324571D01*
X111188571Y-59324571D02*
X111045713Y-59467428D01*
X111045713Y-59467428D02*
X110902856Y-59753142D01*
X110902856Y-59753142D02*
X110902856Y-60467428D01*
X110902856Y-60467428D02*
X111045713Y-60753142D01*
X111045713Y-60753142D02*
X111188571Y-60896000D01*
X111188571Y-60896000D02*
X111474285Y-61038857D01*
X111474285Y-61038857D02*
X112331428Y-61038857D01*
X112331428Y-61038857D02*
X112617142Y-60896000D01*
X112617142Y-60896000D02*
X112759999Y-60753142D01*
D11*
X123840713Y-74067200D02*
X123697856Y-74114819D01*
X123697856Y-74114819D02*
X123459761Y-74114819D01*
X123459761Y-74114819D02*
X123364523Y-74067200D01*
X123364523Y-74067200D02*
X123316904Y-74019580D01*
X123316904Y-74019580D02*
X123269285Y-73924342D01*
X123269285Y-73924342D02*
X123269285Y-73829104D01*
X123269285Y-73829104D02*
X123316904Y-73733866D01*
X123316904Y-73733866D02*
X123364523Y-73686247D01*
X123364523Y-73686247D02*
X123459761Y-73638628D01*
X123459761Y-73638628D02*
X123650237Y-73591009D01*
X123650237Y-73591009D02*
X123745475Y-73543390D01*
X123745475Y-73543390D02*
X123793094Y-73495771D01*
X123793094Y-73495771D02*
X123840713Y-73400533D01*
X123840713Y-73400533D02*
X123840713Y-73305295D01*
X123840713Y-73305295D02*
X123793094Y-73210057D01*
X123793094Y-73210057D02*
X123745475Y-73162438D01*
X123745475Y-73162438D02*
X123650237Y-73114819D01*
X123650237Y-73114819D02*
X123412142Y-73114819D01*
X123412142Y-73114819D02*
X123269285Y-73162438D01*
X122269285Y-74019580D02*
X122316904Y-74067200D01*
X122316904Y-74067200D02*
X122459761Y-74114819D01*
X122459761Y-74114819D02*
X122554999Y-74114819D01*
X122554999Y-74114819D02*
X122697856Y-74067200D01*
X122697856Y-74067200D02*
X122793094Y-73971961D01*
X122793094Y-73971961D02*
X122840713Y-73876723D01*
X122840713Y-73876723D02*
X122888332Y-73686247D01*
X122888332Y-73686247D02*
X122888332Y-73543390D01*
X122888332Y-73543390D02*
X122840713Y-73352914D01*
X122840713Y-73352914D02*
X122793094Y-73257676D01*
X122793094Y-73257676D02*
X122697856Y-73162438D01*
X122697856Y-73162438D02*
X122554999Y-73114819D01*
X122554999Y-73114819D02*
X122459761Y-73114819D01*
X122459761Y-73114819D02*
X122316904Y-73162438D01*
X122316904Y-73162438D02*
X122269285Y-73210057D01*
X121840713Y-74114819D02*
X121840713Y-73114819D01*
X121269285Y-74114819D02*
X121697856Y-73543390D01*
X121269285Y-73114819D02*
X121840713Y-73686247D01*
X122935951Y-81353866D02*
X122174047Y-81353866D01*
X122554999Y-81734819D02*
X122554999Y-80972914D01*
X121769286Y-93525180D02*
X121769286Y-94525180D01*
X121769286Y-94525180D02*
X122007381Y-94525180D01*
X122007381Y-94525180D02*
X122150238Y-94477561D01*
X122150238Y-94477561D02*
X122245476Y-94382323D01*
X122245476Y-94382323D02*
X122293095Y-94287085D01*
X122293095Y-94287085D02*
X122340714Y-94096609D01*
X122340714Y-94096609D02*
X122340714Y-93953752D01*
X122340714Y-93953752D02*
X122293095Y-93763276D01*
X122293095Y-93763276D02*
X122245476Y-93668038D01*
X122245476Y-93668038D02*
X122150238Y-93572800D01*
X122150238Y-93572800D02*
X122007381Y-93525180D01*
X122007381Y-93525180D02*
X121769286Y-93525180D01*
X122959762Y-94525180D02*
X123150238Y-94525180D01*
X123150238Y-94525180D02*
X123245476Y-94477561D01*
X123245476Y-94477561D02*
X123340714Y-94382323D01*
X123340714Y-94382323D02*
X123388333Y-94191847D01*
X123388333Y-94191847D02*
X123388333Y-93858514D01*
X123388333Y-93858514D02*
X123340714Y-93668038D01*
X123340714Y-93668038D02*
X123245476Y-93572800D01*
X123245476Y-93572800D02*
X123150238Y-93525180D01*
X123150238Y-93525180D02*
X122959762Y-93525180D01*
X122959762Y-93525180D02*
X122864524Y-93572800D01*
X122864524Y-93572800D02*
X122769286Y-93668038D01*
X122769286Y-93668038D02*
X122721667Y-93858514D01*
X122721667Y-93858514D02*
X122721667Y-94191847D01*
X122721667Y-94191847D02*
X122769286Y-94382323D01*
X122769286Y-94382323D02*
X122864524Y-94477561D01*
X122864524Y-94477561D02*
X122959762Y-94525180D01*
X122935951Y-91513866D02*
X122174047Y-91513866D01*
X122554999Y-91894819D02*
X122554999Y-91132914D01*
X86105951Y-91513866D02*
X85344047Y-91513866D01*
X85724999Y-91894819D02*
X85724999Y-91132914D01*
X87010713Y-74067200D02*
X86867856Y-74114819D01*
X86867856Y-74114819D02*
X86629761Y-74114819D01*
X86629761Y-74114819D02*
X86534523Y-74067200D01*
X86534523Y-74067200D02*
X86486904Y-74019580D01*
X86486904Y-74019580D02*
X86439285Y-73924342D01*
X86439285Y-73924342D02*
X86439285Y-73829104D01*
X86439285Y-73829104D02*
X86486904Y-73733866D01*
X86486904Y-73733866D02*
X86534523Y-73686247D01*
X86534523Y-73686247D02*
X86629761Y-73638628D01*
X86629761Y-73638628D02*
X86820237Y-73591009D01*
X86820237Y-73591009D02*
X86915475Y-73543390D01*
X86915475Y-73543390D02*
X86963094Y-73495771D01*
X86963094Y-73495771D02*
X87010713Y-73400533D01*
X87010713Y-73400533D02*
X87010713Y-73305295D01*
X87010713Y-73305295D02*
X86963094Y-73210057D01*
X86963094Y-73210057D02*
X86915475Y-73162438D01*
X86915475Y-73162438D02*
X86820237Y-73114819D01*
X86820237Y-73114819D02*
X86582142Y-73114819D01*
X86582142Y-73114819D02*
X86439285Y-73162438D01*
X85439285Y-74019580D02*
X85486904Y-74067200D01*
X85486904Y-74067200D02*
X85629761Y-74114819D01*
X85629761Y-74114819D02*
X85724999Y-74114819D01*
X85724999Y-74114819D02*
X85867856Y-74067200D01*
X85867856Y-74067200D02*
X85963094Y-73971961D01*
X85963094Y-73971961D02*
X86010713Y-73876723D01*
X86010713Y-73876723D02*
X86058332Y-73686247D01*
X86058332Y-73686247D02*
X86058332Y-73543390D01*
X86058332Y-73543390D02*
X86010713Y-73352914D01*
X86010713Y-73352914D02*
X85963094Y-73257676D01*
X85963094Y-73257676D02*
X85867856Y-73162438D01*
X85867856Y-73162438D02*
X85724999Y-73114819D01*
X85724999Y-73114819D02*
X85629761Y-73114819D01*
X85629761Y-73114819D02*
X85486904Y-73162438D01*
X85486904Y-73162438D02*
X85439285Y-73210057D01*
X85010713Y-74114819D02*
X85010713Y-73114819D01*
X84439285Y-74114819D02*
X84867856Y-73543390D01*
X84439285Y-73114819D02*
X85010713Y-73686247D01*
X85201191Y-96112800D02*
X85344048Y-96065180D01*
X85344048Y-96065180D02*
X85582143Y-96065180D01*
X85582143Y-96065180D02*
X85677381Y-96112800D01*
X85677381Y-96112800D02*
X85725000Y-96160419D01*
X85725000Y-96160419D02*
X85772619Y-96255657D01*
X85772619Y-96255657D02*
X85772619Y-96350895D01*
X85772619Y-96350895D02*
X85725000Y-96446133D01*
X85725000Y-96446133D02*
X85677381Y-96493752D01*
X85677381Y-96493752D02*
X85582143Y-96541371D01*
X85582143Y-96541371D02*
X85391667Y-96588990D01*
X85391667Y-96588990D02*
X85296429Y-96636609D01*
X85296429Y-96636609D02*
X85248810Y-96684228D01*
X85248810Y-96684228D02*
X85201191Y-96779466D01*
X85201191Y-96779466D02*
X85201191Y-96874704D01*
X85201191Y-96874704D02*
X85248810Y-96969942D01*
X85248810Y-96969942D02*
X85296429Y-97017561D01*
X85296429Y-97017561D02*
X85391667Y-97065180D01*
X85391667Y-97065180D02*
X85629762Y-97065180D01*
X85629762Y-97065180D02*
X85772619Y-97017561D01*
X86201191Y-96065180D02*
X86201191Y-97065180D01*
X84986905Y-101668990D02*
X85320238Y-101668990D01*
X85463095Y-101145180D02*
X84986905Y-101145180D01*
X84986905Y-101145180D02*
X84986905Y-102145180D01*
X84986905Y-102145180D02*
X85463095Y-102145180D01*
X85891667Y-101145180D02*
X85891667Y-102145180D01*
X85891667Y-102145180D02*
X86463095Y-101145180D01*
X86463095Y-101145180D02*
X86463095Y-102145180D01*
X84848810Y-102422800D02*
X86601191Y-102422800D01*
X123293094Y-71051009D02*
X122959761Y-71051009D01*
X122816904Y-71574819D02*
X123293094Y-71574819D01*
X123293094Y-71574819D02*
X123293094Y-70574819D01*
X123293094Y-70574819D02*
X122816904Y-70574819D01*
X122388332Y-71574819D02*
X122388332Y-70574819D01*
X122388332Y-70574819D02*
X121816904Y-71574819D01*
X121816904Y-71574819D02*
X121816904Y-70574819D01*
X123431190Y-70297200D02*
X121678809Y-70297200D01*
X86248808Y-76607200D02*
X86105951Y-76654819D01*
X86105951Y-76654819D02*
X85867856Y-76654819D01*
X85867856Y-76654819D02*
X85772618Y-76607200D01*
X85772618Y-76607200D02*
X85724999Y-76559580D01*
X85724999Y-76559580D02*
X85677380Y-76464342D01*
X85677380Y-76464342D02*
X85677380Y-76369104D01*
X85677380Y-76369104D02*
X85724999Y-76273866D01*
X85724999Y-76273866D02*
X85772618Y-76226247D01*
X85772618Y-76226247D02*
X85867856Y-76178628D01*
X85867856Y-76178628D02*
X86058332Y-76131009D01*
X86058332Y-76131009D02*
X86153570Y-76083390D01*
X86153570Y-76083390D02*
X86201189Y-76035771D01*
X86201189Y-76035771D02*
X86248808Y-75940533D01*
X86248808Y-75940533D02*
X86248808Y-75845295D01*
X86248808Y-75845295D02*
X86201189Y-75750057D01*
X86201189Y-75750057D02*
X86153570Y-75702438D01*
X86153570Y-75702438D02*
X86058332Y-75654819D01*
X86058332Y-75654819D02*
X85820237Y-75654819D01*
X85820237Y-75654819D02*
X85677380Y-75702438D01*
X85248808Y-76654819D02*
X85248808Y-75654819D01*
X123340713Y-79194819D02*
X123340713Y-78194819D01*
X123340713Y-78194819D02*
X123102618Y-78194819D01*
X123102618Y-78194819D02*
X122959761Y-78242438D01*
X122959761Y-78242438D02*
X122864523Y-78337676D01*
X122864523Y-78337676D02*
X122816904Y-78432914D01*
X122816904Y-78432914D02*
X122769285Y-78623390D01*
X122769285Y-78623390D02*
X122769285Y-78766247D01*
X122769285Y-78766247D02*
X122816904Y-78956723D01*
X122816904Y-78956723D02*
X122864523Y-79051961D01*
X122864523Y-79051961D02*
X122959761Y-79147200D01*
X122959761Y-79147200D02*
X123102618Y-79194819D01*
X123102618Y-79194819D02*
X123340713Y-79194819D01*
X122150237Y-78194819D02*
X121959761Y-78194819D01*
X121959761Y-78194819D02*
X121864523Y-78242438D01*
X121864523Y-78242438D02*
X121769285Y-78337676D01*
X121769285Y-78337676D02*
X121721666Y-78528152D01*
X121721666Y-78528152D02*
X121721666Y-78861485D01*
X121721666Y-78861485D02*
X121769285Y-79051961D01*
X121769285Y-79051961D02*
X121864523Y-79147200D01*
X121864523Y-79147200D02*
X121959761Y-79194819D01*
X121959761Y-79194819D02*
X122150237Y-79194819D01*
X122150237Y-79194819D02*
X122245475Y-79147200D01*
X122245475Y-79147200D02*
X122340713Y-79051961D01*
X122340713Y-79051961D02*
X122388332Y-78861485D01*
X122388332Y-78861485D02*
X122388332Y-78528152D01*
X122388332Y-78528152D02*
X122340713Y-78337676D01*
X122340713Y-78337676D02*
X122245475Y-78242438D01*
X122245475Y-78242438D02*
X122150237Y-78194819D01*
X122031191Y-96112800D02*
X122174048Y-96065180D01*
X122174048Y-96065180D02*
X122412143Y-96065180D01*
X122412143Y-96065180D02*
X122507381Y-96112800D01*
X122507381Y-96112800D02*
X122555000Y-96160419D01*
X122555000Y-96160419D02*
X122602619Y-96255657D01*
X122602619Y-96255657D02*
X122602619Y-96350895D01*
X122602619Y-96350895D02*
X122555000Y-96446133D01*
X122555000Y-96446133D02*
X122507381Y-96493752D01*
X122507381Y-96493752D02*
X122412143Y-96541371D01*
X122412143Y-96541371D02*
X122221667Y-96588990D01*
X122221667Y-96588990D02*
X122126429Y-96636609D01*
X122126429Y-96636609D02*
X122078810Y-96684228D01*
X122078810Y-96684228D02*
X122031191Y-96779466D01*
X122031191Y-96779466D02*
X122031191Y-96874704D01*
X122031191Y-96874704D02*
X122078810Y-96969942D01*
X122078810Y-96969942D02*
X122126429Y-97017561D01*
X122126429Y-97017561D02*
X122221667Y-97065180D01*
X122221667Y-97065180D02*
X122459762Y-97065180D01*
X122459762Y-97065180D02*
X122602619Y-97017561D01*
X123031191Y-96065180D02*
X123031191Y-97065180D01*
X123078808Y-76607200D02*
X122935951Y-76654819D01*
X122935951Y-76654819D02*
X122697856Y-76654819D01*
X122697856Y-76654819D02*
X122602618Y-76607200D01*
X122602618Y-76607200D02*
X122554999Y-76559580D01*
X122554999Y-76559580D02*
X122507380Y-76464342D01*
X122507380Y-76464342D02*
X122507380Y-76369104D01*
X122507380Y-76369104D02*
X122554999Y-76273866D01*
X122554999Y-76273866D02*
X122602618Y-76226247D01*
X122602618Y-76226247D02*
X122697856Y-76178628D01*
X122697856Y-76178628D02*
X122888332Y-76131009D01*
X122888332Y-76131009D02*
X122983570Y-76083390D01*
X122983570Y-76083390D02*
X123031189Y-76035771D01*
X123031189Y-76035771D02*
X123078808Y-75940533D01*
X123078808Y-75940533D02*
X123078808Y-75845295D01*
X123078808Y-75845295D02*
X123031189Y-75750057D01*
X123031189Y-75750057D02*
X122983570Y-75702438D01*
X122983570Y-75702438D02*
X122888332Y-75654819D01*
X122888332Y-75654819D02*
X122650237Y-75654819D01*
X122650237Y-75654819D02*
X122507380Y-75702438D01*
X122078808Y-76654819D02*
X122078808Y-75654819D01*
X84939286Y-93525180D02*
X84939286Y-94525180D01*
X84939286Y-94525180D02*
X85177381Y-94525180D01*
X85177381Y-94525180D02*
X85320238Y-94477561D01*
X85320238Y-94477561D02*
X85415476Y-94382323D01*
X85415476Y-94382323D02*
X85463095Y-94287085D01*
X85463095Y-94287085D02*
X85510714Y-94096609D01*
X85510714Y-94096609D02*
X85510714Y-93953752D01*
X85510714Y-93953752D02*
X85463095Y-93763276D01*
X85463095Y-93763276D02*
X85415476Y-93668038D01*
X85415476Y-93668038D02*
X85320238Y-93572800D01*
X85320238Y-93572800D02*
X85177381Y-93525180D01*
X85177381Y-93525180D02*
X84939286Y-93525180D01*
X86129762Y-94525180D02*
X86320238Y-94525180D01*
X86320238Y-94525180D02*
X86415476Y-94477561D01*
X86415476Y-94477561D02*
X86510714Y-94382323D01*
X86510714Y-94382323D02*
X86558333Y-94191847D01*
X86558333Y-94191847D02*
X86558333Y-93858514D01*
X86558333Y-93858514D02*
X86510714Y-93668038D01*
X86510714Y-93668038D02*
X86415476Y-93572800D01*
X86415476Y-93572800D02*
X86320238Y-93525180D01*
X86320238Y-93525180D02*
X86129762Y-93525180D01*
X86129762Y-93525180D02*
X86034524Y-93572800D01*
X86034524Y-93572800D02*
X85939286Y-93668038D01*
X85939286Y-93668038D02*
X85891667Y-93858514D01*
X85891667Y-93858514D02*
X85891667Y-94191847D01*
X85891667Y-94191847D02*
X85939286Y-94382323D01*
X85939286Y-94382323D02*
X86034524Y-94477561D01*
X86034524Y-94477561D02*
X86129762Y-94525180D01*
X108166819Y-103917905D02*
X108166819Y-104489333D01*
X109166819Y-104203619D02*
X108166819Y-104203619D01*
X109166819Y-105346476D02*
X109166819Y-104775048D01*
X109166819Y-105060762D02*
X108166819Y-105060762D01*
X108166819Y-105060762D02*
X108309676Y-104965524D01*
X108309676Y-104965524D02*
X108404914Y-104870286D01*
X108404914Y-104870286D02*
X108452533Y-104775048D01*
X108166819Y-105965524D02*
X108166819Y-106060762D01*
X108166819Y-106060762D02*
X108214438Y-106156000D01*
X108214438Y-106156000D02*
X108262057Y-106203619D01*
X108262057Y-106203619D02*
X108357295Y-106251238D01*
X108357295Y-106251238D02*
X108547771Y-106298857D01*
X108547771Y-106298857D02*
X108785866Y-106298857D01*
X108785866Y-106298857D02*
X108976342Y-106251238D01*
X108976342Y-106251238D02*
X109071580Y-106203619D01*
X109071580Y-106203619D02*
X109119200Y-106156000D01*
X109119200Y-106156000D02*
X109166819Y-106060762D01*
X109166819Y-106060762D02*
X109166819Y-105965524D01*
X109166819Y-105965524D02*
X109119200Y-105870286D01*
X109119200Y-105870286D02*
X109071580Y-105822667D01*
X109071580Y-105822667D02*
X108976342Y-105775048D01*
X108976342Y-105775048D02*
X108785866Y-105727429D01*
X108785866Y-105727429D02*
X108547771Y-105727429D01*
X108547771Y-105727429D02*
X108357295Y-105775048D01*
X108357295Y-105775048D02*
X108262057Y-105822667D01*
X108262057Y-105822667D02*
X108214438Y-105870286D01*
X108214438Y-105870286D02*
X108166819Y-105965524D01*
X99702857Y-94339580D02*
X99750476Y-94387200D01*
X99750476Y-94387200D02*
X99893333Y-94434819D01*
X99893333Y-94434819D02*
X99988571Y-94434819D01*
X99988571Y-94434819D02*
X100131428Y-94387200D01*
X100131428Y-94387200D02*
X100226666Y-94291961D01*
X100226666Y-94291961D02*
X100274285Y-94196723D01*
X100274285Y-94196723D02*
X100321904Y-94006247D01*
X100321904Y-94006247D02*
X100321904Y-93863390D01*
X100321904Y-93863390D02*
X100274285Y-93672914D01*
X100274285Y-93672914D02*
X100226666Y-93577676D01*
X100226666Y-93577676D02*
X100131428Y-93482438D01*
X100131428Y-93482438D02*
X99988571Y-93434819D01*
X99988571Y-93434819D02*
X99893333Y-93434819D01*
X99893333Y-93434819D02*
X99750476Y-93482438D01*
X99750476Y-93482438D02*
X99702857Y-93530057D01*
X98750476Y-94434819D02*
X99321904Y-94434819D01*
X99036190Y-94434819D02*
X99036190Y-93434819D01*
X99036190Y-93434819D02*
X99131428Y-93577676D01*
X99131428Y-93577676D02*
X99226666Y-93672914D01*
X99226666Y-93672914D02*
X99321904Y-93720533D01*
X98369523Y-93530057D02*
X98321904Y-93482438D01*
X98321904Y-93482438D02*
X98226666Y-93434819D01*
X98226666Y-93434819D02*
X97988571Y-93434819D01*
X97988571Y-93434819D02*
X97893333Y-93482438D01*
X97893333Y-93482438D02*
X97845714Y-93530057D01*
X97845714Y-93530057D02*
X97798095Y-93625295D01*
X97798095Y-93625295D02*
X97798095Y-93720533D01*
X97798095Y-93720533D02*
X97845714Y-93863390D01*
X97845714Y-93863390D02*
X98417142Y-94434819D01*
X98417142Y-94434819D02*
X97798095Y-94434819D01*
X98911580Y-101433335D02*
X98959200Y-101385716D01*
X98959200Y-101385716D02*
X99006819Y-101242859D01*
X99006819Y-101242859D02*
X99006819Y-101147621D01*
X99006819Y-101147621D02*
X98959200Y-101004764D01*
X98959200Y-101004764D02*
X98863961Y-100909526D01*
X98863961Y-100909526D02*
X98768723Y-100861907D01*
X98768723Y-100861907D02*
X98578247Y-100814288D01*
X98578247Y-100814288D02*
X98435390Y-100814288D01*
X98435390Y-100814288D02*
X98244914Y-100861907D01*
X98244914Y-100861907D02*
X98149676Y-100909526D01*
X98149676Y-100909526D02*
X98054438Y-101004764D01*
X98054438Y-101004764D02*
X98006819Y-101147621D01*
X98006819Y-101147621D02*
X98006819Y-101242859D01*
X98006819Y-101242859D02*
X98054438Y-101385716D01*
X98054438Y-101385716D02*
X98102057Y-101433335D01*
X99006819Y-101909526D02*
X99006819Y-102100002D01*
X99006819Y-102100002D02*
X98959200Y-102195240D01*
X98959200Y-102195240D02*
X98911580Y-102242859D01*
X98911580Y-102242859D02*
X98768723Y-102338097D01*
X98768723Y-102338097D02*
X98578247Y-102385716D01*
X98578247Y-102385716D02*
X98197295Y-102385716D01*
X98197295Y-102385716D02*
X98102057Y-102338097D01*
X98102057Y-102338097D02*
X98054438Y-102290478D01*
X98054438Y-102290478D02*
X98006819Y-102195240D01*
X98006819Y-102195240D02*
X98006819Y-102004764D01*
X98006819Y-102004764D02*
X98054438Y-101909526D01*
X98054438Y-101909526D02*
X98102057Y-101861907D01*
X98102057Y-101861907D02*
X98197295Y-101814288D01*
X98197295Y-101814288D02*
X98435390Y-101814288D01*
X98435390Y-101814288D02*
X98530628Y-101861907D01*
X98530628Y-101861907D02*
X98578247Y-101909526D01*
X98578247Y-101909526D02*
X98625866Y-102004764D01*
X98625866Y-102004764D02*
X98625866Y-102195240D01*
X98625866Y-102195240D02*
X98578247Y-102290478D01*
X98578247Y-102290478D02*
X98530628Y-102338097D01*
X98530628Y-102338097D02*
X98435390Y-102385716D01*
X107404819Y-64166905D02*
X107404819Y-64738333D01*
X108404819Y-64452619D02*
X107404819Y-64452619D01*
X108404819Y-65595476D02*
X108404819Y-65024048D01*
X108404819Y-65309762D02*
X107404819Y-65309762D01*
X107404819Y-65309762D02*
X107547676Y-65214524D01*
X107547676Y-65214524D02*
X107642914Y-65119286D01*
X107642914Y-65119286D02*
X107690533Y-65024048D01*
X107404819Y-65928810D02*
X107404819Y-66547857D01*
X107404819Y-66547857D02*
X107785771Y-66214524D01*
X107785771Y-66214524D02*
X107785771Y-66357381D01*
X107785771Y-66357381D02*
X107833390Y-66452619D01*
X107833390Y-66452619D02*
X107881009Y-66500238D01*
X107881009Y-66500238D02*
X107976247Y-66547857D01*
X107976247Y-66547857D02*
X108214342Y-66547857D01*
X108214342Y-66547857D02*
X108309580Y-66500238D01*
X108309580Y-66500238D02*
X108357200Y-66452619D01*
X108357200Y-66452619D02*
X108404819Y-66357381D01*
X108404819Y-66357381D02*
X108404819Y-66071667D01*
X108404819Y-66071667D02*
X108357200Y-65976429D01*
X108357200Y-65976429D02*
X108309580Y-65928810D01*
X99784820Y-70516904D02*
X99784820Y-71088332D01*
X100784820Y-70802618D02*
X99784820Y-70802618D01*
X100784820Y-71945475D02*
X100784820Y-71374047D01*
X100784820Y-71659761D02*
X99784820Y-71659761D01*
X99784820Y-71659761D02*
X99927677Y-71564523D01*
X99927677Y-71564523D02*
X100022915Y-71469285D01*
X100022915Y-71469285D02*
X100070534Y-71374047D01*
X99784820Y-72802618D02*
X99784820Y-72612142D01*
X99784820Y-72612142D02*
X99832439Y-72516904D01*
X99832439Y-72516904D02*
X99880058Y-72469285D01*
X99880058Y-72469285D02*
X100022915Y-72374047D01*
X100022915Y-72374047D02*
X100213391Y-72326428D01*
X100213391Y-72326428D02*
X100594343Y-72326428D01*
X100594343Y-72326428D02*
X100689581Y-72374047D01*
X100689581Y-72374047D02*
X100737201Y-72421666D01*
X100737201Y-72421666D02*
X100784820Y-72516904D01*
X100784820Y-72516904D02*
X100784820Y-72707380D01*
X100784820Y-72707380D02*
X100737201Y-72802618D01*
X100737201Y-72802618D02*
X100689581Y-72850237D01*
X100689581Y-72850237D02*
X100594343Y-72897856D01*
X100594343Y-72897856D02*
X100356248Y-72897856D01*
X100356248Y-72897856D02*
X100261010Y-72850237D01*
X100261010Y-72850237D02*
X100213391Y-72802618D01*
X100213391Y-72802618D02*
X100165772Y-72707380D01*
X100165772Y-72707380D02*
X100165772Y-72516904D01*
X100165772Y-72516904D02*
X100213391Y-72421666D01*
X100213391Y-72421666D02*
X100261010Y-72374047D01*
X100261010Y-72374047D02*
X100356248Y-72326428D01*
X109862858Y-79607580D02*
X109910477Y-79655200D01*
X109910477Y-79655200D02*
X110053334Y-79702819D01*
X110053334Y-79702819D02*
X110148572Y-79702819D01*
X110148572Y-79702819D02*
X110291429Y-79655200D01*
X110291429Y-79655200D02*
X110386667Y-79559961D01*
X110386667Y-79559961D02*
X110434286Y-79464723D01*
X110434286Y-79464723D02*
X110481905Y-79274247D01*
X110481905Y-79274247D02*
X110481905Y-79131390D01*
X110481905Y-79131390D02*
X110434286Y-78940914D01*
X110434286Y-78940914D02*
X110386667Y-78845676D01*
X110386667Y-78845676D02*
X110291429Y-78750438D01*
X110291429Y-78750438D02*
X110148572Y-78702819D01*
X110148572Y-78702819D02*
X110053334Y-78702819D01*
X110053334Y-78702819D02*
X109910477Y-78750438D01*
X109910477Y-78750438D02*
X109862858Y-78798057D01*
X108910477Y-79702819D02*
X109481905Y-79702819D01*
X109196191Y-79702819D02*
X109196191Y-78702819D01*
X109196191Y-78702819D02*
X109291429Y-78845676D01*
X109291429Y-78845676D02*
X109386667Y-78940914D01*
X109386667Y-78940914D02*
X109481905Y-78988533D01*
X108053334Y-78702819D02*
X108243810Y-78702819D01*
X108243810Y-78702819D02*
X108339048Y-78750438D01*
X108339048Y-78750438D02*
X108386667Y-78798057D01*
X108386667Y-78798057D02*
X108481905Y-78940914D01*
X108481905Y-78940914D02*
X108529524Y-79131390D01*
X108529524Y-79131390D02*
X108529524Y-79512342D01*
X108529524Y-79512342D02*
X108481905Y-79607580D01*
X108481905Y-79607580D02*
X108434286Y-79655200D01*
X108434286Y-79655200D02*
X108339048Y-79702819D01*
X108339048Y-79702819D02*
X108148572Y-79702819D01*
X108148572Y-79702819D02*
X108053334Y-79655200D01*
X108053334Y-79655200D02*
X108005715Y-79607580D01*
X108005715Y-79607580D02*
X107958096Y-79512342D01*
X107958096Y-79512342D02*
X107958096Y-79274247D01*
X107958096Y-79274247D02*
X108005715Y-79179009D01*
X108005715Y-79179009D02*
X108053334Y-79131390D01*
X108053334Y-79131390D02*
X108148572Y-79083771D01*
X108148572Y-79083771D02*
X108339048Y-79083771D01*
X108339048Y-79083771D02*
X108434286Y-79131390D01*
X108434286Y-79131390D02*
X108481905Y-79179009D01*
X108481905Y-79179009D02*
X108529524Y-79274247D01*
X109354857Y-109071580D02*
X109402476Y-109119200D01*
X109402476Y-109119200D02*
X109545333Y-109166819D01*
X109545333Y-109166819D02*
X109640571Y-109166819D01*
X109640571Y-109166819D02*
X109783428Y-109119200D01*
X109783428Y-109119200D02*
X109878666Y-109023961D01*
X109878666Y-109023961D02*
X109926285Y-108928723D01*
X109926285Y-108928723D02*
X109973904Y-108738247D01*
X109973904Y-108738247D02*
X109973904Y-108595390D01*
X109973904Y-108595390D02*
X109926285Y-108404914D01*
X109926285Y-108404914D02*
X109878666Y-108309676D01*
X109878666Y-108309676D02*
X109783428Y-108214438D01*
X109783428Y-108214438D02*
X109640571Y-108166819D01*
X109640571Y-108166819D02*
X109545333Y-108166819D01*
X109545333Y-108166819D02*
X109402476Y-108214438D01*
X109402476Y-108214438D02*
X109354857Y-108262057D01*
X108402476Y-109166819D02*
X108973904Y-109166819D01*
X108688190Y-109166819D02*
X108688190Y-108166819D01*
X108688190Y-108166819D02*
X108783428Y-108309676D01*
X108783428Y-108309676D02*
X108878666Y-108404914D01*
X108878666Y-108404914D02*
X108973904Y-108452533D01*
X107783428Y-108166819D02*
X107688190Y-108166819D01*
X107688190Y-108166819D02*
X107592952Y-108214438D01*
X107592952Y-108214438D02*
X107545333Y-108262057D01*
X107545333Y-108262057D02*
X107497714Y-108357295D01*
X107497714Y-108357295D02*
X107450095Y-108547771D01*
X107450095Y-108547771D02*
X107450095Y-108785866D01*
X107450095Y-108785866D02*
X107497714Y-108976342D01*
X107497714Y-108976342D02*
X107545333Y-109071580D01*
X107545333Y-109071580D02*
X107592952Y-109119200D01*
X107592952Y-109119200D02*
X107688190Y-109166819D01*
X107688190Y-109166819D02*
X107783428Y-109166819D01*
X107783428Y-109166819D02*
X107878666Y-109119200D01*
X107878666Y-109119200D02*
X107926285Y-109071580D01*
X107926285Y-109071580D02*
X107973904Y-108976342D01*
X107973904Y-108976342D02*
X108021523Y-108785866D01*
X108021523Y-108785866D02*
X108021523Y-108547771D01*
X108021523Y-108547771D02*
X107973904Y-108357295D01*
X107973904Y-108357295D02*
X107926285Y-108262057D01*
X107926285Y-108262057D02*
X107878666Y-108214438D01*
X107878666Y-108214438D02*
X107783428Y-108166819D01*
X100210857Y-64875580D02*
X100258476Y-64923200D01*
X100258476Y-64923200D02*
X100401333Y-64970819D01*
X100401333Y-64970819D02*
X100496571Y-64970819D01*
X100496571Y-64970819D02*
X100639428Y-64923200D01*
X100639428Y-64923200D02*
X100734666Y-64827961D01*
X100734666Y-64827961D02*
X100782285Y-64732723D01*
X100782285Y-64732723D02*
X100829904Y-64542247D01*
X100829904Y-64542247D02*
X100829904Y-64399390D01*
X100829904Y-64399390D02*
X100782285Y-64208914D01*
X100782285Y-64208914D02*
X100734666Y-64113676D01*
X100734666Y-64113676D02*
X100639428Y-64018438D01*
X100639428Y-64018438D02*
X100496571Y-63970819D01*
X100496571Y-63970819D02*
X100401333Y-63970819D01*
X100401333Y-63970819D02*
X100258476Y-64018438D01*
X100258476Y-64018438D02*
X100210857Y-64066057D01*
X99258476Y-64970819D02*
X99829904Y-64970819D01*
X99544190Y-64970819D02*
X99544190Y-63970819D01*
X99544190Y-63970819D02*
X99639428Y-64113676D01*
X99639428Y-64113676D02*
X99734666Y-64208914D01*
X99734666Y-64208914D02*
X99829904Y-64256533D01*
X98401333Y-64304152D02*
X98401333Y-64970819D01*
X98639428Y-63923200D02*
X98877523Y-64637485D01*
X98877523Y-64637485D02*
X98258476Y-64637485D01*
X107404824Y-99726906D02*
X107404824Y-100298334D01*
X108404824Y-100012620D02*
X107404824Y-100012620D01*
X108404824Y-101155477D02*
X108404824Y-100584049D01*
X108404824Y-100869763D02*
X107404824Y-100869763D01*
X107404824Y-100869763D02*
X107547681Y-100774525D01*
X107547681Y-100774525D02*
X107642919Y-100679287D01*
X107642919Y-100679287D02*
X107690538Y-100584049D01*
X107500062Y-101536430D02*
X107452443Y-101584049D01*
X107452443Y-101584049D02*
X107404824Y-101679287D01*
X107404824Y-101679287D02*
X107404824Y-101917382D01*
X107404824Y-101917382D02*
X107452443Y-102012620D01*
X107452443Y-102012620D02*
X107500062Y-102060239D01*
X107500062Y-102060239D02*
X107595300Y-102107858D01*
X107595300Y-102107858D02*
X107690538Y-102107858D01*
X107690538Y-102107858D02*
X107833395Y-102060239D01*
X107833395Y-102060239D02*
X108404824Y-101488811D01*
X108404824Y-101488811D02*
X108404824Y-102107858D01*
X106402094Y-98498819D02*
X106402094Y-97498819D01*
X106402094Y-97498819D02*
X106163999Y-97498819D01*
X106163999Y-97498819D02*
X106021142Y-97546438D01*
X106021142Y-97546438D02*
X105925904Y-97641676D01*
X105925904Y-97641676D02*
X105878285Y-97736914D01*
X105878285Y-97736914D02*
X105830666Y-97927390D01*
X105830666Y-97927390D02*
X105830666Y-98070247D01*
X105830666Y-98070247D02*
X105878285Y-98260723D01*
X105878285Y-98260723D02*
X105925904Y-98355961D01*
X105925904Y-98355961D02*
X106021142Y-98451200D01*
X106021142Y-98451200D02*
X106163999Y-98498819D01*
X106163999Y-98498819D02*
X106402094Y-98498819D01*
X105497332Y-97498819D02*
X104878285Y-97498819D01*
X104878285Y-97498819D02*
X105211618Y-97879771D01*
X105211618Y-97879771D02*
X105068761Y-97879771D01*
X105068761Y-97879771D02*
X104973523Y-97927390D01*
X104973523Y-97927390D02*
X104925904Y-97975009D01*
X104925904Y-97975009D02*
X104878285Y-98070247D01*
X104878285Y-98070247D02*
X104878285Y-98308342D01*
X104878285Y-98308342D02*
X104925904Y-98403580D01*
X104925904Y-98403580D02*
X104973523Y-98451200D01*
X104973523Y-98451200D02*
X105068761Y-98498819D01*
X105068761Y-98498819D02*
X105354475Y-98498819D01*
X105354475Y-98498819D02*
X105449713Y-98451200D01*
X105449713Y-98451200D02*
X105497332Y-98403580D01*
X108658819Y-90003333D02*
X108182628Y-89670000D01*
X108658819Y-89431905D02*
X107658819Y-89431905D01*
X107658819Y-89431905D02*
X107658819Y-89812857D01*
X107658819Y-89812857D02*
X107706438Y-89908095D01*
X107706438Y-89908095D02*
X107754057Y-89955714D01*
X107754057Y-89955714D02*
X107849295Y-90003333D01*
X107849295Y-90003333D02*
X107992152Y-90003333D01*
X107992152Y-90003333D02*
X108087390Y-89955714D01*
X108087390Y-89955714D02*
X108135009Y-89908095D01*
X108135009Y-89908095D02*
X108182628Y-89812857D01*
X108182628Y-89812857D02*
X108182628Y-89431905D01*
X108658819Y-90479524D02*
X108658819Y-90670000D01*
X108658819Y-90670000D02*
X108611200Y-90765238D01*
X108611200Y-90765238D02*
X108563580Y-90812857D01*
X108563580Y-90812857D02*
X108420723Y-90908095D01*
X108420723Y-90908095D02*
X108230247Y-90955714D01*
X108230247Y-90955714D02*
X107849295Y-90955714D01*
X107849295Y-90955714D02*
X107754057Y-90908095D01*
X107754057Y-90908095D02*
X107706438Y-90860476D01*
X107706438Y-90860476D02*
X107658819Y-90765238D01*
X107658819Y-90765238D02*
X107658819Y-90574762D01*
X107658819Y-90574762D02*
X107706438Y-90479524D01*
X107706438Y-90479524D02*
X107754057Y-90431905D01*
X107754057Y-90431905D02*
X107849295Y-90384286D01*
X107849295Y-90384286D02*
X108087390Y-90384286D01*
X108087390Y-90384286D02*
X108182628Y-90431905D01*
X108182628Y-90431905D02*
X108230247Y-90479524D01*
X108230247Y-90479524D02*
X108277866Y-90574762D01*
X108277866Y-90574762D02*
X108277866Y-90765238D01*
X108277866Y-90765238D02*
X108230247Y-90860476D01*
X108230247Y-90860476D02*
X108182628Y-90908095D01*
X108182628Y-90908095D02*
X108087390Y-90955714D01*
X110595580Y-70477142D02*
X110643200Y-70429523D01*
X110643200Y-70429523D02*
X110690819Y-70286666D01*
X110690819Y-70286666D02*
X110690819Y-70191428D01*
X110690819Y-70191428D02*
X110643200Y-70048571D01*
X110643200Y-70048571D02*
X110547961Y-69953333D01*
X110547961Y-69953333D02*
X110452723Y-69905714D01*
X110452723Y-69905714D02*
X110262247Y-69858095D01*
X110262247Y-69858095D02*
X110119390Y-69858095D01*
X110119390Y-69858095D02*
X109928914Y-69905714D01*
X109928914Y-69905714D02*
X109833676Y-69953333D01*
X109833676Y-69953333D02*
X109738438Y-70048571D01*
X109738438Y-70048571D02*
X109690819Y-70191428D01*
X109690819Y-70191428D02*
X109690819Y-70286666D01*
X109690819Y-70286666D02*
X109738438Y-70429523D01*
X109738438Y-70429523D02*
X109786057Y-70477142D01*
X110690819Y-71429523D02*
X110690819Y-70858095D01*
X110690819Y-71143809D02*
X109690819Y-71143809D01*
X109690819Y-71143809D02*
X109833676Y-71048571D01*
X109833676Y-71048571D02*
X109928914Y-70953333D01*
X109928914Y-70953333D02*
X109976533Y-70858095D01*
X109690819Y-71762857D02*
X109690819Y-72381904D01*
X109690819Y-72381904D02*
X110071771Y-72048571D01*
X110071771Y-72048571D02*
X110071771Y-72191428D01*
X110071771Y-72191428D02*
X110119390Y-72286666D01*
X110119390Y-72286666D02*
X110167009Y-72334285D01*
X110167009Y-72334285D02*
X110262247Y-72381904D01*
X110262247Y-72381904D02*
X110500342Y-72381904D01*
X110500342Y-72381904D02*
X110595580Y-72334285D01*
X110595580Y-72334285D02*
X110643200Y-72286666D01*
X110643200Y-72286666D02*
X110690819Y-72191428D01*
X110690819Y-72191428D02*
X110690819Y-71905714D01*
X110690819Y-71905714D02*
X110643200Y-71810476D01*
X110643200Y-71810476D02*
X110595580Y-71762857D01*
X114942857Y-79702819D02*
X115276190Y-79226628D01*
X115514285Y-79702819D02*
X115514285Y-78702819D01*
X115514285Y-78702819D02*
X115133333Y-78702819D01*
X115133333Y-78702819D02*
X115038095Y-78750438D01*
X115038095Y-78750438D02*
X114990476Y-78798057D01*
X114990476Y-78798057D02*
X114942857Y-78893295D01*
X114942857Y-78893295D02*
X114942857Y-79036152D01*
X114942857Y-79036152D02*
X114990476Y-79131390D01*
X114990476Y-79131390D02*
X115038095Y-79179009D01*
X115038095Y-79179009D02*
X115133333Y-79226628D01*
X115133333Y-79226628D02*
X115514285Y-79226628D01*
X113990476Y-79702819D02*
X114561904Y-79702819D01*
X114276190Y-79702819D02*
X114276190Y-78702819D01*
X114276190Y-78702819D02*
X114371428Y-78845676D01*
X114371428Y-78845676D02*
X114466666Y-78940914D01*
X114466666Y-78940914D02*
X114561904Y-78988533D01*
X113038095Y-79702819D02*
X113609523Y-79702819D01*
X113323809Y-79702819D02*
X113323809Y-78702819D01*
X113323809Y-78702819D02*
X113419047Y-78845676D01*
X113419047Y-78845676D02*
X113514285Y-78940914D01*
X113514285Y-78940914D02*
X113609523Y-78988533D01*
X104782856Y-94339580D02*
X104830475Y-94387200D01*
X104830475Y-94387200D02*
X104973332Y-94434819D01*
X104973332Y-94434819D02*
X105068570Y-94434819D01*
X105068570Y-94434819D02*
X105211427Y-94387200D01*
X105211427Y-94387200D02*
X105306665Y-94291961D01*
X105306665Y-94291961D02*
X105354284Y-94196723D01*
X105354284Y-94196723D02*
X105401903Y-94006247D01*
X105401903Y-94006247D02*
X105401903Y-93863390D01*
X105401903Y-93863390D02*
X105354284Y-93672914D01*
X105354284Y-93672914D02*
X105306665Y-93577676D01*
X105306665Y-93577676D02*
X105211427Y-93482438D01*
X105211427Y-93482438D02*
X105068570Y-93434819D01*
X105068570Y-93434819D02*
X104973332Y-93434819D01*
X104973332Y-93434819D02*
X104830475Y-93482438D01*
X104830475Y-93482438D02*
X104782856Y-93530057D01*
X103830475Y-94434819D02*
X104401903Y-94434819D01*
X104116189Y-94434819D02*
X104116189Y-93434819D01*
X104116189Y-93434819D02*
X104211427Y-93577676D01*
X104211427Y-93577676D02*
X104306665Y-93672914D01*
X104306665Y-93672914D02*
X104401903Y-93720533D01*
X102878094Y-94434819D02*
X103449522Y-94434819D01*
X103163808Y-94434819D02*
X103163808Y-93434819D01*
X103163808Y-93434819D02*
X103259046Y-93577676D01*
X103259046Y-93577676D02*
X103354284Y-93672914D01*
X103354284Y-93672914D02*
X103449522Y-93720533D01*
X94146666Y-94434819D02*
X94479999Y-93958628D01*
X94718094Y-94434819D02*
X94718094Y-93434819D01*
X94718094Y-93434819D02*
X94337142Y-93434819D01*
X94337142Y-93434819D02*
X94241904Y-93482438D01*
X94241904Y-93482438D02*
X94194285Y-93530057D01*
X94194285Y-93530057D02*
X94146666Y-93625295D01*
X94146666Y-93625295D02*
X94146666Y-93768152D01*
X94146666Y-93768152D02*
X94194285Y-93863390D01*
X94194285Y-93863390D02*
X94241904Y-93911009D01*
X94241904Y-93911009D02*
X94337142Y-93958628D01*
X94337142Y-93958628D02*
X94718094Y-93958628D01*
X93575237Y-93863390D02*
X93670475Y-93815771D01*
X93670475Y-93815771D02*
X93718094Y-93768152D01*
X93718094Y-93768152D02*
X93765713Y-93672914D01*
X93765713Y-93672914D02*
X93765713Y-93625295D01*
X93765713Y-93625295D02*
X93718094Y-93530057D01*
X93718094Y-93530057D02*
X93670475Y-93482438D01*
X93670475Y-93482438D02*
X93575237Y-93434819D01*
X93575237Y-93434819D02*
X93384761Y-93434819D01*
X93384761Y-93434819D02*
X93289523Y-93482438D01*
X93289523Y-93482438D02*
X93241904Y-93530057D01*
X93241904Y-93530057D02*
X93194285Y-93625295D01*
X93194285Y-93625295D02*
X93194285Y-93672914D01*
X93194285Y-93672914D02*
X93241904Y-93768152D01*
X93241904Y-93768152D02*
X93289523Y-93815771D01*
X93289523Y-93815771D02*
X93384761Y-93863390D01*
X93384761Y-93863390D02*
X93575237Y-93863390D01*
X93575237Y-93863390D02*
X93670475Y-93911009D01*
X93670475Y-93911009D02*
X93718094Y-93958628D01*
X93718094Y-93958628D02*
X93765713Y-94053866D01*
X93765713Y-94053866D02*
X93765713Y-94244342D01*
X93765713Y-94244342D02*
X93718094Y-94339580D01*
X93718094Y-94339580D02*
X93670475Y-94387200D01*
X93670475Y-94387200D02*
X93575237Y-94434819D01*
X93575237Y-94434819D02*
X93384761Y-94434819D01*
X93384761Y-94434819D02*
X93289523Y-94387200D01*
X93289523Y-94387200D02*
X93241904Y-94339580D01*
X93241904Y-94339580D02*
X93194285Y-94244342D01*
X93194285Y-94244342D02*
X93194285Y-94053866D01*
X93194285Y-94053866D02*
X93241904Y-93958628D01*
X93241904Y-93958628D02*
X93289523Y-93911009D01*
X93289523Y-93911009D02*
X93384761Y-93863390D01*
X103354094Y-75638819D02*
X103354094Y-74638819D01*
X103354094Y-74638819D02*
X103115999Y-74638819D01*
X103115999Y-74638819D02*
X102973142Y-74686438D01*
X102973142Y-74686438D02*
X102877904Y-74781676D01*
X102877904Y-74781676D02*
X102830285Y-74876914D01*
X102830285Y-74876914D02*
X102782666Y-75067390D01*
X102782666Y-75067390D02*
X102782666Y-75210247D01*
X102782666Y-75210247D02*
X102830285Y-75400723D01*
X102830285Y-75400723D02*
X102877904Y-75495961D01*
X102877904Y-75495961D02*
X102973142Y-75591200D01*
X102973142Y-75591200D02*
X103115999Y-75638819D01*
X103115999Y-75638819D02*
X103354094Y-75638819D01*
X101925523Y-74972152D02*
X101925523Y-75638819D01*
X102163618Y-74591200D02*
X102401713Y-75305485D01*
X102401713Y-75305485D02*
X101782666Y-75305485D01*
X99006819Y-96353334D02*
X98530628Y-96020001D01*
X99006819Y-95781906D02*
X98006819Y-95781906D01*
X98006819Y-95781906D02*
X98006819Y-96162858D01*
X98006819Y-96162858D02*
X98054438Y-96258096D01*
X98054438Y-96258096D02*
X98102057Y-96305715D01*
X98102057Y-96305715D02*
X98197295Y-96353334D01*
X98197295Y-96353334D02*
X98340152Y-96353334D01*
X98340152Y-96353334D02*
X98435390Y-96305715D01*
X98435390Y-96305715D02*
X98483009Y-96258096D01*
X98483009Y-96258096D02*
X98530628Y-96162858D01*
X98530628Y-96162858D02*
X98530628Y-95781906D01*
X98006819Y-96686668D02*
X98006819Y-97353334D01*
X98006819Y-97353334D02*
X99006819Y-96924763D01*
X110690819Y-75557141D02*
X110214628Y-75223808D01*
X110690819Y-74985713D02*
X109690819Y-74985713D01*
X109690819Y-74985713D02*
X109690819Y-75366665D01*
X109690819Y-75366665D02*
X109738438Y-75461903D01*
X109738438Y-75461903D02*
X109786057Y-75509522D01*
X109786057Y-75509522D02*
X109881295Y-75557141D01*
X109881295Y-75557141D02*
X110024152Y-75557141D01*
X110024152Y-75557141D02*
X110119390Y-75509522D01*
X110119390Y-75509522D02*
X110167009Y-75461903D01*
X110167009Y-75461903D02*
X110214628Y-75366665D01*
X110214628Y-75366665D02*
X110214628Y-74985713D01*
X110690819Y-76509522D02*
X110690819Y-75938094D01*
X110690819Y-76223808D02*
X109690819Y-76223808D01*
X109690819Y-76223808D02*
X109833676Y-76128570D01*
X109833676Y-76128570D02*
X109928914Y-76033332D01*
X109928914Y-76033332D02*
X109976533Y-75938094D01*
X109690819Y-77128570D02*
X109690819Y-77223808D01*
X109690819Y-77223808D02*
X109738438Y-77319046D01*
X109738438Y-77319046D02*
X109786057Y-77366665D01*
X109786057Y-77366665D02*
X109881295Y-77414284D01*
X109881295Y-77414284D02*
X110071771Y-77461903D01*
X110071771Y-77461903D02*
X110309866Y-77461903D01*
X110309866Y-77461903D02*
X110500342Y-77414284D01*
X110500342Y-77414284D02*
X110595580Y-77366665D01*
X110595580Y-77366665D02*
X110643200Y-77319046D01*
X110643200Y-77319046D02*
X110690819Y-77223808D01*
X110690819Y-77223808D02*
X110690819Y-77128570D01*
X110690819Y-77128570D02*
X110643200Y-77033332D01*
X110643200Y-77033332D02*
X110595580Y-76985713D01*
X110595580Y-76985713D02*
X110500342Y-76938094D01*
X110500342Y-76938094D02*
X110309866Y-76890475D01*
X110309866Y-76890475D02*
X110071771Y-76890475D01*
X110071771Y-76890475D02*
X109881295Y-76938094D01*
X109881295Y-76938094D02*
X109786057Y-76985713D01*
X109786057Y-76985713D02*
X109738438Y-77033332D01*
X109738438Y-77033332D02*
X109690819Y-77128570D01*
X100038819Y-106934095D02*
X100038819Y-107505523D01*
X101038819Y-107219809D02*
X100038819Y-107219809D01*
X101038819Y-107886476D02*
X101038819Y-108076952D01*
X101038819Y-108076952D02*
X100991200Y-108172190D01*
X100991200Y-108172190D02*
X100943580Y-108219809D01*
X100943580Y-108219809D02*
X100800723Y-108315047D01*
X100800723Y-108315047D02*
X100610247Y-108362666D01*
X100610247Y-108362666D02*
X100229295Y-108362666D01*
X100229295Y-108362666D02*
X100134057Y-108315047D01*
X100134057Y-108315047D02*
X100086438Y-108267428D01*
X100086438Y-108267428D02*
X100038819Y-108172190D01*
X100038819Y-108172190D02*
X100038819Y-107981714D01*
X100038819Y-107981714D02*
X100086438Y-107886476D01*
X100086438Y-107886476D02*
X100134057Y-107838857D01*
X100134057Y-107838857D02*
X100229295Y-107791238D01*
X100229295Y-107791238D02*
X100467390Y-107791238D01*
X100467390Y-107791238D02*
X100562628Y-107838857D01*
X100562628Y-107838857D02*
X100610247Y-107886476D01*
X100610247Y-107886476D02*
X100657866Y-107981714D01*
X100657866Y-107981714D02*
X100657866Y-108172190D01*
X100657866Y-108172190D02*
X100610247Y-108267428D01*
X100610247Y-108267428D02*
X100562628Y-108315047D01*
X100562628Y-108315047D02*
X100467390Y-108362666D01*
X99784820Y-75596904D02*
X99784820Y-76168332D01*
X100784820Y-75882618D02*
X99784820Y-75882618D01*
X100784820Y-77025475D02*
X100784820Y-76454047D01*
X100784820Y-76739761D02*
X99784820Y-76739761D01*
X99784820Y-76739761D02*
X99927677Y-76644523D01*
X99927677Y-76644523D02*
X100022915Y-76549285D01*
X100022915Y-76549285D02*
X100070534Y-76454047D01*
X99784820Y-77930237D02*
X99784820Y-77454047D01*
X99784820Y-77454047D02*
X100261010Y-77406428D01*
X100261010Y-77406428D02*
X100213391Y-77454047D01*
X100213391Y-77454047D02*
X100165772Y-77549285D01*
X100165772Y-77549285D02*
X100165772Y-77787380D01*
X100165772Y-77787380D02*
X100213391Y-77882618D01*
X100213391Y-77882618D02*
X100261010Y-77930237D01*
X100261010Y-77930237D02*
X100356248Y-77977856D01*
X100356248Y-77977856D02*
X100594343Y-77977856D01*
X100594343Y-77977856D02*
X100689581Y-77930237D01*
X100689581Y-77930237D02*
X100737201Y-77882618D01*
X100737201Y-77882618D02*
X100784820Y-77787380D01*
X100784820Y-77787380D02*
X100784820Y-77549285D01*
X100784820Y-77549285D02*
X100737201Y-77454047D01*
X100737201Y-77454047D02*
X100689581Y-77406428D01*
X107404820Y-94646904D02*
X107404820Y-95218332D01*
X108404820Y-94932618D02*
X107404820Y-94932618D01*
X108404820Y-96075475D02*
X108404820Y-95504047D01*
X108404820Y-95789761D02*
X107404820Y-95789761D01*
X107404820Y-95789761D02*
X107547677Y-95694523D01*
X107547677Y-95694523D02*
X107642915Y-95599285D01*
X107642915Y-95599285D02*
X107690534Y-95504047D01*
X108404820Y-97027856D02*
X108404820Y-96456428D01*
X108404820Y-96742142D02*
X107404820Y-96742142D01*
X107404820Y-96742142D02*
X107547677Y-96646904D01*
X107547677Y-96646904D02*
X107642915Y-96551666D01*
X107642915Y-96551666D02*
X107690534Y-96456428D01*
X104782857Y-79607580D02*
X104830476Y-79655200D01*
X104830476Y-79655200D02*
X104973333Y-79702819D01*
X104973333Y-79702819D02*
X105068571Y-79702819D01*
X105068571Y-79702819D02*
X105211428Y-79655200D01*
X105211428Y-79655200D02*
X105306666Y-79559961D01*
X105306666Y-79559961D02*
X105354285Y-79464723D01*
X105354285Y-79464723D02*
X105401904Y-79274247D01*
X105401904Y-79274247D02*
X105401904Y-79131390D01*
X105401904Y-79131390D02*
X105354285Y-78940914D01*
X105354285Y-78940914D02*
X105306666Y-78845676D01*
X105306666Y-78845676D02*
X105211428Y-78750438D01*
X105211428Y-78750438D02*
X105068571Y-78702819D01*
X105068571Y-78702819D02*
X104973333Y-78702819D01*
X104973333Y-78702819D02*
X104830476Y-78750438D01*
X104830476Y-78750438D02*
X104782857Y-78798057D01*
X103830476Y-79702819D02*
X104401904Y-79702819D01*
X104116190Y-79702819D02*
X104116190Y-78702819D01*
X104116190Y-78702819D02*
X104211428Y-78845676D01*
X104211428Y-78845676D02*
X104306666Y-78940914D01*
X104306666Y-78940914D02*
X104401904Y-78988533D01*
X102925714Y-78702819D02*
X103401904Y-78702819D01*
X103401904Y-78702819D02*
X103449523Y-79179009D01*
X103449523Y-79179009D02*
X103401904Y-79131390D01*
X103401904Y-79131390D02*
X103306666Y-79083771D01*
X103306666Y-79083771D02*
X103068571Y-79083771D01*
X103068571Y-79083771D02*
X102973333Y-79131390D01*
X102973333Y-79131390D02*
X102925714Y-79179009D01*
X102925714Y-79179009D02*
X102878095Y-79274247D01*
X102878095Y-79274247D02*
X102878095Y-79512342D01*
X102878095Y-79512342D02*
X102925714Y-79607580D01*
X102925714Y-79607580D02*
X102973333Y-79655200D01*
X102973333Y-79655200D02*
X103068571Y-79702819D01*
X103068571Y-79702819D02*
X103306666Y-79702819D01*
X103306666Y-79702819D02*
X103401904Y-79655200D01*
X103401904Y-79655200D02*
X103449523Y-79607580D01*
X100530819Y-81907142D02*
X100054628Y-81573809D01*
X100530819Y-81335714D02*
X99530819Y-81335714D01*
X99530819Y-81335714D02*
X99530819Y-81716666D01*
X99530819Y-81716666D02*
X99578438Y-81811904D01*
X99578438Y-81811904D02*
X99626057Y-81859523D01*
X99626057Y-81859523D02*
X99721295Y-81907142D01*
X99721295Y-81907142D02*
X99864152Y-81907142D01*
X99864152Y-81907142D02*
X99959390Y-81859523D01*
X99959390Y-81859523D02*
X100007009Y-81811904D01*
X100007009Y-81811904D02*
X100054628Y-81716666D01*
X100054628Y-81716666D02*
X100054628Y-81335714D01*
X100530819Y-82859523D02*
X100530819Y-82288095D01*
X100530819Y-82573809D02*
X99530819Y-82573809D01*
X99530819Y-82573809D02*
X99673676Y-82478571D01*
X99673676Y-82478571D02*
X99768914Y-82383333D01*
X99768914Y-82383333D02*
X99816533Y-82288095D01*
X99626057Y-83240476D02*
X99578438Y-83288095D01*
X99578438Y-83288095D02*
X99530819Y-83383333D01*
X99530819Y-83383333D02*
X99530819Y-83621428D01*
X99530819Y-83621428D02*
X99578438Y-83716666D01*
X99578438Y-83716666D02*
X99626057Y-83764285D01*
X99626057Y-83764285D02*
X99721295Y-83811904D01*
X99721295Y-83811904D02*
X99816533Y-83811904D01*
X99816533Y-83811904D02*
X99959390Y-83764285D01*
X99959390Y-83764285D02*
X100530819Y-83192857D01*
X100530819Y-83192857D02*
X100530819Y-83811904D01*
X99149820Y-66706904D02*
X99149820Y-67278332D01*
X100149820Y-66992618D02*
X99149820Y-66992618D01*
X100149820Y-68135475D02*
X100149820Y-67564047D01*
X100149820Y-67849761D02*
X99149820Y-67849761D01*
X99149820Y-67849761D02*
X99292677Y-67754523D01*
X99292677Y-67754523D02*
X99387915Y-67659285D01*
X99387915Y-67659285D02*
X99435534Y-67564047D01*
X99483153Y-68992618D02*
X100149820Y-68992618D01*
X99102201Y-68754523D02*
X99816486Y-68516428D01*
X99816486Y-68516428D02*
X99816486Y-69135475D01*
D13*
X105535000Y-103195001D02*
X104075000Y-103195001D01*
X105535000Y-103195001D02*
X105535000Y-104125001D01*
X105535000Y-106355001D02*
X102375000Y-106355001D01*
X105535000Y-106355001D02*
X105535000Y-105425001D01*
X100420001Y-89458752D02*
X100420001Y-90881256D01*
X97700001Y-89458752D02*
X97700001Y-90881256D01*
X93903752Y-100240002D02*
X95326256Y-100240002D01*
X93903752Y-102960002D02*
X95326256Y-102960002D01*
X111000000Y-66985000D02*
X112460000Y-66985000D01*
X111000000Y-66985000D02*
X111000000Y-66055000D01*
X111000000Y-63825000D02*
X114160000Y-63825000D01*
X111000000Y-63825000D02*
X111000000Y-64755000D01*
X90230000Y-105470000D02*
X87570000Y-105470000D01*
X90230000Y-92710000D02*
X90230000Y-105470000D01*
X90230000Y-92710000D02*
X87570000Y-92710000D01*
X90230000Y-91440000D02*
X90230000Y-90110000D01*
X90230000Y-90110000D02*
X88900000Y-90110000D01*
X87570000Y-92710000D02*
X87570000Y-105470000D01*
X97280001Y-70174999D02*
X95820001Y-70174999D01*
X97280001Y-70174999D02*
X97280001Y-71104999D01*
X97280001Y-73334999D02*
X94120001Y-73334999D01*
X97280001Y-73334999D02*
X97280001Y-72404999D01*
X107860001Y-83261253D02*
X107860001Y-81838749D01*
X110580001Y-83261253D02*
X110580001Y-81838749D01*
X111035001Y-107391252D02*
X111035001Y-105968748D01*
X113755001Y-107391252D02*
X113755001Y-105968748D01*
X97245001Y-65328749D02*
X97245001Y-66751253D01*
X94525001Y-65328749D02*
X94525001Y-66751253D01*
X111000005Y-102545001D02*
X112460005Y-102545001D01*
X111000005Y-102545001D02*
X111000005Y-101615001D01*
X111000005Y-99385001D02*
X114160005Y-99385001D01*
X111000005Y-99385001D02*
X111000005Y-100315001D01*
X102235001Y-96230003D02*
X101585001Y-96230003D01*
X102235001Y-96230003D02*
X102885001Y-96230003D01*
X102235001Y-99350003D02*
X100560001Y-99350003D01*
X102235001Y-99350003D02*
X102885001Y-99350003D01*
X111036265Y-88815000D02*
X112483739Y-88815000D01*
X111036265Y-91525000D02*
X112483739Y-91525000D01*
X114376253Y-72480001D02*
X112953749Y-72480001D01*
X114376253Y-69760001D02*
X112953749Y-69760001D01*
X115655000Y-81826263D02*
X115655000Y-83273737D01*
X112945000Y-81826263D02*
X112945000Y-83273737D01*
X105499999Y-89458749D02*
X105499999Y-90881253D01*
X102779999Y-89458749D02*
X102779999Y-90881253D01*
X118050000Y-67250000D02*
X120710000Y-67250000D01*
X118050000Y-80010000D02*
X118050000Y-67250000D01*
X118050000Y-80010000D02*
X120710000Y-80010000D01*
X118050000Y-81280000D02*
X118050000Y-82610000D01*
X118050000Y-82610000D02*
X119380000Y-82610000D01*
X120710000Y-80010000D02*
X120710000Y-67250000D01*
X92625000Y-90893737D02*
X92625000Y-89446263D01*
X95335000Y-90893737D02*
X95335000Y-89446263D01*
X106044999Y-76489999D02*
X106694999Y-76489999D01*
X106044999Y-76489999D02*
X105394999Y-76489999D01*
X106044999Y-73369999D02*
X107719999Y-73369999D01*
X106044999Y-73369999D02*
X105394999Y-73369999D01*
X93891265Y-95165001D02*
X95338739Y-95165001D01*
X93891265Y-97875001D02*
X95338739Y-97875001D01*
X114388736Y-77554999D02*
X112941262Y-77554999D01*
X114388736Y-74844999D02*
X112941262Y-74844999D01*
X97280000Y-105735000D02*
X95820000Y-105735000D01*
X97280000Y-105735000D02*
X97280000Y-106665000D01*
X97280000Y-108895000D02*
X94120000Y-108895000D01*
X97280000Y-108895000D02*
X97280000Y-107965000D01*
X97280001Y-75889999D02*
X95820001Y-75889999D01*
X97280001Y-75889999D02*
X97280001Y-76819999D01*
X97280001Y-79049999D02*
X94120001Y-79049999D01*
X97280001Y-79049999D02*
X97280001Y-78119999D01*
X111000001Y-96829999D02*
X112460001Y-96829999D01*
X111000001Y-96829999D02*
X111000001Y-95899999D01*
X111000001Y-93669999D02*
X114160001Y-93669999D01*
X111000001Y-93669999D02*
X111000001Y-94599999D01*
X102780000Y-83261252D02*
X102780000Y-81838748D01*
X105500000Y-83261252D02*
X105500000Y-81838748D01*
X97243737Y-83905001D02*
X95796263Y-83905001D01*
X97243737Y-81195001D02*
X95796263Y-81195001D01*
X102745001Y-69524999D02*
X104205001Y-69524999D01*
X102745001Y-69524999D02*
X102745001Y-68594999D01*
X102745001Y-66364999D02*
X105905001Y-66364999D01*
X102745001Y-66364999D02*
X102745001Y-67294999D01*
%LPC*%
D14*
X88900000Y-81280000D03*
D15*
X88900000Y-78740000D03*
X88900000Y-76200000D03*
X88900000Y-73660000D03*
X88900000Y-71120000D03*
D16*
X88900000Y-68580000D03*
D17*
X119380000Y-114160000D03*
X117682944Y-113457056D03*
X121077056Y-113457056D03*
X116980000Y-111760000D03*
D18*
X119380000Y-111760000D03*
D17*
X121780000Y-111760000D03*
X117682944Y-110062944D03*
X121077056Y-110062944D03*
X119380000Y-109360000D03*
X88900000Y-114160000D03*
X87202944Y-113457056D03*
X90597056Y-113457056D03*
X86500000Y-111760000D03*
D18*
X88900000Y-111760000D03*
D17*
X91300000Y-111760000D03*
X87202944Y-110062944D03*
X90597056Y-110062944D03*
X88900000Y-109360000D03*
X88900000Y-63360000D03*
X87202944Y-62657056D03*
X90597056Y-62657056D03*
X86500000Y-60960000D03*
D18*
X88900000Y-60960000D03*
D17*
X91300000Y-60960000D03*
X87202944Y-59262944D03*
X90597056Y-59262944D03*
X88900000Y-58560000D03*
X119380000Y-63360000D03*
X117682944Y-62657056D03*
X121077056Y-62657056D03*
X116980000Y-60960000D03*
D18*
X119380000Y-60960000D03*
D17*
X121780000Y-60960000D03*
X117682944Y-59262944D03*
X121077056Y-59262944D03*
X119380000Y-58560000D03*
D19*
X119380000Y-91440000D03*
D15*
X119380000Y-93980000D03*
X119380000Y-96520000D03*
X119380000Y-99060000D03*
X119380000Y-101600000D03*
D16*
X119380000Y-104140000D03*
D20*
X103275000Y-105725001D03*
X103275000Y-103825001D03*
X106275000Y-104775001D03*
D21*
X99060001Y-88607504D03*
X99060001Y-91732504D03*
D22*
X93052504Y-101600002D03*
X96177504Y-101600002D03*
D23*
X113260000Y-64455000D03*
X113260000Y-66355000D03*
X110260000Y-65405000D03*
D14*
X88900000Y-91440000D03*
D15*
X88900000Y-93980000D03*
X88900000Y-96520000D03*
X88900000Y-99060000D03*
X88900000Y-101600000D03*
D16*
X88900000Y-104140000D03*
D20*
X95020001Y-72704999D03*
X95020001Y-70804999D03*
X98020001Y-71754999D03*
D24*
X109220001Y-84112501D03*
X109220001Y-80987501D03*
X112395001Y-108242500D03*
X112395001Y-105117500D03*
D21*
X95885001Y-64477501D03*
X95885001Y-67602501D03*
D23*
X113260005Y-100015001D03*
X113260005Y-101915001D03*
X110260005Y-100965001D03*
D25*
X101297501Y-98740003D03*
X101297501Y-96840003D03*
X103172501Y-97790003D03*
D26*
X110210002Y-90170000D03*
X113310002Y-90170000D03*
D27*
X115227501Y-71120001D03*
X112102501Y-71120001D03*
D28*
X114300000Y-81000000D03*
X114300000Y-84100000D03*
D21*
X104139999Y-88607501D03*
X104139999Y-91732501D03*
D19*
X119380000Y-81280000D03*
D15*
X119380000Y-78740000D03*
X119380000Y-76200000D03*
X119380000Y-73660000D03*
X119380000Y-71120000D03*
D16*
X119380000Y-68580000D03*
D29*
X93980000Y-91720000D03*
X93980000Y-88620000D03*
D30*
X106982499Y-73979999D03*
X106982499Y-75879999D03*
X105107499Y-74929999D03*
D26*
X93065002Y-96520001D03*
X96165002Y-96520001D03*
D31*
X115214999Y-76199999D03*
X112114999Y-76199999D03*
D20*
X95020000Y-108265000D03*
X95020000Y-106365000D03*
X98020000Y-107315000D03*
X95020001Y-78419999D03*
X95020001Y-76519999D03*
X98020001Y-77469999D03*
D23*
X113260001Y-94299999D03*
X113260001Y-96199999D03*
X110260001Y-95249999D03*
D24*
X104140000Y-84112500D03*
X104140000Y-80987500D03*
D31*
X98070000Y-82550001D03*
X94970000Y-82550001D03*
D23*
X105005001Y-66994999D03*
X105005001Y-68894999D03*
X102005001Y-67944999D03*
%LPD*%
M02*
