%TF.GenerationSoftware,KiCad,Pcbnew,(7.0.0-55-gb63d0a3138)*%
%TF.CreationDate,2023-04-02T22:04:45+02:00*%
%TF.ProjectId,SPI2WS2812,53504932-5753-4323-9831-322e6b696361,rev?*%
%TF.SameCoordinates,Original*%
%TF.FileFunction,Drillmap*%
%TF.FilePolarity,Positive*%
%FSLAX45Y45*%
G04 Gerber Fmt 4.5, Leading zero omitted, Abs format (unit mm)*
G04 Created by KiCad (PCBNEW (7.0.0-55-gb63d0a3138)) date 2023-04-02 22:04:45*
%MOMM*%
%LPD*%
G01*
G04 APERTURE LIST*
%ADD10C,0.100000*%
%ADD11C,0.200000*%
G04 APERTURE END LIST*
D10*
X8890000Y-5588000D02*
X11938000Y-5588000D01*
X8382000Y-11176000D02*
G75*
G03*
X8890000Y-11684000I508000J0D01*
G01*
X8382000Y-11176000D02*
X8382000Y-6096000D01*
X8890000Y-5588000D02*
G75*
G03*
X8382000Y-6096000I0J-508000D01*
G01*
X11938000Y-11684000D02*
X8890000Y-11684000D01*
X11938000Y-11684000D02*
G75*
G03*
X12446000Y-11176000I0J508000D01*
G01*
X12446000Y-6096000D02*
G75*
G03*
X11938000Y-5588000I-508000J0D01*
G01*
X12446000Y-6096000D02*
X12446000Y-11176000D01*
D11*
X8624619Y-11982476D02*
X8624619Y-11782476D01*
X8624619Y-11782476D02*
X8672238Y-11782476D01*
X8672238Y-11782476D02*
X8700810Y-11792000D01*
X8700810Y-11792000D02*
X8719857Y-11811048D01*
X8719857Y-11811048D02*
X8729381Y-11830095D01*
X8729381Y-11830095D02*
X8738905Y-11868190D01*
X8738905Y-11868190D02*
X8738905Y-11896762D01*
X8738905Y-11896762D02*
X8729381Y-11934857D01*
X8729381Y-11934857D02*
X8719857Y-11953905D01*
X8719857Y-11953905D02*
X8700810Y-11972952D01*
X8700810Y-11972952D02*
X8672238Y-11982476D01*
X8672238Y-11982476D02*
X8624619Y-11982476D01*
X8824619Y-11982476D02*
X8824619Y-11849143D01*
X8824619Y-11887238D02*
X8834143Y-11868190D01*
X8834143Y-11868190D02*
X8843667Y-11858667D01*
X8843667Y-11858667D02*
X8862714Y-11849143D01*
X8862714Y-11849143D02*
X8881762Y-11849143D01*
X8948429Y-11982476D02*
X8948429Y-11849143D01*
X8948429Y-11782476D02*
X8938905Y-11792000D01*
X8938905Y-11792000D02*
X8948429Y-11801524D01*
X8948429Y-11801524D02*
X8957952Y-11792000D01*
X8957952Y-11792000D02*
X8948429Y-11782476D01*
X8948429Y-11782476D02*
X8948429Y-11801524D01*
X9072238Y-11982476D02*
X9053190Y-11972952D01*
X9053190Y-11972952D02*
X9043667Y-11953905D01*
X9043667Y-11953905D02*
X9043667Y-11782476D01*
X9177000Y-11982476D02*
X9157952Y-11972952D01*
X9157952Y-11972952D02*
X9148429Y-11953905D01*
X9148429Y-11953905D02*
X9148429Y-11782476D01*
X9373190Y-11982476D02*
X9373190Y-11782476D01*
X9373190Y-11782476D02*
X9439857Y-11925333D01*
X9439857Y-11925333D02*
X9506524Y-11782476D01*
X9506524Y-11782476D02*
X9506524Y-11982476D01*
X9687476Y-11982476D02*
X9687476Y-11877714D01*
X9687476Y-11877714D02*
X9677952Y-11858667D01*
X9677952Y-11858667D02*
X9658905Y-11849143D01*
X9658905Y-11849143D02*
X9620809Y-11849143D01*
X9620809Y-11849143D02*
X9601762Y-11858667D01*
X9687476Y-11972952D02*
X9668429Y-11982476D01*
X9668429Y-11982476D02*
X9620809Y-11982476D01*
X9620809Y-11982476D02*
X9601762Y-11972952D01*
X9601762Y-11972952D02*
X9592238Y-11953905D01*
X9592238Y-11953905D02*
X9592238Y-11934857D01*
X9592238Y-11934857D02*
X9601762Y-11915809D01*
X9601762Y-11915809D02*
X9620809Y-11906286D01*
X9620809Y-11906286D02*
X9668429Y-11906286D01*
X9668429Y-11906286D02*
X9687476Y-11896762D01*
X9782714Y-11849143D02*
X9782714Y-12049143D01*
X9782714Y-11858667D02*
X9801762Y-11849143D01*
X9801762Y-11849143D02*
X9839857Y-11849143D01*
X9839857Y-11849143D02*
X9858905Y-11858667D01*
X9858905Y-11858667D02*
X9868429Y-11868190D01*
X9868429Y-11868190D02*
X9877952Y-11887238D01*
X9877952Y-11887238D02*
X9877952Y-11944381D01*
X9877952Y-11944381D02*
X9868429Y-11963428D01*
X9868429Y-11963428D02*
X9858905Y-11972952D01*
X9858905Y-11972952D02*
X9839857Y-11982476D01*
X9839857Y-11982476D02*
X9801762Y-11982476D01*
X9801762Y-11982476D02*
X9782714Y-11972952D01*
X9963667Y-11963428D02*
X9973190Y-11972952D01*
X9973190Y-11972952D02*
X9963667Y-11982476D01*
X9963667Y-11982476D02*
X9954143Y-11972952D01*
X9954143Y-11972952D02*
X9963667Y-11963428D01*
X9963667Y-11963428D02*
X9963667Y-11982476D01*
X9963667Y-11858667D02*
X9973190Y-11868190D01*
X9973190Y-11868190D02*
X9963667Y-11877714D01*
X9963667Y-11877714D02*
X9954143Y-11868190D01*
X9954143Y-11868190D02*
X9963667Y-11858667D01*
X9963667Y-11858667D02*
X9963667Y-11877714D01*
M02*
