M48
; DRILL file {KiCad (7.0.0-55-gb63d0a3138)} date Sun Apr  2 22:04:44 2023
; FORMAT={-:-/ absolute / metric / decimal}
; #@! TF.CreationDate,2023-04-02T22:04:44+02:00
; #@! TF.GenerationSoftware,Kicad,Pcbnew,(7.0.0-55-gb63d0a3138)
; #@! TF.FileFunction,Plated,1,2,PTH
FMAT,2
METRIC
; #@! TA.AperFunction,Plated,PTH,ComponentDrill
T1C0.500
; #@! TA.AperFunction,Plated,PTH,ComponentDrill
T2C1.000
; #@! TA.AperFunction,Plated,PTH,ComponentDrill
T3C3.200
%
G90
G05
T1
X86.5Y-60.96
X86.5Y-111.76
X87.203Y-59.263
X87.203Y-62.657
X87.203Y-110.063
X87.203Y-113.457
X88.9Y-58.56
X88.9Y-63.36
X88.9Y-109.36
X88.9Y-114.16
X90.597Y-59.263
X90.597Y-62.657
X90.597Y-110.063
X90.597Y-113.457
X91.3Y-60.96
X91.3Y-111.76
X116.98Y-60.96
X116.98Y-111.76
X117.683Y-59.263
X117.683Y-62.657
X117.683Y-110.063
X117.683Y-113.457
X119.38Y-58.56
X119.38Y-63.36
X119.38Y-109.36
X119.38Y-114.16
X121.077Y-59.263
X121.077Y-62.657
X121.077Y-110.063
X121.077Y-113.457
X121.78Y-60.96
X121.78Y-111.76
T2
X88.9Y-68.58
X88.9Y-71.12
X88.9Y-73.66
X88.9Y-76.2
X88.9Y-78.74
X88.9Y-81.28
X88.9Y-91.44
X88.9Y-93.98
X88.9Y-96.52
X88.9Y-99.06
X88.9Y-101.6
X88.9Y-104.14
X119.38Y-68.58
X119.38Y-71.12
X119.38Y-73.66
X119.38Y-76.2
X119.38Y-78.74
X119.38Y-81.28
X119.38Y-91.44
X119.38Y-93.98
X119.38Y-96.52
X119.38Y-99.06
X119.38Y-101.6
X119.38Y-104.14
T3
X88.9Y-60.96
X88.9Y-111.76
X119.38Y-60.96
X119.38Y-111.76
T0
M30
